<?xml version="1.0" encoding="UTF-8" standalone="no"?><!DOCTYPE svg PUBLIC "-//W3C//DTD SVG 1.1//EN" "http://www.w3.org/Graphics/SVG/1.1/DTD/svg11.dtd"><svg width="100%" height="100%" viewBox="0 0 512 400" version="1.1" xmlns="http://www.w3.org/2000/svg" xmlns:xlink="http://www.w3.org/1999/xlink" xml:space="preserve" xmlns:serif="http://www.serif.com/" style="fill-rule:evenodd;clip-rule:evenodd;stroke-linecap:round;stroke-miterlimit:10;"><rect id="Artboard1" x="0" y="0" width="512" height="400" style="fill:#f6f8fa;"/><g id="Artboard11" serif:id="Artboard1"><g transform="matrix(16,0,0,16,484.676,48.02)"></g><text x="27.076px" y="48.02px" style="font-family:'GeistMono-Medium', 'Geist Mono';font-weight:500;font-size:16px;">(<tspan x="43.076px 59.076px 75.076px 91.076px 107.076px 123.076px 139.076px 155.076px 171.076px 187.076px 203.076px 219.076px 235.076px 251.076px 267.076px 283.076px 299.076px 315.076px 331.076px 347.076px 363.076px 379.076px 395.076px 411.076px 427.076px 443.076px 459.076px 475.076px " y="48.02px 48.02px 48.02px 48.02px 48.02px 48.02px 48.02px 48.02px 48.02px 48.02px 48.02px 48.02px 48.02px 48.02px 48.02px 48.02px 48.02px 48.02px 48.02px 48.02px 48.02px 48.02px 48.02px 48.02px 48.02px 48.02px 48.02px 48.02px ">5 - 1) * ((7 + 1) / (3 - 1))</tspan></text><g transform="matrix(16,0,0,16,484.676,112.02)"></g><text x="123.076px" y="112.02px" style="font-family:'GeistMono-Medium', 'Geist Mono';font-weight:500;font-size:16px;">4<tspan x="139.076px 155.076px 171.076px 187.076px 203.076px 219.076px 235.076px 251.076px 267.076px 283.076px 299.076px 315.076px 331.076px 347.076px 363.076px 379.076px 395.076px 411.076px 427.076px 443.076px 459.076px 475.076px " y="112.02px 112.02px 112.02px 112.02px 112.02px 112.02px 112.02px 112.02px 112.02px 112.02px 112.02px 112.02px 112.02px 112.02px 112.02px 112.02px 112.02px 112.02px 112.02px 112.02px 112.02px 112.02px "> * ((7 + 1) / (3 - 1))</tspan></text><g transform="matrix(16,0,0,16,484.676,176.02)"></g><text x="123.076px" y="176.02px" style="font-family:'GeistMono-Medium', 'Geist Mono';font-weight:500;font-size:16px;">4<tspan x="139.076px 155.076px 171.076px 187.076px 203.076px 219.076px 235.076px 251.076px 267.076px 283.076px 299.076px 315.076px 331.076px 347.076px 363.076px 379.076px 395.076px 411.076px 427.076px 443.076px 459.076px 475.076px " y="176.02px 176.02px 176.02px 176.02px 176.02px 176.02px 176.02px 176.02px 176.02px 176.02px 176.02px 176.02px 176.02px 176.02px 176.02px 176.02px 176.02px 176.02px 176.02px 176.02px 176.02px 176.02px "> * (   8    / (3 - 1))</tspan></text><g transform="matrix(16,0,0,16,484.676,240.02)"></g><text x="123.076px" y="240.02px" style="font-family:'GeistMono-Medium', 'Geist Mono';font-weight:500;font-size:16px;">4<tspan x="139.076px 155.076px 171.076px 187.076px 203.076px 219.076px 235.076px 251.076px 267.076px 283.076px 299.076px 315.076px 331.076px 347.076px 363.076px 379.076px 395.076px 411.076px 427.076px 443.076px 459.076px 475.076px " y="240.02px 240.02px 240.02px 240.02px 240.02px 240.02px 240.02px 240.02px 240.02px 240.02px 240.02px 240.02px 240.02px 240.02px 240.02px 240.02px 240.02px 240.02px 240.02px 240.02px 240.02px 240.02px "> * (   8    /    4   )</tspan></text><g transform="matrix(16,0,0,16,228.676,304.02)"></g><text x="123.076px" y="304.02px" style="font-family:'GeistMono-Medium', 'Geist Mono';font-weight:500;font-size:16px;">4<tspan x="139.076px 155.076px 171.076px 187.076px 203.076px 219.076px " y="304.02px 304.02px 304.02px 304.02px 304.02px 304.02px "> * 4.0</tspan></text><g transform="matrix(16,0,0,16,180.676,367.764)"></g><text x="123.076px" y="367.764px" style="font-family:'GeistMono-Medium', 'Geist Mono';font-weight:500;font-size:16px;">1<tspan x="139.076px 155.076px 171.076px " y="367.764px 367.764px 367.764px ">6.0</tspan></text><path d="M130.25,91.293l-2.25,3.375l-2.25,-3.375" style="fill:none;stroke:#000;stroke-width:1.5px;"/><path d="M32,56.02l0,12l48,-0l0,12l48,-0l0,14.648" style="fill:none;stroke:#000;stroke-width:1.5px;stroke-linejoin:round;stroke-miterlimit:1.5;"/><path d="M128,56.02l0,12l-48,-0" style="fill:none;stroke:#000;stroke-width:1.5px;stroke-linejoin:round;stroke-miterlimit:1.5;"/><path d="M162.25,347.293l-2.25,3.375l-2.25,-3.375" style="fill:none;stroke:#000;stroke-width:1.5px;"/><path d="M128,312.02l0,12l48,0l0,12l-16,0l0,14.648" style="fill:none;stroke:#000;stroke-width:1.5px;stroke-linejoin:round;stroke-miterlimit:1.5;"/><path d="M224,312.02l0,12l-48,0" style="fill:none;stroke:#000;stroke-width:1.5px;stroke-linejoin:round;stroke-miterlimit:1.5;"/><path d="M210.25,283.293l-2.25,3.375l-2.25,-3.375" style="fill:none;stroke:#000;stroke-width:1.5px;"/><path d="M192,248.02l0,12l144,0l0,12l-128,0l0,14.648" style="fill:none;stroke:#000;stroke-width:1.5px;stroke-linejoin:round;stroke-miterlimit:1.5;"/><path d="M480,248.02l0,12l-240,0" style="fill:none;stroke:#000;stroke-width:1.5px;stroke-linejoin:round;stroke-miterlimit:1.5;"/><path d="M258.126,155.293l-2.25,3.375l-2.25,-3.375" style="fill:none;stroke:#000;stroke-width:1.5px;"/><path d="M207.876,120.02l-0,12l48,0l0,26.648" style="fill:none;stroke:#000;stroke-width:1.5px;stroke-linejoin:round;stroke-miterlimit:1.5;"/><path d="M303.876,120.02l-0,12l-48,0" style="fill:none;stroke:#000;stroke-width:1.5px;stroke-linejoin:round;stroke-miterlimit:1.5;"/><path d="M418.25,219.293l-2.25,3.375l-2.25,-3.375" style="fill:none;stroke:#000;stroke-width:1.5px;"/><path d="M368,184.02l0,12l48,-0l0,26.648" style="fill:none;stroke:#000;stroke-width:1.5px;stroke-linejoin:round;stroke-miterlimit:1.5;"/><path d="M464,184.02l0,12l-48,-0" style="fill:none;stroke:#000;stroke-width:1.5px;stroke-linejoin:round;stroke-miterlimit:1.5;"/></g></svg>