<?xml version="1.0" encoding="UTF-8" standalone="no"?><!DOCTYPE svg PUBLIC "-//W3C//DTD SVG 1.1//EN" "http://www.w3.org/Graphics/SVG/1.1/DTD/svg11.dtd"><svg width="100%" height="100%" viewBox="0 0 512 400" version="1.1" xmlns="http://www.w3.org/2000/svg" xmlns:xlink="http://www.w3.org/1999/xlink" xml:space="preserve" xmlns:serif="http://www.serif.com/" style="fill-rule:evenodd;clip-rule:evenodd;stroke-linecap:round;stroke-miterlimit:10;"><rect id="Artboard1" x="0" y="0" width="512" height="400" style="fill:#f6f8fa;"/><g id="Artboard11" serif:id="Artboard1"><path d="M34.148,35.7l-1.424,-0c-3.632,4.304 -3.632,9.456 -0,13.76l1.424,-0c-3.248,-4.304 -3.248,-9.456 -0,-13.76Z" style="fill-rule:nonzero;"/><path d="M51.268,36.66l-6.224,-0l-0.88,6.464l1.664,-0c0.288,-0.704 1.168,-1.184 2.032,-1.184c1.376,-0 2.368,0.96 2.368,2.416c-0,1.424 -0.912,2.416 -2.176,2.416c-1.328,-0 -2.272,-0.688 -2.432,-1.808l-1.648,0.096c0.176,1.808 1.872,3.216 3.936,3.216c2.32,-0 3.968,-1.616 3.968,-3.92c-0,-2.272 -1.568,-3.904 -3.632,-3.904c-0.832,-0 -1.776,0.32 -2.288,0.928l0.432,-3.216l4.88,-0l-0,-1.504Z" style="fill-rule:nonzero;"/><rect x="77.188" y="42.484" width="5.376" height="1.408" style="fill-rule:nonzero;"/><path d="M108.004,46.516l-0,1.504l8.032,-0l-0,-1.504l-3.072,-0l-0,-9.856l-1.264,-0c-0,1.28 -0.56,1.84 -1.84,1.84l-1.312,-0l-0,1.312l2.848,-0l-0,6.704l-3.392,-0Z" style="fill-rule:nonzero;"/><path d="M127.028,35.7l-1.424,-0c3.248,4.304 3.248,9.456 -0,13.76l1.424,-0c3.632,-4.304 3.632,-9.456 -0,-13.76Z" style="fill-rule:nonzero;"/><path d="M162.628,38.724l-1.824,0.016l0.928,-1.584l-0.944,-0.544l-0.912,1.584l-0.912,-1.584l-0.944,0.544l0.928,1.584l-1.824,-0.016l-0,1.088l1.824,-0.016l-0.928,1.584l0.944,0.544l0.912,-1.584l0.912,1.584l0.944,-0.544l-0.928,-1.584l1.824,0.016l-0,-1.088Z" style="fill-rule:nonzero;"/><path d="M194.148,35.7l-1.424,-0c-3.632,4.304 -3.632,9.456 -0,13.76l1.424,-0c-3.248,-4.304 -3.248,-9.456 -0,-13.76Z" style="fill-rule:nonzero;"/><path d="M210.148,35.7l-1.424,-0c-3.632,4.304 -3.632,9.456 -0,13.76l1.424,-0c-3.248,-4.304 -3.248,-9.456 -0,-13.76Z" style="fill-rule:nonzero;"/><path d="M220.02,36.66l-0,1.504l6.4,-0c-2.224,2.816 -3.728,6.176 -3.728,9.856l1.632,-0c-0,-3.76 1.568,-7.136 3.808,-9.92l-0,-1.44l-8.112,-0Z" style="fill-rule:nonzero;"/><path d="M252.068,42.436l-0,1.408l3.104,-0l-0,3.104l1.408,-0l-0,-3.104l3.104,-0l-0,-1.408l-3.104,-0l-0,-3.104l-1.408,-0l-0,3.104l-3.104,-0Z" style="fill-rule:nonzero;"/><path d="M284.004,46.516l-0,1.504l8.032,-0l-0,-1.504l-3.072,-0l-0,-9.856l-1.264,-0c0,1.28 -0.56,1.84 -1.84,1.84l-1.312,-0l-0,1.312l2.848,-0l-0,6.704l-3.392,-0Z" style="fill-rule:nonzero;"/><path d="M303.028,35.7l-1.424,-0c3.248,4.304 3.248,9.456 -0,13.76l1.424,-0c3.632,-4.304 3.632,-9.456 -0,-13.76Z" style="fill-rule:nonzero;"/><path d="M332.724,49.46l1.552,-0l4.736,-13.68l-1.552,-0l-4.736,13.68Z" style="fill-rule:nonzero;"/><path d="M370.148,35.7l-1.424,-0c-3.632,4.304 -3.632,9.456 -0,13.76l1.424,-0c-3.248,-4.304 -3.248,-9.456 -0,-13.76Z" style="fill-rule:nonzero;"/><path d="M383.764,41.252l-0.832,-0.016l-0,1.488l0.832,-0.016c1.552,-0.032 2.528,0.768 2.528,2.064c-0,1.232 -0.96,2 -2.496,2c-1.056,-0 -2.304,-0.528 -2.416,-1.84l-1.632,0.096c0.096,1.952 1.792,3.248 4.048,3.248c2.464,-0 4.128,-1.392 4.128,-3.392c-0,-1.44 -0.832,-2.56 -2.416,-3.008c1.328,-0.384 2.032,-1.216 2.032,-2.496c-0,-1.76 -1.536,-2.976 -3.744,-2.976c-1.952,-0 -3.456,1.152 -3.664,2.8l1.632,0.096c0.144,-0.864 0.928,-1.392 2.032,-1.392c1.344,0 2.096,0.576 2.096,1.504c-0,1.376 -1.104,1.856 -2.128,1.84Z" style="fill-rule:nonzero;"/><rect x="413.188" y="42.484" width="5.376" height="1.408" style="fill-rule:nonzero;"/><path d="M444.004,46.516l-0,1.504l8.032,-0l-0,-1.504l-3.072,-0l-0,-9.856l-1.264,-0c0,1.28 -0.56,1.84 -1.84,1.84l-1.312,-0l-0,1.312l2.848,-0l-0,6.704l-3.392,-0Z" style="fill-rule:nonzero;"/><path d="M463.028,35.7l-1.424,-0c3.248,4.304 3.248,9.456 -0,13.76l1.424,-0c3.632,-4.304 3.632,-9.456 -0,-13.76Z" style="fill-rule:nonzero;"/><path d="M479.028,35.7l-1.424,-0c3.248,4.304 3.248,9.456 -0,13.76l1.424,-0c3.632,-4.304 3.632,-9.456 -0,-13.76Z" style="fill-rule:nonzero;"/><path d="M130.916,100.66l-1.728,-0l-5.648,7.584l-0,1.536l5.808,-0l-0,2.24l1.568,-0l-0,-2.24l1.264,-0l-0,-1.504l-1.264,-0l-0,-7.616Zm-5.488,7.616l3.92,-5.248l-0,5.248l-3.92,-0Z" style="fill-rule:nonzero;"/><path d="M162.628,102.724l-1.824,0.016l0.928,-1.584l-0.944,-0.544l-0.912,1.584l-0.912,-1.584l-0.944,0.544l0.928,1.584l-1.824,-0.016l-0,1.088l1.824,-0.016l-0.928,1.584l0.944,0.544l0.912,-1.584l0.912,1.584l0.944,-0.544l-0.928,-1.584l1.824,0.016l-0,-1.088Z" style="fill-rule:nonzero;"/><path d="M194.148,99.7l-1.424,-0c-3.632,4.304 -3.632,9.456 -0,13.76l1.424,-0c-3.248,-4.304 -3.248,-9.456 -0,-13.76Z" style="fill-rule:nonzero;"/><path d="M210.148,99.7l-1.424,-0c-3.632,4.304 -3.632,9.456 -0,13.76l1.424,-0c-3.248,-4.304 -3.248,-9.456 -0,-13.76Z" style="fill-rule:nonzero;"/><path d="M220.02,100.66l-0,1.504l6.4,-0c-2.224,2.816 -3.728,6.176 -3.728,9.856l1.632,-0c-0,-3.76 1.568,-7.136 3.808,-9.92l-0,-1.44l-8.112,-0Z" style="fill-rule:nonzero;"/><path d="M252.068,106.436l-0,1.408l3.104,-0l-0,3.104l1.408,-0l-0,-3.104l3.104,-0l-0,-1.408l-3.104,-0l-0,-3.104l-1.408,-0l-0,3.104l-3.104,-0Z" style="fill-rule:nonzero;"/><path d="M284.004,110.516l-0,1.504l8.032,-0l-0,-1.504l-3.072,-0l-0,-9.856l-1.264,-0c0,1.28 -0.56,1.84 -1.84,1.84l-1.312,-0l-0,1.312l2.848,-0l-0,6.704l-3.392,-0Z" style="fill-rule:nonzero;"/><path d="M303.028,99.7l-1.424,-0c3.248,4.304 3.248,9.456 -0,13.76l1.424,-0c3.632,-4.304 3.632,-9.456 -0,-13.76Z" style="fill-rule:nonzero;"/><path d="M332.724,113.46l1.552,-0l4.736,-13.68l-1.552,-0l-4.736,13.68Z" style="fill-rule:nonzero;"/><path d="M370.148,99.7l-1.424,-0c-3.632,4.304 -3.632,9.456 -0,13.76l1.424,-0c-3.248,-4.304 -3.248,-9.456 -0,-13.76Z" style="fill-rule:nonzero;"/><path d="M383.764,105.252l-0.832,-0.016l-0,1.488l0.832,-0.016c1.552,-0.032 2.528,0.768 2.528,2.064c-0,1.232 -0.96,2 -2.496,2c-1.056,-0 -2.304,-0.528 -2.416,-1.84l-1.632,0.096c0.096,1.952 1.792,3.248 4.048,3.248c2.464,-0 4.128,-1.392 4.128,-3.392c-0,-1.44 -0.832,-2.56 -2.416,-3.008c1.328,-0.384 2.032,-1.216 2.032,-2.496c-0,-1.76 -1.536,-2.976 -3.744,-2.976c-1.952,-0 -3.456,1.152 -3.664,2.8l1.632,0.096c0.144,-0.864 0.928,-1.392 2.032,-1.392c1.344,-0 2.096,0.576 2.096,1.504c-0,1.376 -1.104,1.856 -2.128,1.84Z" style="fill-rule:nonzero;"/><rect x="413.188" y="106.484" width="5.376" height="1.408" style="fill-rule:nonzero;"/><path d="M444.004,110.516l-0,1.504l8.032,-0l-0,-1.504l-3.072,-0l-0,-9.856l-1.264,-0c0,1.28 -0.56,1.84 -1.84,1.84l-1.312,-0l-0,1.312l2.848,-0l-0,6.704l-3.392,-0Z" style="fill-rule:nonzero;"/><path d="M463.028,99.7l-1.424,-0c3.248,4.304 3.248,9.456 -0,13.76l1.424,-0c3.632,-4.304 3.632,-9.456 -0,-13.76Z" style="fill-rule:nonzero;"/><path d="M479.028,99.7l-1.424,-0c3.248,4.304 3.248,9.456 -0,13.76l1.424,-0c3.632,-4.304 3.632,-9.456 -0,-13.76Z" style="fill-rule:nonzero;"/><path d="M130.916,164.66l-1.728,0l-5.648,7.584l-0,1.536l5.808,0l-0,2.24l1.568,0l-0,-2.24l1.264,0l-0,-1.504l-1.264,0l-0,-7.616Zm-5.488,7.616l3.92,-5.248l-0,5.248l-3.92,0Z" style="fill-rule:nonzero;"/><path d="M162.628,166.724l-1.824,0.016l0.928,-1.584l-0.944,-0.544l-0.912,1.584l-0.912,-1.584l-0.944,0.544l0.928,1.584l-1.824,-0.016l-0,1.088l1.824,-0.016l-0.928,1.584l0.944,0.544l0.912,-1.584l0.912,1.584l0.944,-0.544l-0.928,-1.584l1.824,0.016l-0,-1.088Z" style="fill-rule:nonzero;"/><path d="M194.148,163.7l-1.424,0c-3.632,4.304 -3.632,9.456 -0,13.76l1.424,0c-3.248,-4.304 -3.248,-9.456 -0,-13.76Z" style="fill-rule:nonzero;"/><path d="M255.876,176.276c2.352,0 4.096,-1.296 4.096,-3.376c0,-1.408 -0.832,-2.512 -2.208,-3.04c1.04,-0.432 1.664,-1.184 1.664,-2.336c0,-1.808 -1.52,-3.12 -3.552,-3.12c-2.016,0 -3.552,1.312 -3.552,3.12c0,1.152 0.608,1.904 1.664,2.336c-1.376,0.512 -2.208,1.616 -2.208,3.04c0,2.08 1.744,3.376 4.096,3.376Zm-2.448,-3.52c0,-1.2 1.008,-2.032 2.448,-2.032c1.44,0 2.448,0.832 2.448,2.032c0,1.2 -1.008,2.016 -2.448,2.016c-1.44,0 -2.448,-0.816 -2.448,-2.016Zm0.528,-5.2c0,-0.976 0.784,-1.648 1.92,-1.648c1.136,0 1.92,0.672 1.92,1.648c0,0.976 -0.784,1.664 -1.92,1.664c-1.136,0 -1.92,-0.688 -1.92,-1.664Z" style="fill-rule:nonzero;"/><path d="M332.724,177.46l1.552,0l4.736,-13.68l-1.552,0l-4.736,13.68Z" style="fill-rule:nonzero;"/><path d="M370.148,163.7l-1.424,0c-3.632,4.304 -3.632,9.456 -0,13.76l1.424,0c-3.248,-4.304 -3.248,-9.456 -0,-13.76Z" style="fill-rule:nonzero;"/><path d="M383.764,169.252l-0.832,-0.016l-0,1.488l0.832,-0.016c1.552,-0.032 2.528,0.768 2.528,2.064c-0,1.232 -0.96,2 -2.496,2c-1.056,0 -2.304,-0.528 -2.416,-1.84l-1.632,0.096c0.096,1.952 1.792,3.248 4.048,3.248c2.464,0 4.128,-1.392 4.128,-3.392c-0,-1.44 -0.832,-2.56 -2.416,-3.008c1.328,-0.384 2.032,-1.216 2.032,-2.496c-0,-1.76 -1.536,-2.976 -3.744,-2.976c-1.952,0 -3.456,1.152 -3.664,2.8l1.632,0.096c0.144,-0.864 0.928,-1.392 2.032,-1.392c1.344,0 2.096,0.576 2.096,1.504c-0,1.376 -1.104,1.856 -2.128,1.84Z" style="fill-rule:nonzero;"/><rect x="413.188" y="170.484" width="5.376" height="1.408" style="fill-rule:nonzero;"/><path d="M444.004,174.516l-0,1.504l8.032,0l-0,-1.504l-3.072,0l-0,-9.856l-1.264,0c0,1.28 -0.56,1.84 -1.84,1.84l-1.312,0l-0,1.312l2.848,0l-0,6.704l-3.392,0Z" style="fill-rule:nonzero;"/><path d="M463.028,163.7l-1.424,0c3.248,4.304 3.248,9.456 -0,13.76l1.424,0c3.632,-4.304 3.632,-9.456 -0,-13.76Z" style="fill-rule:nonzero;"/><path d="M479.028,163.7l-1.424,0c3.248,4.304 3.248,9.456 -0,13.76l1.424,0c3.632,-4.304 3.632,-9.456 -0,-13.76Z" style="fill-rule:nonzero;"/><path d="M130.916,228.66l-1.728,0l-5.648,7.584l-0,1.536l5.808,0l-0,2.24l1.568,0l-0,-2.24l1.264,0l-0,-1.504l-1.264,0l-0,-7.616Zm-5.488,7.616l3.92,-5.248l-0,5.248l-3.92,0Z" style="fill-rule:nonzero;"/><path d="M162.628,230.724l-1.824,0.016l0.928,-1.584l-0.944,-0.544l-0.912,1.584l-0.912,-1.584l-0.944,0.544l0.928,1.584l-1.824,-0.016l-0,1.088l1.824,-0.016l-0.928,1.584l0.944,0.544l0.912,-1.584l0.912,1.584l0.944,-0.544l-0.928,-1.584l1.824,0.016l-0,-1.088Z" style="fill-rule:nonzero;"/><path d="M194.148,227.7l-1.424,0c-3.632,4.304 -3.632,9.456 -0,13.76l1.424,0c-3.248,-4.304 -3.248,-9.456 -0,-13.76Z" style="fill-rule:nonzero;"/><path d="M255.876,240.276c2.352,0 4.096,-1.296 4.096,-3.376c0,-1.408 -0.832,-2.512 -2.208,-3.04c1.04,-0.432 1.664,-1.184 1.664,-2.336c0,-1.808 -1.52,-3.12 -3.552,-3.12c-2.016,0 -3.552,1.312 -3.552,3.12c0,1.152 0.608,1.904 1.664,2.336c-1.376,0.512 -2.208,1.616 -2.208,3.04c0,2.08 1.744,3.376 4.096,3.376Zm-2.448,-3.52c0,-1.2 1.008,-2.032 2.448,-2.032c1.44,0 2.448,0.832 2.448,2.032c0,1.2 -1.008,2.016 -2.448,2.016c-1.44,0 -2.448,-0.816 -2.448,-2.016Zm0.528,-5.2c0,-0.976 0.784,-1.648 1.92,-1.648c1.136,0 1.92,0.672 1.92,1.648c0,0.976 -0.784,1.664 -1.92,1.664c-1.136,0 -1.92,-0.688 -1.92,-1.664Z" style="fill-rule:nonzero;"/><path d="M332.724,241.46l1.552,0l4.736,-13.68l-1.552,0l-4.736,13.68Z" style="fill-rule:nonzero;"/><path d="M418.916,228.66l-1.728,0l-5.648,7.584l0,1.536l5.808,0l0,2.24l1.568,0l0,-2.24l1.264,0l0,-1.504l-1.264,0l0,-7.616Zm-5.488,7.616l3.92,-5.248l0,5.248l-3.92,0Z" style="fill-rule:nonzero;"/><path d="M479.028,227.7l-1.424,0c3.248,4.304 3.248,9.456 -0,13.76l1.424,0c3.632,-4.304 3.632,-9.456 -0,-13.76Z" style="fill-rule:nonzero;"/><path d="M130.916,292.66l-1.728,-0l-5.648,7.584l-0,1.536l5.808,-0l-0,2.24l1.568,-0l-0,-2.24l1.264,-0l-0,-1.504l-1.264,-0l-0,-7.616Zm-5.488,7.616l3.92,-5.248l-0,5.248l-3.92,-0Z" style="fill-rule:nonzero;"/><path d="M162.628,294.724l-1.824,0.016l0.928,-1.584l-0.944,-0.544l-0.912,1.584l-0.912,-1.584l-0.944,0.544l0.928,1.584l-1.824,-0.016l-0,1.088l1.824,-0.016l-0.928,1.584l0.944,0.544l0.912,-1.584l0.912,1.584l0.944,-0.544l-0.928,-1.584l1.824,0.016l-0,-1.088Z" style="fill-rule:nonzero;"/><path d="M194.916,292.66l-1.728,-0l-5.648,7.584l-0,1.536l5.808,-0l-0,2.24l1.568,-0l-0,-2.24l1.264,-0l-0,-1.504l-1.264,-0l-0,-7.616Zm-5.488,7.616l3.92,-5.248l-0,5.248l-3.92,-0Z" style="fill-rule:nonzero;"/><rect x="206.868" y="302.068" width="2.016" height="1.952" style="fill-rule:nonzero;"/><path d="M223.876,304.276c2.496,-0 4.064,-2.304 4.064,-5.92c-0,-3.648 -1.568,-5.952 -4.064,-5.952c-2.496,0 -4.064,2.304 -4.064,5.952c-0,3.616 1.568,5.92 4.064,5.92Zm-2.416,-5.92c-0,-2.768 0.928,-4.448 2.416,-4.448c1.488,-0 2.416,1.68 2.416,4.448c-0,2.736 -0.928,4.416 -2.416,4.416c-1.488,0 -2.416,-1.68 -2.416,-4.416Z" style="fill-rule:nonzero;"/><path d="M124.004,366.26l-0,1.504l8.032,0l-0,-1.504l-3.072,0l-0,-9.856l-1.264,0c-0,1.28 -0.56,1.84 -1.84,1.84l-1.312,0l-0,1.312l2.848,0l-0,6.704l-3.392,0Z" style="fill-rule:nonzero;"/><path d="M146.34,359.012l1.616,-0.112c-0.496,-1.76 -1.936,-2.752 -3.68,-2.752c-3.312,0 -4.4,3.168 -4.4,6.608c-0,1.728 0.384,3.136 1.168,3.984c0.816,0.896 1.856,1.28 2.912,1.28c2.368,0 4.048,-1.568 4.048,-4.032c-0,-2.336 -1.536,-3.968 -3.792,-3.968c-1.136,0 -2.096,0.496 -2.72,1.408c0.224,-2.448 1.2,-3.776 2.784,-3.776c1.008,0 1.76,0.496 2.064,1.36Zm-4.768,4.976c0.016,-1.456 1.072,-2.464 2.528,-2.464c1.328,0 2.272,1.008 2.272,2.464c-0,1.488 -0.992,2.528 -2.384,2.528c-1.44,0 -2.448,-1.04 -2.416,-2.528Z" style="fill-rule:nonzero;"/><rect x="158.868" y="365.812" width="2.016" height="1.952" style="fill-rule:nonzero;"/><path d="M175.876,368.02c2.496,0 4.064,-2.304 4.064,-5.92c-0,-3.648 -1.568,-5.952 -4.064,-5.952c-2.496,0 -4.064,2.304 -4.064,5.952c-0,3.616 1.568,5.92 4.064,5.92Zm-2.416,-5.92c-0,-2.768 0.928,-4.448 2.416,-4.448c1.488,0 2.416,1.68 2.416,4.448c-0,2.736 -0.928,4.416 -2.416,4.416c-1.488,0 -2.416,-1.68 -2.416,-4.416Z" style="fill-rule:nonzero;"/><path d="M130.25,91.293l-2.25,3.375l-2.25,-3.375" style="fill:none;stroke:#000;stroke-width:1.5px;"/><path d="M32,56.02l0,12l48,-0l0,12l48,-0l0,14.648" style="fill:none;stroke:#000;stroke-width:1.5px;stroke-linejoin:round;stroke-miterlimit:1.5;"/><path d="M128,56.02l0,12l-48,-0" style="fill:none;stroke:#000;stroke-width:1.5px;stroke-linejoin:round;stroke-miterlimit:1.5;"/><path d="M162.25,347.293l-2.25,3.375l-2.25,-3.375" style="fill:none;stroke:#000;stroke-width:1.5px;"/><path d="M128,312.02l0,12l48,0l0,12l-16,0l0,14.648" style="fill:none;stroke:#000;stroke-width:1.5px;stroke-linejoin:round;stroke-miterlimit:1.5;"/><path d="M224,312.02l0,12l-48,0" style="fill:none;stroke:#000;stroke-width:1.5px;stroke-linejoin:round;stroke-miterlimit:1.5;"/><path d="M210.25,283.293l-2.25,3.375l-2.25,-3.375" style="fill:none;stroke:#000;stroke-width:1.5px;"/><path d="M192,248.02l0,12l144,0l0,12l-128,0l0,14.648" style="fill:none;stroke:#000;stroke-width:1.5px;stroke-linejoin:round;stroke-miterlimit:1.5;"/><path d="M480,248.02l0,12l-240,0" style="fill:none;stroke:#000;stroke-width:1.5px;stroke-linejoin:round;stroke-miterlimit:1.5;"/><path d="M258.126,155.293l-2.25,3.375l-2.25,-3.375" style="fill:none;stroke:#000;stroke-width:1.5px;"/><path d="M207.876,120.02l-0,12l48,0l0,26.648" style="fill:none;stroke:#000;stroke-width:1.5px;stroke-linejoin:round;stroke-miterlimit:1.5;"/><path d="M303.876,120.02l-0,12l-48,0" style="fill:none;stroke:#000;stroke-width:1.5px;stroke-linejoin:round;stroke-miterlimit:1.5;"/><path d="M418.25,219.293l-2.25,3.375l-2.25,-3.375" style="fill:none;stroke:#000;stroke-width:1.5px;"/><path d="M368,184.02l0,12l48,-0l0,26.648" style="fill:none;stroke:#000;stroke-width:1.5px;stroke-linejoin:round;stroke-miterlimit:1.5;"/><path d="M464,184.02l0,12l-48,-0" style="fill:none;stroke:#000;stroke-width:1.5px;stroke-linejoin:round;stroke-miterlimit:1.5;"/></g></svg>