<?xml version="1.0" encoding="UTF-8" standalone="no"?><!DOCTYPE svg PUBLIC "-//W3C//DTD SVG 1.1//EN" "http://www.w3.org/Graphics/SVG/1.1/DTD/svg11.dtd"><svg width="100%" height="100%" viewBox="0 0 780 644" version="1.1" xmlns="http://www.w3.org/2000/svg" xmlns:xlink="http://www.w3.org/1999/xlink" xml:space="preserve" xmlns:serif="http://www.serif.com/" style="fill-rule:evenodd;clip-rule:evenodd;stroke-linecap:round;stroke-linejoin:round;stroke-miterlimit:1.5;"><rect id="if_elif_else" x="0" y="0" width="780" height="644" style="fill:#f6f8fa;"/><g id="if_elif_else1" serif:id="if_elif_else"><rect x="32" y="199.96" width="32" height="32" style="stroke:#000;stroke-width:1.5px;"/><path d="M76.144,213.16l0,8.48l1.552,0l0,-5.056c0,-1.504 0.816,-2.288 2.048,-2.288c1.168,0 1.664,0.784 1.664,2.288l0,5.056l1.552,0l0,-5.456c0,-1.824 -0.928,-3.216 -2.816,-3.216c-1.136,0 -2.08,0.528 -2.528,1.616l-0.048,-1.424l-1.424,0Z" style="fill-rule:nonzero;"/><path d="M85.392,215.688l1.648,0.112c0.192,-0.816 0.896,-1.392 1.856,-1.392c1.136,0 1.872,0.64 1.888,1.936l-2.288,0.448c-1.952,0.368 -3.248,0.864 -3.248,2.624c0,1.52 1.376,2.416 3.088,2.416c1.328,0 2.32,-0.704 2.64,-1.488c0.16,0.752 0.768,1.296 1.792,1.296l0.448,0l0,-1.376l-0.368,0c-0.352,0 -0.512,-0.16 -0.512,-0.528l0,-3.216c0,-2.352 -1.36,-3.552 -3.424,-3.552c-1.792,0 -3.2,1.072 -3.52,2.72Zm1.488,3.696c0,-1.072 0.928,-1.168 2.112,-1.376l1.824,-0.32l0,0.368c0,1.52 -1.008,2.416 -2.288,2.416c-1.12,0 -1.632,-0.496 -1.648,-1.088Z" style="fill-rule:nonzero;"/><path d="M94.512,213.16l0,8.48l1.552,0l0,-5.168c0,-1.424 0.352,-2.192 0.944,-2.192c0.656,0 0.896,0.608 0.896,2.192l0,5.168l1.552,0l0,-5.168c0,-1.424 0.368,-2.192 1.04,-2.192c0.592,0 0.8,0.608 0.8,2.192l0,5.168l1.552,0l0,-5.168c0,-2.4 -0.592,-3.504 -1.888,-3.504c-0.848,0 -1.52,0.592 -1.808,1.536c-0.272,-1.056 -0.72,-1.536 -1.472,-1.536c-0.832,0 -1.408,0.48 -1.728,1.344l-0.048,-1.152l-1.392,0Z" style="fill-rule:nonzero;"/><path d="M104.432,217.4c0,2.704 1.552,4.432 3.936,4.432c1.696,0 3.152,-1.024 3.632,-2.64l-1.648,-0.144c-0.368,0.848 -1.136,1.344 -1.984,1.344c-1.344,0 -2.16,-0.944 -2.288,-2.544l6.048,0l0,-0.592c-0.128,-3.056 -1.856,-4.288 -3.76,-4.288c-2.384,0 -3.936,1.728 -3.936,4.432Zm1.696,-0.8c0.224,-1.376 1.008,-2.192 2.24,-2.192c0.96,0 1.84,0.576 2.064,2.192l-4.304,0Z" style="fill-rule:nonzero;"/><path d="M123.904,214.28l0,1.44l7.072,0l0,-1.44l-7.072,0Zm0,5.04l7.072,0l0,-1.44l-7.072,0l0,1.44Z" style="fill-rule:nonzero;"/><path d="M133.504,214.28l0,1.44l7.072,0l0,-1.44l-7.072,0Zm0,5.04l7.072,0l0,-1.44l-7.072,0l0,1.44Z" style="fill-rule:nonzero;"/><path d="M156.864,210.28l0.064,4.112l1.088,0l0.384,-2.816l0,-1.296l-1.536,0Zm-2.784,1.296l0.384,2.816l1.088,0l0.064,-4.112l-1.536,0l0,1.296Z" style="fill-rule:nonzero;"/><path d="M161.408,221.64l1.648,0l0.864,-2.976l3.84,0l0.864,2.976l1.648,0l-3.44,-11.36l-1.984,0l-3.44,11.36Zm2.912,-4.384l1.52,-5.216l1.52,5.216l-3.04,0Z" style="fill-rule:nonzero;"/><path d="M171.936,220.264l-0,1.376l7.648,0l-0,-1.376l-2.896,0l-0,-7.648c-0,-1.52 -0.88,-2.336 -2.464,-2.336l-2.016,0l-0,1.376l2.016,0c0.624,0 0.912,0.304 0.912,0.96l-0,7.648l-3.2,0Z" style="fill-rule:nonzero;"/><path d="M186.384,213.16l-4.56,0l-0,1.376l2.992,0l-0,5.728l-3.28,0l-0,1.376l7.664,0l-0,-1.376l-2.816,0l-0,-7.104Zm-1.712,-1.2l1.696,0l-0,-1.68l-1.696,0l-0,1.68Z" style="fill-rule:nonzero;"/><path d="M196.832,216.12l1.632,-0.096c-0.208,-1.872 -1.824,-3.056 -3.616,-3.056c-2.384,0 -3.936,1.728 -3.936,4.432c-0,2.704 1.552,4.432 3.936,4.432c1.856,0 3.44,-1.232 3.696,-3.184l-1.648,-0.096c-0.176,1.152 -1.04,1.84 -2.048,1.84c-1.456,0 -2.304,-1.12 -2.304,-2.992c-0,-1.872 0.848,-2.992 2.304,-2.992c0.96,0 1.824,0.656 1.984,1.712Z" style="fill-rule:nonzero;"/><path d="M200.432,217.4c-0,2.704 1.552,4.432 3.936,4.432c1.696,0 3.152,-1.024 3.632,-2.64l-1.648,-0.144c-0.368,0.848 -1.136,1.344 -1.984,1.344c-1.344,0 -2.16,-0.944 -2.288,-2.544l6.048,0l-0,-0.592c-0.128,-3.056 -1.856,-4.288 -3.76,-4.288c-2.384,0 -3.936,1.728 -3.936,4.432Zm1.696,-0.8c0.224,-1.376 1.008,-2.192 2.24,-2.192c0.96,0 1.84,0.576 2.064,2.192l-4.304,0Z" style="fill-rule:nonzero;"/><path d="M214.464,210.28l0.064,4.112l1.088,0l0.384,-2.816l-0,-1.296l-1.536,0Zm-2.784,1.296l0.384,2.816l1.088,0l0.064,-4.112l-1.536,0l-0,1.296Z" style="fill-rule:nonzero;"/><path d="M363.872,272.04l1.552,0l0,-3.568c0.48,0.896 1.328,1.36 2.48,1.36c2.448,0 3.584,-2.048 3.584,-4.432c0,-2.384 -1.136,-4.432 -3.584,-4.432c-1.216,0 -2.08,0.512 -2.544,1.424l-0.048,-1.232l-1.44,0l0,10.88Zm1.392,-6.64c0,-1.536 0.688,-2.992 2.288,-2.992c1.616,0 2.272,1.44 2.272,2.992c0,1.552 -0.656,2.992 -2.272,2.992c-1.6,0 -2.288,-1.456 -2.288,-2.992Z" style="fill-rule:nonzero;"/><path d="M376.912,261.16l-3.312,0l0,1.376l2.176,0l0,5.728l-2.176,0l0,1.376l6.448,0l0,-1.376l-2.704,0l0,-3.632c0,-1.408 0.56,-2.096 1.824,-2.096l1.68,0l-0,-1.376l-1.728,0c-1.12,0 -1.808,0.496 -2.096,1.568l-0.112,-1.568Z" style="fill-rule:nonzero;"/><path d="M387.984,261.16l-4.56,0l-0,1.376l2.992,0l-0,5.728l-3.28,0l-0,1.376l7.664,0l-0,-1.376l-2.816,0l-0,-7.104Zm-1.712,-1.2l1.696,0l-0,-1.68l-1.696,0l-0,1.68Z" style="fill-rule:nonzero;"/><path d="M392.944,261.16l0,8.48l1.552,0l0,-5.056c0,-1.504 0.816,-2.288 2.048,-2.288c1.168,0 1.664,0.784 1.664,2.288l0,5.056l1.552,0l0,-5.456c0,-1.824 -0.928,-3.216 -2.816,-3.216c-1.136,0 -2.08,0.528 -2.528,1.616l-0.048,-1.424l-1.424,0Z" style="fill-rule:nonzero;"/><path d="M404.416,258.92l-0,2.24l-2.416,0l-0,1.376l2.416,0l-0,4.656c-0,1.504 0.752,2.448 2.544,2.448l2.304,0l0,-1.376l-2.208,0c-0.704,0 -1.088,-0.432 -1.088,-1.136l0,-4.592l3.328,0l0,-1.376l-3.328,0l0,-2.24l-1.552,0Z" style="fill-rule:nonzero;"/><path d="M417.872,257.32l-1.44,0c-3.904,4.32 -3.904,9.44 -0,13.76l1.44,0c-3.52,-4.32 -3.52,-9.44 -0,-13.76Z" style="fill-rule:nonzero;"/><path d="M425.664,258.28l0.064,4.112l1.088,0l0.384,-2.816l-0,-1.296l-1.536,0Zm-2.784,1.296l0.384,2.816l1.088,0l0.064,-4.112l-1.536,0l-0,1.296Z" style="fill-rule:nonzero;"/><path d="M430.528,258.28l3.328,6.736l-0,4.624l1.6,0l-0,-4.624l3.312,-6.736l-1.808,0l-2.304,4.912l-2.32,-4.912l-1.808,0Z" style="fill-rule:nonzero;"/><path d="M444.24,269.832c2.352,0 3.936,-1.744 3.936,-4.432c-0,-2.688 -1.584,-4.432 -3.936,-4.432c-2.352,0 -3.936,1.744 -3.936,4.432c-0,2.688 1.584,4.432 3.936,4.432Zm-2.304,-4.432c-0,-1.872 0.848,-2.992 2.304,-2.992c1.456,0 2.304,1.12 2.304,2.992c-0,1.872 -0.848,2.992 -2.304,2.992c-1.456,0 -2.304,-1.12 -2.304,-2.992Z" style="fill-rule:nonzero;"/><path d="M457.152,269.64l-0,-8.48l-1.552,0l-0,5.056c-0,1.504 -0.8,2.288 -2,2.288c-1.12,0 -1.616,-0.784 -1.616,-2.288l-0,-5.056l-1.552,0l-0,5.456c-0,1.824 0.912,3.216 2.768,3.216c1.088,0 2.016,-0.512 2.464,-1.568l0.016,1.376l1.472,0Z" style="fill-rule:nonzero;"/><path d="M469.392,263.688l1.648,0.112c0.192,-0.816 0.896,-1.392 1.856,-1.392c1.136,0 1.872,0.64 1.888,1.936l-2.288,0.448c-1.952,0.368 -3.248,0.864 -3.248,2.624c-0,1.52 1.376,2.416 3.088,2.416c1.328,0 2.32,-0.704 2.64,-1.488c0.16,0.752 0.768,1.296 1.792,1.296l0.448,0l-0,-1.376l-0.368,0c-0.352,0 -0.512,-0.16 -0.512,-0.528l-0,-3.216c-0,-2.352 -1.36,-3.552 -3.424,-3.552c-1.792,0 -3.2,1.072 -3.52,2.72Zm1.488,3.696c-0,-1.072 0.928,-1.168 2.112,-1.376l1.824,-0.32l-0,0.368c-0,1.52 -1.008,2.416 -2.288,2.416c-1.12,0 -1.632,-0.496 -1.648,-1.088Z" style="fill-rule:nonzero;"/><path d="M482.512,261.16l-3.312,0l-0,1.376l2.176,0l-0,5.728l-2.176,0l-0,1.376l6.448,0l-0,-1.376l-2.704,0l-0,-3.632c-0,-1.408 0.56,-2.096 1.824,-2.096l1.68,0l-0,-1.376l-1.728,0c-1.12,0 -1.808,0.496 -2.096,1.568l-0.112,-1.568Z" style="fill-rule:nonzero;"/><path d="M488.432,265.4c-0,2.704 1.552,4.432 3.936,4.432c1.696,0 3.152,-1.024 3.632,-2.64l-1.648,-0.144c-0.368,0.848 -1.136,1.344 -1.984,1.344c-1.344,0 -2.16,-0.944 -2.288,-2.544l6.048,0l-0,-0.592c-0.128,-3.056 -1.856,-4.288 -3.76,-4.288c-2.384,0 -3.936,1.728 -3.936,4.432Zm1.696,-0.8c0.224,-1.376 1.008,-2.192 2.24,-2.192c0.96,0 1.84,0.576 2.064,2.192l-4.304,0Z" style="fill-rule:nonzero;"/><path d="M507.008,269.64l1.648,0l0.864,-2.976l3.84,0l0.864,2.976l1.648,0l-3.44,-11.36l-1.984,0l-3.44,11.36Zm2.912,-4.384l1.52,-5.216l1.52,5.216l-3.04,0Z" style="fill-rule:nonzero;"/><path d="M517.536,268.264l-0,1.376l7.648,0l-0,-1.376l-2.896,0l-0,-7.648c-0,-1.52 -0.88,-2.336 -2.464,-2.336l-2.016,0l-0,1.376l2.016,0c0.624,0 0.912,0.304 0.912,0.96l-0,7.648l-3.2,0Z" style="fill-rule:nonzero;"/><path d="M531.984,261.16l-4.56,0l-0,1.376l2.992,0l-0,5.728l-3.28,0l-0,1.376l7.664,0l-0,-1.376l-2.816,0l-0,-7.104Zm-1.712,-1.2l1.696,0l-0,-1.68l-1.696,0l-0,1.68Z" style="fill-rule:nonzero;"/><path d="M542.432,264.12l1.632,-0.096c-0.208,-1.872 -1.824,-3.056 -3.616,-3.056c-2.384,0 -3.936,1.728 -3.936,4.432c-0,2.704 1.552,4.432 3.936,4.432c1.856,0 3.44,-1.232 3.696,-3.184l-1.648,-0.096c-0.176,1.152 -1.04,1.84 -2.048,1.84c-1.456,0 -2.304,-1.12 -2.304,-2.992c-0,-1.872 0.848,-2.992 2.304,-2.992c0.96,0 1.824,0.656 1.984,1.712Z" style="fill-rule:nonzero;"/><path d="M546.032,265.4c-0,2.704 1.552,4.432 3.936,4.432c1.696,0 3.152,-1.024 3.632,-2.64l-1.648,-0.144c-0.368,0.848 -1.136,1.344 -1.984,1.344c-1.344,0 -2.16,-0.944 -2.288,-2.544l6.048,0l-0,-0.592c-0.128,-3.056 -1.856,-4.288 -3.76,-4.288c-2.384,0 -3.936,1.728 -3.936,4.432Zm1.696,-0.8c0.224,-1.376 1.008,-2.192 2.24,-2.192c0.96,0 1.84,0.576 2.064,2.192l-4.304,0Z" style="fill-rule:nonzero;"/><path d="M560.064,258.28l0.064,4.112l1.088,0l0.384,-2.816l-0,-1.296l-1.536,0Zm-2.784,1.296l0.384,2.816l1.088,0l0.064,-4.112l-1.536,0l-0,1.296Z" style="fill-rule:nonzero;"/><path d="M568.048,257.32l-1.44,0c3.52,4.32 3.52,9.44 -0,13.76l1.44,0c3.904,-4.32 3.904,-9.44 -0,-13.76Z" style="fill-rule:nonzero;"/><path d="M76.144,85.2l0,8.48l1.552,-0l0,-5.056c0,-1.504 0.816,-2.288 2.048,-2.288c1.168,-0 1.664,0.784 1.664,2.288l0,5.056l1.552,-0l0,-5.456c0,-1.824 -0.928,-3.216 -2.816,-3.216c-1.136,-0 -2.08,0.528 -2.528,1.616l-0.048,-1.424l-1.424,-0Z" style="fill-rule:nonzero;"/><path d="M85.392,87.728l1.648,0.112c0.192,-0.816 0.896,-1.392 1.856,-1.392c1.136,-0 1.872,0.64 1.888,1.936l-2.288,0.448c-1.952,0.368 -3.248,0.864 -3.248,2.624c0,1.52 1.376,2.416 3.088,2.416c1.328,-0 2.32,-0.704 2.64,-1.488c0.16,0.752 0.768,1.296 1.792,1.296l0.448,-0l0,-1.376l-0.368,-0c-0.352,-0 -0.512,-0.16 -0.512,-0.528l0,-3.216c0,-2.352 -1.36,-3.552 -3.424,-3.552c-1.792,-0 -3.2,1.072 -3.52,2.72Zm1.488,3.696c0,-1.072 0.928,-1.168 2.112,-1.376l1.824,-0.32l0,0.368c0,1.52 -1.008,2.416 -2.288,2.416c-1.12,-0 -1.632,-0.496 -1.648,-1.088Z" style="fill-rule:nonzero;"/><path d="M94.512,85.2l0,8.48l1.552,-0l0,-5.168c0,-1.424 0.352,-2.192 0.944,-2.192c0.656,-0 0.896,0.608 0.896,2.192l0,5.168l1.552,-0l0,-5.168c0,-1.424 0.368,-2.192 1.04,-2.192c0.592,-0 0.8,0.608 0.8,2.192l0,5.168l1.552,-0l0,-5.168c0,-2.4 -0.592,-3.504 -1.888,-3.504c-0.848,-0 -1.52,0.592 -1.808,1.536c-0.272,-1.056 -0.72,-1.536 -1.472,-1.536c-0.832,-0 -1.408,0.48 -1.728,1.344l-0.048,-1.152l-1.392,-0Z" style="fill-rule:nonzero;"/><path d="M104.432,89.44c0,2.704 1.552,4.432 3.936,4.432c1.696,-0 3.152,-1.024 3.632,-2.64l-1.648,-0.144c-0.368,0.848 -1.136,1.344 -1.984,1.344c-1.344,-0 -2.16,-0.944 -2.288,-2.544l6.048,-0l0,-0.592c-0.128,-3.056 -1.856,-4.288 -3.76,-4.288c-2.384,-0 -3.936,1.728 -3.936,4.432Zm1.696,-0.8c0.224,-1.376 1.008,-2.192 2.24,-2.192c0.96,-0 1.84,0.576 2.064,2.192l-4.304,-0Z" style="fill-rule:nonzero;"/><path d="M123.904,86.32l0,1.44l7.072,-0l0,-1.44l-7.072,-0Zm0,5.04l7.072,-0l0,-1.44l-7.072,-0l0,1.44Z" style="fill-rule:nonzero;"/><path d="M147.984,85.2l-4.56,-0l0,1.376l2.992,-0l0,5.728l-3.28,-0l0,1.376l7.664,-0l0,-1.376l-2.816,-0l0,-7.104Zm-1.712,-1.2l1.696,-0l0,-1.68l-1.696,-0l0,1.68Z" style="fill-rule:nonzero;"/><path d="M152.944,85.2l0,8.48l1.552,-0l0,-5.056c0,-1.504 0.816,-2.288 2.048,-2.288c1.168,-0 1.664,0.784 1.664,2.288l0,5.056l1.552,-0l0,-5.456c0,-1.824 -0.928,-3.216 -2.816,-3.216c-1.136,-0 -2.08,0.528 -2.528,1.616l-0.048,-1.424l-1.424,-0Z" style="fill-rule:nonzero;"/><path d="M162.272,96.08l1.552,-0l-0,-3.568c0.48,0.896 1.328,1.36 2.48,1.36c2.448,-0 3.584,-2.048 3.584,-4.432c-0,-2.384 -1.136,-4.432 -3.584,-4.432c-1.216,-0 -2.08,0.512 -2.544,1.424l-0.048,-1.232l-1.44,-0l0,10.88Zm1.392,-6.64c0,-1.536 0.688,-2.992 2.288,-2.992c1.616,-0 2.272,1.44 2.272,2.992c-0,1.552 -0.656,2.992 -2.272,2.992c-1.6,-0 -2.288,-1.456 -2.288,-2.992Z" style="fill-rule:nonzero;"/><path d="M178.752,93.68l-0,-8.48l-1.552,-0l-0,5.056c-0,1.504 -0.8,2.288 -2,2.288c-1.12,-0 -1.616,-0.784 -1.616,-2.288l-0,-5.056l-1.552,-0l-0,5.456c-0,1.824 0.912,3.216 2.768,3.216c1.088,-0 2.016,-0.512 2.464,-1.568l0.016,1.376l1.472,-0Z" style="fill-rule:nonzero;"/><path d="M183.616,82.96l-0,2.24l-2.416,-0l-0,1.376l2.416,-0l-0,4.656c-0,1.504 0.752,2.448 2.544,2.448l2.304,-0l-0,-1.376l-2.208,-0c-0.704,-0 -1.088,-0.432 -1.088,-1.136l-0,-4.592l3.328,-0l-0,-1.376l-3.328,-0l-0,-2.24l-1.552,-0Z" style="fill-rule:nonzero;"/><path d="M197.072,81.36l-1.44,-0c-3.904,4.32 -3.904,9.44 -0,13.76l1.44,-0c-3.52,-4.32 -3.52,-9.44 -0,-13.76Z" style="fill-rule:nonzero;"/><path d="M203.248,81.36l-1.44,-0c3.52,4.32 3.52,9.44 -0,13.76l1.44,-0c3.904,-4.32 3.904,-9.44 -0,-13.76Z" style="fill-rule:nonzero;"/><rect x="64" y="199.96" width="160" height="32" style="fill:none;stroke:#000;stroke-width:1.5px;"/><rect x="352" y="247.96" width="232" height="32" style="fill:none;stroke:#000;stroke-width:1.5px;"/><g transform="matrix(1,0,0,1,-22.1297,356.476)"><g transform="matrix(16,0,0,16,64.7697,121.204)"><path d="M0.077,0.15l0.097,0l0,-0.223c0.03,0.056 0.083,0.085 0.155,0.085c0.153,0 0.224,-0.128 0.224,-0.277c0,-0.149 -0.071,-0.277 -0.224,-0.277c-0.076,0 -0.13,0.032 -0.159,0.089l-0.003,-0.077l-0.09,0l0,0.68Zm0.087,-0.415c0,-0.096 0.043,-0.187 0.143,-0.187c0.101,0 0.142,0.09 0.142,0.187c0,0.097 -0.041,0.187 -0.142,0.187c-0.1,0 -0.143,-0.091 -0.143,-0.187Z" style="fill-rule:nonzero;"/></g><g transform="matrix(16,0,0,16,74.3697,121.204)"><path d="M0.292,-0.53l-0.207,0l0,0.086l0.136,0l0,0.358l-0.136,0l0,0.086l0.403,0l0,-0.086l-0.169,0l0,-0.227c0,-0.088 0.035,-0.131 0.114,-0.131l0.105,0l0,-0.086l-0.108,0c-0.07,0 -0.113,0.031 -0.131,0.098l-0.007,-0.098Z" style="fill-rule:nonzero;"/></g><g transform="matrix(16,0,0,16,83.9697,121.204)"><path d="M0.384,-0.53l-0.285,0l0,0.086l0.187,0l0,0.358l-0.205,0l0,0.086l0.479,0l0,-0.086l-0.176,0l-0,-0.444Zm-0.107,-0.075l0.106,0l-0,-0.105l-0.106,0l-0,0.105Z" style="fill-rule:nonzero;"/></g><g transform="matrix(16,0,0,16,93.5697,121.204)"><path d="M0.094,-0.53l0,0.53l0.097,-0l0,-0.316c0,-0.094 0.051,-0.143 0.128,-0.143c0.073,0 0.104,0.049 0.104,0.143l-0,0.316l0.097,-0l0,-0.341c0,-0.114 -0.058,-0.201 -0.176,-0.201c-0.071,0 -0.13,0.033 -0.158,0.101l-0.003,-0.089l-0.089,0Z" style="fill-rule:nonzero;"/></g><g transform="matrix(16,0,0,16,103.17,121.204)"><path d="M0.211,-0.67l0,0.14l-0.151,0l0,0.086l0.151,0l0,0.291c0,0.094 0.047,0.153 0.159,0.153l0.144,0l0,-0.086l-0.138,0c-0.044,0 -0.068,-0.027 -0.068,-0.071l0,-0.287l0.208,0l0,-0.086l-0.208,0l0,-0.14l-0.097,0Z" style="fill-rule:nonzero;"/></g><g transform="matrix(16,0,0,16,112.77,121.204)"><path d="M0.452,-0.77l-0.09,0c-0.244,0.27 -0.244,0.59 0,0.86l0.09,0c-0.22,-0.27 -0.22,-0.59 0,-0.86Z" style="fill-rule:nonzero;"/></g><g transform="matrix(16,0,0,16,122.37,121.204)"><path d="M0.339,-0.71l0.004,0.257l0.068,-0l0.024,-0.176l-0,-0.081l-0.096,0Zm-0.174,0.081l0.024,0.176l0.068,0l0.004,-0.257l-0.096,0l-0,0.081Z" style="fill-rule:nonzero;"/></g><g transform="matrix(16,0,0,16,131.97,121.204)"><path d="M0.043,-0.71l0.208,0.421l0,0.289l0.1,-0l0,-0.289l0.207,-0.421l-0.113,0l-0.144,0.307l-0.145,-0.307l-0.113,0Z" style="fill-rule:nonzero;"/></g><g transform="matrix(16,0,0,16,141.57,121.204)"><path d="M0.3,0.012c0.147,0 0.246,-0.109 0.246,-0.277c0,-0.168 -0.099,-0.277 -0.246,-0.277c-0.147,0 -0.246,0.109 -0.246,0.277c-0,0.168 0.099,0.277 0.246,0.277Zm-0.144,-0.277c-0,-0.117 0.053,-0.187 0.144,-0.187c0.091,0 0.144,0.07 0.144,0.187c-0,0.117 -0.053,0.187 -0.144,0.187c-0.091,0 -0.144,-0.07 -0.144,-0.187Z" style="fill-rule:nonzero;"/></g><g transform="matrix(16,0,0,16,151.17,121.204)"><path d="M0.507,-0l0,-0.53l-0.097,0l0,0.316c0,0.094 -0.05,0.143 -0.125,0.143c-0.07,0 -0.101,-0.049 -0.101,-0.143l-0,-0.316l-0.097,0l-0,0.341c-0,0.114 0.057,0.201 0.173,0.201c0.068,-0 0.126,-0.032 0.154,-0.098l0.001,0.086l0.092,-0Z" style="fill-rule:nonzero;"/></g><g transform="matrix(16,0,0,16,170.37,121.204)"><path d="M0.072,-0.372l0.103,0.007c0.012,-0.051 0.056,-0.087 0.116,-0.087c0.071,0 0.117,0.04 0.118,0.121l-0.143,0.028c-0.122,0.023 -0.203,0.054 -0.203,0.164c0,0.095 0.086,0.151 0.193,0.151c0.083,-0 0.145,-0.044 0.165,-0.093c0.01,0.047 0.048,0.081 0.112,0.081l0.028,-0l0,-0.086l-0.023,-0c-0.022,-0 -0.032,-0.01 -0.032,-0.033l0,-0.201c0,-0.147 -0.085,-0.222 -0.214,-0.222c-0.112,0 -0.2,0.067 -0.22,0.17Zm0.093,0.231c-0,-0.067 0.058,-0.073 0.132,-0.086l0.114,-0.02l0,0.023c0,0.095 -0.063,0.151 -0.143,0.151c-0.07,-0 -0.102,-0.031 -0.103,-0.068Z" style="fill-rule:nonzero;"/></g><g transform="matrix(16,0,0,16,179.97,121.204)"><path d="M0.292,-0.53l-0.207,0l0,0.086l0.136,0l0,0.358l-0.136,0l0,0.086l0.403,0l0,-0.086l-0.169,0l0,-0.227c0,-0.088 0.035,-0.131 0.114,-0.131l0.105,0l0,-0.086l-0.108,0c-0.07,0 -0.113,0.031 -0.131,0.098l-0.007,-0.098Z" style="fill-rule:nonzero;"/></g><g transform="matrix(16,0,0,16,189.57,121.204)"><path d="M0.062,-0.265c0,0.169 0.097,0.277 0.246,0.277c0.106,-0 0.197,-0.064 0.227,-0.165l-0.103,-0.009c-0.023,0.053 -0.071,0.084 -0.124,0.084c-0.084,0 -0.135,-0.059 -0.143,-0.159l0.378,-0l0,-0.037c-0.008,-0.191 -0.116,-0.268 -0.235,-0.268c-0.149,0 -0.246,0.108 -0.246,0.277Zm0.106,-0.05c0.014,-0.086 0.063,-0.137 0.14,-0.137c0.06,0 0.115,0.036 0.129,0.137l-0.269,0Z" style="fill-rule:nonzero;"/></g><g transform="matrix(16,0,0,16,208.77,121.204)"><path d="M0.094,-0.53l0,0.53l0.097,-0l0,-0.316c0,-0.094 0.051,-0.143 0.128,-0.143c0.073,0 0.104,0.049 0.104,0.143l-0,0.316l0.097,-0l0,-0.341c0,-0.114 -0.058,-0.201 -0.176,-0.201c-0.071,0 -0.13,0.033 -0.158,0.101l-0.003,-0.089l-0.089,0Z" style="fill-rule:nonzero;"/></g><g transform="matrix(16,0,0,16,218.37,121.204)"><path d="M0.062,-0.265c0,0.169 0.097,0.277 0.246,0.277c0.106,-0 0.197,-0.064 0.227,-0.165l-0.103,-0.009c-0.023,0.053 -0.071,0.084 -0.124,0.084c-0.084,0 -0.135,-0.059 -0.143,-0.159l0.378,-0l0,-0.037c-0.008,-0.191 -0.116,-0.268 -0.235,-0.268c-0.149,0 -0.246,0.108 -0.246,0.277Zm0.106,-0.05c0.014,-0.086 0.063,-0.137 0.14,-0.137c0.06,0 0.115,0.036 0.129,0.137l-0.269,0Z" style="fill-rule:nonzero;"/></g><g transform="matrix(16,0,0,16,227.97,121.204)"><path d="M0.384,-0.53l-0.285,0l0,0.086l0.187,0l0,0.358l-0.205,0l0,0.086l0.479,0l0,-0.086l-0.176,0l-0,-0.444Zm-0.107,-0.075l0.106,0l-0,-0.105l-0.106,0l-0,0.105Z" style="fill-rule:nonzero;"/></g><g transform="matrix(16,0,0,16,237.57,121.204)"><path d="M0.211,-0.67l0,0.14l-0.151,0l0,0.086l0.151,0l0,0.291c0,0.094 0.047,0.153 0.159,0.153l0.144,0l0,-0.086l-0.138,0c-0.044,0 -0.068,-0.027 -0.068,-0.071l0,-0.287l0.208,0l0,-0.086l-0.208,0l0,-0.14l-0.097,0Z" style="fill-rule:nonzero;"/></g><g transform="matrix(16,0,0,16,247.17,121.204)"><path d="M0.099,-0.71l0,0.71l0.097,-0l0,-0.311c0,-0.094 0.05,-0.143 0.127,-0.143c0.073,0 0.104,0.049 0.104,0.143l-0,0.311l0.097,-0l0,-0.341c0,-0.114 -0.057,-0.201 -0.176,-0.201c-0.063,0 -0.121,0.026 -0.152,0.081l-0,-0.249l-0.097,0Z" style="fill-rule:nonzero;"/></g><g transform="matrix(16,0,0,16,256.77,121.204)"><path d="M0.062,-0.265c0,0.169 0.097,0.277 0.246,0.277c0.106,-0 0.197,-0.064 0.227,-0.165l-0.103,-0.009c-0.023,0.053 -0.071,0.084 -0.124,0.084c-0.084,0 -0.135,-0.059 -0.143,-0.159l0.378,-0l0,-0.037c-0.008,-0.191 -0.116,-0.268 -0.235,-0.268c-0.149,0 -0.246,0.108 -0.246,0.277Zm0.106,-0.05c0.014,-0.086 0.063,-0.137 0.14,-0.137c0.06,0 0.115,0.036 0.129,0.137l-0.269,0Z" style="fill-rule:nonzero;"/></g><g transform="matrix(16,0,0,16,266.37,121.204)"><path d="M0.292,-0.53l-0.207,0l0,0.086l0.136,0l0,0.358l-0.136,0l0,0.086l0.403,0l0,-0.086l-0.169,0l0,-0.227c0,-0.088 0.035,-0.131 0.114,-0.131l0.105,0l0,-0.086l-0.108,0c-0.07,0 -0.113,0.031 -0.131,0.098l-0.007,-0.098Z" style="fill-rule:nonzero;"/></g><g transform="matrix(16,0,0,16,285.57,121.204)"><path d="M0.023,-0l0.103,-0l0.054,-0.186l0.24,0l0.054,0.186l0.103,-0l-0.215,-0.71l-0.124,0l-0.215,0.71Zm0.182,-0.274l0.095,-0.326l0.095,0.326l-0.19,0Z" style="fill-rule:nonzero;"/></g><g transform="matrix(16,0,0,16,295.17,121.204)"><path d="M0.081,-0.086l0,0.086l0.478,-0l0,-0.086l-0.181,0l-0,-0.478c-0,-0.095 -0.055,-0.146 -0.154,-0.146l-0.126,0l-0,0.086l0.126,0c0.039,0 0.057,0.019 0.057,0.06l-0,0.478l-0.2,0Z" style="fill-rule:nonzero;"/></g><g transform="matrix(16,0,0,16,304.77,121.204)"><path d="M0.384,-0.53l-0.285,0l0,0.086l0.187,0l0,0.358l-0.205,0l0,0.086l0.479,0l0,-0.086l-0.176,0l-0,-0.444Zm-0.107,-0.075l0.106,0l-0,-0.105l-0.106,0l-0,0.105Z" style="fill-rule:nonzero;"/></g><g transform="matrix(16,0,0,16,314.37,121.204)"><path d="M0.437,-0.345l0.102,-0.006c-0.013,-0.117 -0.114,-0.191 -0.226,-0.191c-0.149,0 -0.246,0.108 -0.246,0.277c-0,0.169 0.097,0.277 0.246,0.277c0.116,-0 0.215,-0.077 0.231,-0.199l-0.103,-0.006c-0.011,0.072 -0.065,0.115 -0.128,0.115c-0.091,0 -0.144,-0.07 -0.144,-0.187c-0,-0.117 0.053,-0.187 0.144,-0.187c0.06,0 0.114,0.041 0.124,0.107Z" style="fill-rule:nonzero;"/></g><g transform="matrix(16,0,0,16,323.97,121.204)"><path d="M0.062,-0.265c0,0.169 0.097,0.277 0.246,0.277c0.106,-0 0.197,-0.064 0.227,-0.165l-0.103,-0.009c-0.023,0.053 -0.071,0.084 -0.124,0.084c-0.084,0 -0.135,-0.059 -0.143,-0.159l0.378,-0l0,-0.037c-0.008,-0.191 -0.116,-0.268 -0.235,-0.268c-0.149,0 -0.246,0.108 -0.246,0.277Zm0.106,-0.05c0.014,-0.086 0.063,-0.137 0.14,-0.137c0.06,0 0.115,0.036 0.129,0.137l-0.269,0Z" style="fill-rule:nonzero;"/></g><g transform="matrix(16,0,0,16,131.97,141.204)"><path d="M0.094,-0.53l0,0.53l0.097,-0l0,-0.316c0,-0.094 0.051,-0.143 0.128,-0.143c0.073,0 0.104,0.049 0.104,0.143l-0,0.316l0.097,-0l0,-0.341c0,-0.114 -0.058,-0.201 -0.176,-0.201c-0.071,0 -0.13,0.033 -0.158,0.101l-0.003,-0.089l-0.089,0Z" style="fill-rule:nonzero;"/></g><g transform="matrix(16,0,0,16,141.57,141.204)"><path d="M0.3,0.012c0.147,0 0.246,-0.109 0.246,-0.277c0,-0.168 -0.099,-0.277 -0.246,-0.277c-0.147,0 -0.246,0.109 -0.246,0.277c-0,0.168 0.099,0.277 0.246,0.277Zm-0.144,-0.277c-0,-0.117 0.053,-0.187 0.144,-0.187c0.091,0 0.144,0.07 0.144,0.187c-0,0.117 -0.053,0.187 -0.144,0.187c-0.091,0 -0.144,-0.07 -0.144,-0.187Z" style="fill-rule:nonzero;"/></g><g transform="matrix(16,0,0,16,151.17,141.204)"><path d="M0.292,-0.53l-0.207,0l0,0.086l0.136,0l0,0.358l-0.136,0l0,0.086l0.403,0l0,-0.086l-0.169,0l0,-0.227c0,-0.088 0.035,-0.131 0.114,-0.131l0.105,0l0,-0.086l-0.108,0c-0.07,0 -0.113,0.031 -0.131,0.098l-0.007,-0.098Z" style="fill-rule:nonzero;"/></g><g transform="matrix(16,0,0,16,170.37,141.204)"><path d="M0.523,-0.71l-0.097,0l-0,0.25c-0.031,-0.053 -0.083,-0.082 -0.159,-0.082c-0.149,-0 -0.22,0.128 -0.22,0.277c-0,0.149 0.071,0.277 0.22,0.277c0.08,-0 0.134,-0.032 0.163,-0.087l0.003,0.075l0.09,-0l0,-0.71Zm-0.374,0.445c-0,-0.1 0.041,-0.19 0.143,-0.19c0.1,-0 0.142,0.091 0.142,0.19c-0,0.096 -0.042,0.187 -0.142,0.187c-0.102,-0 -0.143,-0.09 -0.143,-0.187Z" style="fill-rule:nonzero;"/></g><g transform="matrix(16,0,0,16,179.97,141.204)"><path d="M0.292,-0.53l-0.207,0l0,0.086l0.136,0l0,0.358l-0.136,0l0,0.086l0.403,0l0,-0.086l-0.169,0l0,-0.227c0,-0.088 0.035,-0.131 0.114,-0.131l0.105,0l0,-0.086l-0.108,0c-0.07,0 -0.113,0.031 -0.131,0.098l-0.007,-0.098Z" style="fill-rule:nonzero;"/></g><g transform="matrix(16,0,0,16,189.57,141.204)"><path d="M0.384,-0.53l-0.285,0l0,0.086l0.187,0l0,0.358l-0.205,0l0,0.086l0.479,0l0,-0.086l-0.176,0l-0,-0.444Zm-0.107,-0.075l0.106,0l-0,-0.105l-0.106,0l-0,0.105Z" style="fill-rule:nonzero;"/></g><g transform="matrix(16,0,0,16,199.17,141.204)"><path d="M0.094,-0.53l0,0.53l0.097,-0l0,-0.316c0,-0.094 0.051,-0.143 0.128,-0.143c0.073,0 0.104,0.049 0.104,0.143l-0,0.316l0.097,-0l0,-0.341c0,-0.114 -0.058,-0.201 -0.176,-0.201c-0.071,0 -0.13,0.033 -0.158,0.101l-0.003,-0.089l-0.089,0Z" style="fill-rule:nonzero;"/></g><g transform="matrix(16,0,0,16,208.77,141.204)"><path d="M0.084,-0.71l0,0.71l0.097,-0l0,-0.124l0.095,-0.112l0.162,0.236l0.12,-0l-0.218,-0.305l0.207,-0.225l-0.131,-0l-0.235,0.265l-0,-0.445l-0.097,0Z" style="fill-rule:nonzero;"/></g><g transform="matrix(16,0,0,16,218.37,141.204)"><path d="M0.384,-0.53l-0.285,0l0,0.086l0.187,0l0,0.358l-0.205,0l0,0.086l0.479,0l0,-0.086l-0.176,0l-0,-0.444Zm-0.107,-0.075l0.106,0l-0,-0.105l-0.106,0l-0,0.105Z" style="fill-rule:nonzero;"/></g><g transform="matrix(16,0,0,16,227.97,141.204)"><path d="M0.094,-0.53l0,0.53l0.097,-0l0,-0.316c0,-0.094 0.051,-0.143 0.128,-0.143c0.073,0 0.104,0.049 0.104,0.143l-0,0.316l0.097,-0l0,-0.341c0,-0.114 -0.058,-0.201 -0.176,-0.201c-0.071,0 -0.13,0.033 -0.158,0.101l-0.003,-0.089l-0.089,0Z" style="fill-rule:nonzero;"/></g><g transform="matrix(16,0,0,16,237.57,141.204)"><path d="M0.283,-0.028c0.063,0 0.127,-0.037 0.154,-0.088l-0,0.079c-0.001,0.073 -0.052,0.112 -0.138,0.112c-0.061,-0 -0.102,-0.027 -0.123,-0.073l-0.102,0.007c0.025,0.092 0.109,0.153 0.225,0.153c0.142,0 0.234,-0.075 0.235,-0.22l0,-0.472l-0.093,0l-0.001,0.081c-0.024,-0.055 -0.086,-0.093 -0.157,-0.093c-0.131,0 -0.224,0.106 -0.224,0.26c-0,0.149 0.093,0.254 0.224,0.254Zm-0.122,-0.255c-0,-0.099 0.053,-0.169 0.14,-0.169c0.087,0 0.14,0.07 0.138,0.169c-0.001,0.1 -0.053,0.17 -0.138,0.17c-0.087,0 -0.14,-0.07 -0.14,-0.17Z" style="fill-rule:nonzero;"/></g><g transform="matrix(16,0,0,16,256.77,141.204)"><path d="M0.072,-0.372l0.103,0.007c0.012,-0.051 0.056,-0.087 0.116,-0.087c0.071,0 0.117,0.04 0.118,0.121l-0.143,0.028c-0.122,0.023 -0.203,0.054 -0.203,0.164c0,0.095 0.086,0.151 0.193,0.151c0.083,-0 0.145,-0.044 0.165,-0.093c0.01,0.047 0.048,0.081 0.112,0.081l0.028,-0l0,-0.086l-0.023,-0c-0.022,-0 -0.032,-0.01 -0.032,-0.033l0,-0.201c0,-0.147 -0.085,-0.222 -0.214,-0.222c-0.112,0 -0.2,0.067 -0.22,0.17Zm0.093,0.231c-0,-0.067 0.058,-0.073 0.132,-0.086l0.114,-0.02l0,0.023c0,0.095 -0.063,0.151 -0.143,0.151c-0.07,-0 -0.102,-0.031 -0.103,-0.068Z" style="fill-rule:nonzero;"/></g><g transform="matrix(16,0,0,16,266.37,141.204)"><path d="M0.283,-0.028c0.063,0 0.127,-0.037 0.154,-0.088l-0,0.079c-0.001,0.073 -0.052,0.112 -0.138,0.112c-0.061,-0 -0.102,-0.027 -0.123,-0.073l-0.102,0.007c0.025,0.092 0.109,0.153 0.225,0.153c0.142,0 0.234,-0.075 0.235,-0.22l0,-0.472l-0.093,0l-0.001,0.081c-0.024,-0.055 -0.086,-0.093 -0.157,-0.093c-0.131,0 -0.224,0.106 -0.224,0.26c-0,0.149 0.093,0.254 0.224,0.254Zm-0.122,-0.255c-0,-0.099 0.053,-0.169 0.14,-0.169c0.087,0 0.14,0.07 0.138,0.169c-0.001,0.1 -0.053,0.17 -0.138,0.17c-0.087,0 -0.14,-0.07 -0.14,-0.17Z" style="fill-rule:nonzero;"/></g><g transform="matrix(16,0,0,16,275.97,141.204)"><path d="M0.062,-0.265c0,0.169 0.097,0.277 0.246,0.277c0.106,-0 0.197,-0.064 0.227,-0.165l-0.103,-0.009c-0.023,0.053 -0.071,0.084 -0.124,0.084c-0.084,0 -0.135,-0.059 -0.143,-0.159l0.378,-0l0,-0.037c-0.008,-0.191 -0.116,-0.268 -0.235,-0.268c-0.149,0 -0.246,0.108 -0.246,0.277Zm0.106,-0.05c0.014,-0.086 0.063,-0.137 0.14,-0.137c0.06,0 0.115,0.036 0.129,0.137l-0.269,0Z" style="fill-rule:nonzero;"/></g><g transform="matrix(16,0,0,16,285.57,141.204)"><path d="M0.339,-0.71l0.004,0.257l0.068,-0l0.024,-0.176l-0,-0.081l-0.096,0Zm-0.174,0.081l0.024,0.176l0.068,0l0.004,-0.257l-0.096,0l-0,0.081Z" style="fill-rule:nonzero;"/></g><g transform="matrix(16,0,0,16,295.17,141.204)"><path d="M0.238,-0.77l-0.09,0c0.22,0.27 0.22,0.59 -0,0.86l0.09,0c0.244,-0.27 0.244,-0.59 0,-0.86Z" style="fill-rule:nonzero;"/></g></g><rect x="32" y="456" width="288" height="52" style="fill:none;stroke:#000;stroke-width:1.5px;"/><g transform="matrix(1,0,0,1,297.87,244.436)"><g transform="matrix(16,0,0,16,64.7697,121.204)"><path d="M0.077,0.15l0.097,0l0,-0.223c0.03,0.056 0.083,0.085 0.155,0.085c0.153,0 0.224,-0.128 0.224,-0.277c0,-0.149 -0.071,-0.277 -0.224,-0.277c-0.076,0 -0.13,0.032 -0.159,0.089l-0.003,-0.077l-0.09,0l0,0.68Zm0.087,-0.415c0,-0.096 0.043,-0.187 0.143,-0.187c0.101,0 0.142,0.09 0.142,0.187c0,0.097 -0.041,0.187 -0.142,0.187c-0.1,0 -0.143,-0.091 -0.143,-0.187Z" style="fill-rule:nonzero;"/></g><g transform="matrix(16,0,0,16,74.3697,121.204)"><path d="M0.292,-0.53l-0.207,0l0,0.086l0.136,0l0,0.358l-0.136,0l0,0.086l0.403,0l0,-0.086l-0.169,0l0,-0.227c0,-0.088 0.035,-0.131 0.114,-0.131l0.105,0l0,-0.086l-0.108,0c-0.07,0 -0.113,0.031 -0.131,0.098l-0.007,-0.098Z" style="fill-rule:nonzero;"/></g><g transform="matrix(16,0,0,16,83.9697,121.204)"><path d="M0.384,-0.53l-0.285,0l0,0.086l0.187,0l0,0.358l-0.205,0l0,0.086l0.479,0l0,-0.086l-0.176,0l-0,-0.444Zm-0.107,-0.075l0.106,0l-0,-0.105l-0.106,0l-0,0.105Z" style="fill-rule:nonzero;"/></g><g transform="matrix(16,0,0,16,93.5697,121.204)"><path d="M0.094,-0.53l0,0.53l0.097,-0l0,-0.316c0,-0.094 0.051,-0.143 0.128,-0.143c0.073,0 0.104,0.049 0.104,0.143l-0,0.316l0.097,-0l0,-0.341c0,-0.114 -0.058,-0.201 -0.176,-0.201c-0.071,0 -0.13,0.033 -0.158,0.101l-0.003,-0.089l-0.089,0Z" style="fill-rule:nonzero;"/></g><g transform="matrix(16,0,0,16,103.17,121.204)"><path d="M0.211,-0.67l0,0.14l-0.151,0l0,0.086l0.151,0l0,0.291c0,0.094 0.047,0.153 0.159,0.153l0.144,0l0,-0.086l-0.138,0c-0.044,0 -0.068,-0.027 -0.068,-0.071l0,-0.287l0.208,0l0,-0.086l-0.208,0l0,-0.14l-0.097,0Z" style="fill-rule:nonzero;"/></g><g transform="matrix(16,0,0,16,112.77,121.204)"><path d="M0.452,-0.77l-0.09,0c-0.244,0.27 -0.244,0.59 0,0.86l0.09,0c-0.22,-0.27 -0.22,-0.59 0,-0.86Z" style="fill-rule:nonzero;"/></g><g transform="matrix(16,0,0,16,122.37,121.204)"><path d="M0.339,-0.71l0.004,0.257l0.068,-0l0.024,-0.176l-0,-0.081l-0.096,0Zm-0.174,0.081l0.024,0.176l0.068,0l0.004,-0.257l-0.096,0l-0,0.081Z" style="fill-rule:nonzero;"/></g><g transform="matrix(16,0,0,16,131.97,121.204)"><path d="M0.043,-0.71l0.208,0.421l0,0.289l0.1,-0l0,-0.289l0.207,-0.421l-0.113,0l-0.144,0.307l-0.145,-0.307l-0.113,0Z" style="fill-rule:nonzero;"/></g><g transform="matrix(16,0,0,16,141.57,121.204)"><path d="M0.3,0.012c0.147,0 0.246,-0.109 0.246,-0.277c0,-0.168 -0.099,-0.277 -0.246,-0.277c-0.147,0 -0.246,0.109 -0.246,0.277c-0,0.168 0.099,0.277 0.246,0.277Zm-0.144,-0.277c-0,-0.117 0.053,-0.187 0.144,-0.187c0.091,0 0.144,0.07 0.144,0.187c-0,0.117 -0.053,0.187 -0.144,0.187c-0.091,0 -0.144,-0.07 -0.144,-0.187Z" style="fill-rule:nonzero;"/></g><g transform="matrix(16,0,0,16,151.17,121.204)"><path d="M0.507,-0l0,-0.53l-0.097,0l0,0.316c0,0.094 -0.05,0.143 -0.125,0.143c-0.07,0 -0.101,-0.049 -0.101,-0.143l-0,-0.316l-0.097,0l-0,0.341c-0,0.114 0.057,0.201 0.173,0.201c0.068,-0 0.126,-0.032 0.154,-0.098l0.001,0.086l0.092,-0Z" style="fill-rule:nonzero;"/></g><g transform="matrix(16,0,0,16,170.37,121.204)"><path d="M0.072,-0.372l0.103,0.007c0.012,-0.051 0.056,-0.087 0.116,-0.087c0.071,0 0.117,0.04 0.118,0.121l-0.143,0.028c-0.122,0.023 -0.203,0.054 -0.203,0.164c0,0.095 0.086,0.151 0.193,0.151c0.083,-0 0.145,-0.044 0.165,-0.093c0.01,0.047 0.048,0.081 0.112,0.081l0.028,-0l0,-0.086l-0.023,-0c-0.022,-0 -0.032,-0.01 -0.032,-0.033l0,-0.201c0,-0.147 -0.085,-0.222 -0.214,-0.222c-0.112,0 -0.2,0.067 -0.22,0.17Zm0.093,0.231c-0,-0.067 0.058,-0.073 0.132,-0.086l0.114,-0.02l0,0.023c0,0.095 -0.063,0.151 -0.143,0.151c-0.07,-0 -0.102,-0.031 -0.103,-0.068Z" style="fill-rule:nonzero;"/></g><g transform="matrix(16,0,0,16,179.97,121.204)"><path d="M0.292,-0.53l-0.207,0l0,0.086l0.136,0l0,0.358l-0.136,0l0,0.086l0.403,0l0,-0.086l-0.169,0l0,-0.227c0,-0.088 0.035,-0.131 0.114,-0.131l0.105,0l0,-0.086l-0.108,0c-0.07,0 -0.113,0.031 -0.131,0.098l-0.007,-0.098Z" style="fill-rule:nonzero;"/></g><g transform="matrix(16,0,0,16,189.57,121.204)"><path d="M0.062,-0.265c0,0.169 0.097,0.277 0.246,0.277c0.106,-0 0.197,-0.064 0.227,-0.165l-0.103,-0.009c-0.023,0.053 -0.071,0.084 -0.124,0.084c-0.084,0 -0.135,-0.059 -0.143,-0.159l0.378,-0l0,-0.037c-0.008,-0.191 -0.116,-0.268 -0.235,-0.268c-0.149,0 -0.246,0.108 -0.246,0.277Zm0.106,-0.05c0.014,-0.086 0.063,-0.137 0.14,-0.137c0.06,0 0.115,0.036 0.129,0.137l-0.269,0Z" style="fill-rule:nonzero;"/></g><g transform="matrix(16,0,0,16,199.17,121.204)"><path d="M0.094,-0.53l0,0.53l0.097,-0l0,-0.316c0,-0.094 0.051,-0.143 0.128,-0.143c0.073,0 0.104,0.049 0.104,0.143l-0,0.316l0.097,-0l0,-0.341c0,-0.114 -0.058,-0.201 -0.176,-0.201c-0.071,0 -0.13,0.033 -0.158,0.101l-0.003,-0.089l-0.089,0Z" style="fill-rule:nonzero;"/></g><g transform="matrix(16,0,0,16,208.77,121.204)"><path d="M0.252,-0.71l0,0.079l0.014,0.178l0.068,0l0.014,-0.178l0,-0.079l-0.096,0Z" style="fill-rule:nonzero;"/></g><g transform="matrix(16,0,0,16,218.37,121.204)"><path d="M0.211,-0.67l0,0.14l-0.151,0l0,0.086l0.151,0l0,0.291c0,0.094 0.047,0.153 0.159,0.153l0.144,0l0,-0.086l-0.138,0c-0.044,0 -0.068,-0.027 -0.068,-0.071l0,-0.287l0.208,0l0,-0.086l-0.208,0l0,-0.14l-0.097,0Z" style="fill-rule:nonzero;"/></g><g transform="matrix(16,0,0,16,237.57,121.204)"><path d="M0.023,-0l0.103,-0l0.054,-0.186l0.24,0l0.054,0.186l0.103,-0l-0.215,-0.71l-0.124,0l-0.215,0.71Zm0.182,-0.274l0.095,-0.326l0.095,0.326l-0.19,0Z" style="fill-rule:nonzero;"/></g><g transform="matrix(16,0,0,16,247.17,121.204)"><path d="M0.081,-0.086l0,0.086l0.478,-0l0,-0.086l-0.181,0l-0,-0.478c-0,-0.095 -0.055,-0.146 -0.154,-0.146l-0.126,0l-0,0.086l0.126,0c0.039,0 0.057,0.019 0.057,0.06l-0,0.478l-0.2,0Z" style="fill-rule:nonzero;"/></g><g transform="matrix(16,0,0,16,256.77,121.204)"><path d="M0.384,-0.53l-0.285,0l0,0.086l0.187,0l0,0.358l-0.205,0l0,0.086l0.479,0l0,-0.086l-0.176,0l-0,-0.444Zm-0.107,-0.075l0.106,0l-0,-0.105l-0.106,0l-0,0.105Z" style="fill-rule:nonzero;"/></g><g transform="matrix(16,0,0,16,266.37,121.204)"><path d="M0.437,-0.345l0.102,-0.006c-0.013,-0.117 -0.114,-0.191 -0.226,-0.191c-0.149,0 -0.246,0.108 -0.246,0.277c-0,0.169 0.097,0.277 0.246,0.277c0.116,-0 0.215,-0.077 0.231,-0.199l-0.103,-0.006c-0.011,0.072 -0.065,0.115 -0.128,0.115c-0.091,0 -0.144,-0.07 -0.144,-0.187c-0,-0.117 0.053,-0.187 0.144,-0.187c0.06,0 0.114,0.041 0.124,0.107Z" style="fill-rule:nonzero;"/></g><g transform="matrix(16,0,0,16,275.97,121.204)"><path d="M0.062,-0.265c0,0.169 0.097,0.277 0.246,0.277c0.106,-0 0.197,-0.064 0.227,-0.165l-0.103,-0.009c-0.023,0.053 -0.071,0.084 -0.124,0.084c-0.084,0 -0.135,-0.059 -0.143,-0.159l0.378,-0l0,-0.037c-0.008,-0.191 -0.116,-0.268 -0.235,-0.268c-0.149,0 -0.246,0.108 -0.246,0.277Zm0.106,-0.05c0.014,-0.086 0.063,-0.137 0.14,-0.137c0.06,0 0.115,0.036 0.129,0.137l-0.269,0Z" style="fill-rule:nonzero;"/></g><g transform="matrix(16,0,0,16,285.57,121.204)"><path d="M0.364,-0l0,-0.124l-0.128,0l0,0.124l0.052,-0l-0.053,0.161l0.055,0l0.074,-0.161Z" style="fill-rule:nonzero;"/></g><g transform="matrix(16,0,0,16,304.77,121.204)"><path d="M0.077,-0.71l0,0.71l0.09,-0l0.003,-0.075c0.029,0.055 0.083,0.087 0.163,0.087c0.149,-0 0.22,-0.128 0.22,-0.277c0,-0.149 -0.071,-0.277 -0.22,-0.277c-0.076,0 -0.128,0.029 -0.159,0.082l0,-0.25l-0.097,0Zm0.089,0.445c0,-0.099 0.042,-0.19 0.142,-0.19c0.102,-0 0.143,0.09 0.143,0.19c0,0.097 -0.041,0.187 -0.143,0.187c-0.1,-0 -0.142,-0.091 -0.142,-0.187Z" style="fill-rule:nonzero;"/></g><g transform="matrix(16,0,0,16,314.37,121.204)"><path d="M0.507,-0l0,-0.53l-0.097,0l0,0.316c0,0.094 -0.05,0.143 -0.125,0.143c-0.07,0 -0.101,-0.049 -0.101,-0.143l-0,-0.316l-0.097,0l-0,0.341c-0,0.114 0.057,0.201 0.173,0.201c0.068,-0 0.126,-0.032 0.154,-0.098l0.001,0.086l0.092,-0Z" style="fill-rule:nonzero;"/></g><g transform="matrix(16,0,0,16,323.97,121.204)"><path d="M0.211,-0.67l0,0.14l-0.151,0l0,0.086l0.151,0l0,0.291c0,0.094 0.047,0.153 0.159,0.153l0.144,0l0,-0.086l-0.138,0c-0.044,0 -0.068,-0.027 -0.068,-0.071l0,-0.287l0.208,0l0,-0.086l-0.208,0l0,-0.14l-0.097,0Z" style="fill-rule:nonzero;"/></g><g transform="matrix(16,0,0,16,131.97,141.204)"><path d="M0.051,-0.53l0.192,0.514l0.03,0l-0.017,0.045c-0.01,0.026 -0.026,0.036 -0.053,0.036l-0.058,0l-0,0.085l0.07,0c0.065,0 0.106,-0.028 0.127,-0.088l0.212,-0.592l-0.103,0l-0.145,0.42l-0.151,-0.42l-0.104,0Z" style="fill-rule:nonzero;"/></g><g transform="matrix(16,0,0,16,141.57,141.204)"><path d="M0.3,0.012c0.147,0 0.246,-0.109 0.246,-0.277c0,-0.168 -0.099,-0.277 -0.246,-0.277c-0.147,0 -0.246,0.109 -0.246,0.277c-0,0.168 0.099,0.277 0.246,0.277Zm-0.144,-0.277c-0,-0.117 0.053,-0.187 0.144,-0.187c0.091,0 0.144,0.07 0.144,0.187c-0,0.117 -0.053,0.187 -0.144,0.187c-0.091,0 -0.144,-0.07 -0.144,-0.187Z" style="fill-rule:nonzero;"/></g><g transform="matrix(16,0,0,16,151.17,141.204)"><path d="M0.507,-0l0,-0.53l-0.097,0l0,0.316c0,0.094 -0.05,0.143 -0.125,0.143c-0.07,0 -0.101,-0.049 -0.101,-0.143l-0,-0.316l-0.097,0l-0,0.341c-0,0.114 0.057,0.201 0.173,0.201c0.068,-0 0.126,-0.032 0.154,-0.098l0.001,0.086l0.092,-0Z" style="fill-rule:nonzero;"/></g><g transform="matrix(16,0,0,16,170.37,141.204)"><path d="M0.072,-0.372l0.103,0.007c0.012,-0.051 0.056,-0.087 0.116,-0.087c0.071,0 0.117,0.04 0.118,0.121l-0.143,0.028c-0.122,0.023 -0.203,0.054 -0.203,0.164c0,0.095 0.086,0.151 0.193,0.151c0.083,-0 0.145,-0.044 0.165,-0.093c0.01,0.047 0.048,0.081 0.112,0.081l0.028,-0l0,-0.086l-0.023,-0c-0.022,-0 -0.032,-0.01 -0.032,-0.033l0,-0.201c0,-0.147 -0.085,-0.222 -0.214,-0.222c-0.112,0 -0.2,0.067 -0.22,0.17Zm0.093,0.231c-0,-0.067 0.058,-0.073 0.132,-0.086l0.114,-0.02l0,0.023c0,0.095 -0.063,0.151 -0.143,0.151c-0.07,-0 -0.102,-0.031 -0.103,-0.068Z" style="fill-rule:nonzero;"/></g><g transform="matrix(16,0,0,16,179.97,141.204)"><path d="M0.292,-0.53l-0.207,0l0,0.086l0.136,0l0,0.358l-0.136,0l0,0.086l0.403,0l0,-0.086l-0.169,0l0,-0.227c0,-0.088 0.035,-0.131 0.114,-0.131l0.105,0l0,-0.086l-0.108,0c-0.07,0 -0.113,0.031 -0.131,0.098l-0.007,-0.098Z" style="fill-rule:nonzero;"/></g><g transform="matrix(16,0,0,16,189.57,141.204)"><path d="M0.062,-0.265c0,0.169 0.097,0.277 0.246,0.277c0.106,-0 0.197,-0.064 0.227,-0.165l-0.103,-0.009c-0.023,0.053 -0.071,0.084 -0.124,0.084c-0.084,0 -0.135,-0.059 -0.143,-0.159l0.378,-0l0,-0.037c-0.008,-0.191 -0.116,-0.268 -0.235,-0.268c-0.149,0 -0.246,0.108 -0.246,0.277Zm0.106,-0.05c0.014,-0.086 0.063,-0.137 0.14,-0.137c0.06,0 0.115,0.036 0.129,0.137l-0.269,0Z" style="fill-rule:nonzero;"/></g><g transform="matrix(16,0,0,16,208.77,141.204)"><path d="M0.072,-0.372l0.103,0.007c0.012,-0.051 0.056,-0.087 0.116,-0.087c0.071,0 0.117,0.04 0.118,0.121l-0.143,0.028c-0.122,0.023 -0.203,0.054 -0.203,0.164c0,0.095 0.086,0.151 0.193,0.151c0.083,-0 0.145,-0.044 0.165,-0.093c0.01,0.047 0.048,0.081 0.112,0.081l0.028,-0l0,-0.086l-0.023,-0c-0.022,-0 -0.032,-0.01 -0.032,-0.033l0,-0.201c0,-0.147 -0.085,-0.222 -0.214,-0.222c-0.112,0 -0.2,0.067 -0.22,0.17Zm0.093,0.231c-0,-0.067 0.058,-0.073 0.132,-0.086l0.114,-0.02l0,0.023c0,0.095 -0.063,0.151 -0.143,0.151c-0.07,-0 -0.102,-0.031 -0.103,-0.068Z" style="fill-rule:nonzero;"/></g><g transform="matrix(16,0,0,16,218.37,141.204)"><path d="M0.081,-0.086l0,0.086l0.478,-0l0,-0.086l-0.181,0l-0,-0.478c-0,-0.095 -0.055,-0.146 -0.154,-0.146l-0.126,0l-0,0.086l0.126,0c0.039,0 0.057,0.019 0.057,0.06l-0,0.478l-0.2,0Z" style="fill-rule:nonzero;"/></g><g transform="matrix(16,0,0,16,227.97,141.204)"><path d="M0.081,-0.086l0,0.086l0.478,-0l0,-0.086l-0.181,0l-0,-0.478c-0,-0.095 -0.055,-0.146 -0.154,-0.146l-0.126,0l-0,0.086l0.126,0c0.039,0 0.057,0.019 0.057,0.06l-0,0.478l-0.2,0Z" style="fill-rule:nonzero;"/></g><g transform="matrix(16,0,0,16,237.57,141.204)"><path d="M0.3,0.012c0.147,0 0.246,-0.109 0.246,-0.277c0,-0.168 -0.099,-0.277 -0.246,-0.277c-0.147,0 -0.246,0.109 -0.246,0.277c-0,0.168 0.099,0.277 0.246,0.277Zm-0.144,-0.277c-0,-0.117 0.053,-0.187 0.144,-0.187c0.091,0 0.144,0.07 0.144,0.187c-0,0.117 -0.053,0.187 -0.144,0.187c-0.091,0 -0.144,-0.07 -0.144,-0.187Z" style="fill-rule:nonzero;"/></g><g transform="matrix(16,0,0,16,247.17,141.204)"><path d="M0.347,-0.46l-0.094,0l-0.07,0.32l-0.066,-0.39l-0.101,0l0.107,0.53l0.109,-0l0.068,-0.31l0.068,0.31l0.109,-0l0.107,-0.53l-0.101,0l-0.066,0.39l-0.07,-0.32Z" style="fill-rule:nonzero;"/></g><g transform="matrix(16,0,0,16,256.77,141.204)"><path d="M0.062,-0.265c0,0.169 0.097,0.277 0.246,0.277c0.106,-0 0.197,-0.064 0.227,-0.165l-0.103,-0.009c-0.023,0.053 -0.071,0.084 -0.124,0.084c-0.084,0 -0.135,-0.059 -0.143,-0.159l0.378,-0l0,-0.037c-0.008,-0.191 -0.116,-0.268 -0.235,-0.268c-0.149,0 -0.246,0.108 -0.246,0.277Zm0.106,-0.05c0.014,-0.086 0.063,-0.137 0.14,-0.137c0.06,0 0.115,0.036 0.129,0.137l-0.269,0Z" style="fill-rule:nonzero;"/></g><g transform="matrix(16,0,0,16,266.37,141.204)"><path d="M0.523,-0.71l-0.097,0l-0,0.25c-0.031,-0.053 -0.083,-0.082 -0.159,-0.082c-0.149,-0 -0.22,0.128 -0.22,0.277c-0,0.149 0.071,0.277 0.22,0.277c0.08,-0 0.134,-0.032 0.163,-0.087l0.003,0.075l0.09,-0l0,-0.71Zm-0.374,0.445c-0,-0.1 0.041,-0.19 0.143,-0.19c0.1,-0 0.142,0.091 0.142,0.19c-0,0.096 -0.042,0.187 -0.142,0.187c-0.102,-0 -0.143,-0.09 -0.143,-0.187Z" style="fill-rule:nonzero;"/></g><g transform="matrix(16,0,0,16,285.57,141.204)"><path d="M0.211,-0.67l0,0.14l-0.151,0l0,0.086l0.151,0l0,0.291c0,0.094 0.047,0.153 0.159,0.153l0.144,0l0,-0.086l-0.138,0c-0.044,0 -0.068,-0.027 -0.068,-0.071l0,-0.287l0.208,0l0,-0.086l-0.208,0l0,-0.14l-0.097,0Z" style="fill-rule:nonzero;"/></g><g transform="matrix(16,0,0,16,295.17,141.204)"><path d="M0.3,0.012c0.147,0 0.246,-0.109 0.246,-0.277c0,-0.168 -0.099,-0.277 -0.246,-0.277c-0.147,0 -0.246,0.109 -0.246,0.277c-0,0.168 0.099,0.277 0.246,0.277Zm-0.144,-0.277c-0,-0.117 0.053,-0.187 0.144,-0.187c0.091,0 0.144,0.07 0.144,0.187c-0,0.117 -0.053,0.187 -0.144,0.187c-0.091,0 -0.144,-0.07 -0.144,-0.187Z" style="fill-rule:nonzero;"/></g><g transform="matrix(16,0,0,16,314.37,141.204)"><path d="M0.523,-0.71l-0.097,0l-0,0.25c-0.031,-0.053 -0.083,-0.082 -0.159,-0.082c-0.149,-0 -0.22,0.128 -0.22,0.277c-0,0.149 0.071,0.277 0.22,0.277c0.08,-0 0.134,-0.032 0.163,-0.087l0.003,0.075l0.09,-0l0,-0.71Zm-0.374,0.445c-0,-0.1 0.041,-0.19 0.143,-0.19c0.1,-0 0.142,0.091 0.142,0.19c-0,0.096 -0.042,0.187 -0.142,0.187c-0.102,-0 -0.143,-0.09 -0.143,-0.187Z" style="fill-rule:nonzero;"/></g><g transform="matrix(16,0,0,16,323.97,141.204)"><path d="M0.292,-0.53l-0.207,0l0,0.086l0.136,0l0,0.358l-0.136,0l0,0.086l0.403,0l0,-0.086l-0.169,0l0,-0.227c0,-0.088 0.035,-0.131 0.114,-0.131l0.105,0l0,-0.086l-0.108,0c-0.07,0 -0.113,0.031 -0.131,0.098l-0.007,-0.098Z" style="fill-rule:nonzero;"/></g><g transform="matrix(16,0,0,16,333.57,141.204)"><path d="M0.384,-0.53l-0.285,0l0,0.086l0.187,0l0,0.358l-0.205,0l0,0.086l0.479,0l0,-0.086l-0.176,0l-0,-0.444Zm-0.107,-0.075l0.106,0l-0,-0.105l-0.106,0l-0,0.105Z" style="fill-rule:nonzero;"/></g><g transform="matrix(16,0,0,16,343.17,141.204)"><path d="M0.094,-0.53l0,0.53l0.097,-0l0,-0.316c0,-0.094 0.051,-0.143 0.128,-0.143c0.073,0 0.104,0.049 0.104,0.143l-0,0.316l0.097,-0l0,-0.341c0,-0.114 -0.058,-0.201 -0.176,-0.201c-0.071,0 -0.13,0.033 -0.158,0.101l-0.003,-0.089l-0.089,0Z" style="fill-rule:nonzero;"/></g><g transform="matrix(16,0,0,16,352.77,141.204)"><path d="M0.084,-0.71l0,0.71l0.097,-0l0,-0.124l0.095,-0.112l0.162,0.236l0.12,-0l-0.218,-0.305l0.207,-0.225l-0.131,-0l-0.235,0.265l-0,-0.445l-0.097,0Z" style="fill-rule:nonzero;"/></g><g transform="matrix(16,0,0,16,362.37,141.204)"><path d="M0.339,-0.71l0.004,0.257l0.068,-0l0.024,-0.176l-0,-0.081l-0.096,0Zm-0.174,0.081l0.024,0.176l0.068,0l0.004,-0.257l-0.096,0l-0,0.081Z" style="fill-rule:nonzero;"/></g><g transform="matrix(16,0,0,16,371.97,141.204)"><path d="M0.238,-0.77l-0.09,0c0.22,0.27 0.22,0.59 -0,0.86l0.09,0c0.244,-0.27 0.244,-0.59 0,-0.86Z" style="fill-rule:nonzero;"/></g></g><rect x="352" y="343.96" width="332" height="52" style="fill:none;stroke:#000;stroke-width:1.5px;"/><rect x="64" y="72" width="160" height="32" style="fill:none;stroke:#000;stroke-width:1.5px;"/><path d="M44.544,213.16l-4.56,0l0,1.376l2.992,0l0,5.728l-3.28,0l0,1.376l7.664,0l0,-1.376l-2.816,0l0,-7.104Zm-1.712,-1.2l1.696,0l0,-1.68l-1.696,0l0,1.68Z" style="fill:#fff;fill-rule:nonzero;"/><path d="M51.312,212.792l0,0.912l-2.224,0l0,1.376l2.224,0l0,6.56l1.552,0l0,-6.56l3.184,0l0,-1.376l-3.184,0l0,-0.944c0,-0.688 0.384,-1.104 0.928,-1.104l2.368,0l0,-1.376l-2.336,0c-1.728,0 -2.512,0.944 -2.512,2.512Z" style="fill:#fff;fill-rule:nonzero;"/><rect x="32" y="295.96" width="56" height="32" style="stroke:#000;stroke-width:1.5px;"/><path d="M101.768,311.688l1.648,0.112c0.192,-0.816 0.896,-1.392 1.856,-1.392c1.136,-0 1.872,0.64 1.888,1.936l-2.288,0.448c-1.952,0.368 -3.248,0.864 -3.248,2.624c0,1.52 1.376,2.416 3.088,2.416c1.328,-0 2.32,-0.704 2.64,-1.488c0.16,0.752 0.768,1.296 1.792,1.296l0.448,-0l0,-1.376l-0.368,-0c-0.352,-0 -0.512,-0.16 -0.512,-0.528l0,-3.216c0,-2.352 -1.36,-3.552 -3.424,-3.552c-1.792,-0 -3.2,1.072 -3.52,2.72Zm1.488,3.696c0,-1.072 0.928,-1.168 2.112,-1.376l1.824,-0.32l0,0.368c0,1.52 -1.008,2.416 -2.288,2.416c-1.12,-0 -1.632,-0.496 -1.648,-1.088Z" style="fill-rule:nonzero;"/><path d="M114.744,317.192c1.008,-0 2.032,-0.592 2.464,-1.408l0,1.264c-0.016,1.168 -0.832,1.792 -2.208,1.792c-0.976,-0 -1.632,-0.432 -1.968,-1.168l-1.632,0.112c0.4,1.472 1.744,2.448 3.6,2.448c2.272,-0 3.744,-1.2 3.76,-3.52l0,-7.552l-1.488,-0l-0.016,1.296c-0.384,-0.88 -1.376,-1.488 -2.512,-1.488c-2.096,-0 -3.584,1.696 -3.584,4.16c0,2.384 1.488,4.064 3.584,4.064Zm-1.952,-4.08c0,-1.584 0.848,-2.704 2.24,-2.704c1.392,-0 2.24,1.12 2.208,2.704c-0.016,1.6 -0.848,2.72 -2.208,2.72c-1.392,-0 -2.24,-1.12 -2.24,-2.72Z" style="fill-rule:nonzero;"/><path d="M120.808,313.4c0,2.704 1.552,4.432 3.936,4.432c1.696,-0 3.152,-1.024 3.632,-2.64l-1.648,-0.144c-0.368,0.848 -1.136,1.344 -1.984,1.344c-1.344,-0 -2.16,-0.944 -2.288,-2.544l6.048,-0l-0,-0.592c-0.128,-3.056 -1.856,-4.288 -3.76,-4.288c-2.384,-0 -3.936,1.728 -3.936,4.432Zm1.696,-0.8c0.224,-1.376 1.008,-2.192 2.24,-2.192c0.96,-0 1.84,0.576 2.064,2.192l-4.304,-0Z" style="fill-rule:nonzero;"/><path d="M140.168,308.52l0,1.568l5.952,2.608l-5.952,2.608l0,1.584l7.312,-3.216l0,-1.952l-7.312,-3.2Z" style="fill-rule:nonzero;"/><path d="M149.88,310.28l-0,1.44l7.072,-0l-0,-1.44l-7.072,-0Zm-0,5.04l7.072,-0l-0,-1.44l-7.072,-0l-0,1.44Z" style="fill-rule:nonzero;"/><path d="M168.808,309.72l1.664,0.112c0.256,-1.44 1.12,-2.288 2.416,-2.288c1.2,-0 2.032,0.736 2.032,1.76c-0,0.88 -0.88,1.664 -2.032,2.4c-2.064,1.296 -4.288,2.528 -4.288,5.936l8.08,-0l-0,-1.52l-6.096,-0c0.096,-1.104 2.24,-2.544 3.088,-3.024c1.648,-0.992 2.928,-2.128 2.928,-3.776c-0,-1.888 -1.568,-3.296 -3.712,-3.296c-2.304,-0 -3.824,1.568 -4.08,3.696Z" style="fill-rule:nonzero;"/><path d="M178.344,316.12l-0,1.52l8.032,-0l-0,-1.52l-3.056,-0l-0,-9.84l-1.296,-0c-0,1.296 -0.56,1.856 -1.856,1.856l-1.296,-0l-0,1.328l2.848,-0l-0,6.656l-3.376,-0Z" style="fill-rule:nonzero;"/><rect x="64" y="295.96" width="136" height="32" style="fill:none;stroke:#000;stroke-width:1.5px;"/><path d="M42.016,313.4c0,2.704 1.552,4.432 3.936,4.432c1.696,-0 3.152,-1.024 3.632,-2.64l-1.648,-0.144c-0.368,0.848 -1.136,1.344 -1.984,1.344c-1.344,-0 -2.16,-0.944 -2.288,-2.544l6.048,-0l0,-0.592c-0.128,-3.056 -1.856,-4.288 -3.76,-4.288c-2.384,-0 -3.936,1.728 -3.936,4.432Zm1.696,-0.8c0.224,-1.376 1.008,-2.192 2.24,-2.192c0.96,-0 1.84,0.576 2.064,2.192l-4.304,-0Z" style="fill:#fff;fill-rule:nonzero;"/><path d="M51.92,316.264l0,1.376l7.648,-0l0,-1.376l-2.896,-0l0,-7.648c0,-1.52 -0.88,-2.336 -2.464,-2.336l-2.016,0l0,1.376l2.016,0c0.624,0 0.912,0.304 0.912,0.96l0,7.648l-3.2,0Z" style="fill:#fff;fill-rule:nonzero;"/><path d="M66.368,309.16l-4.56,-0l0,1.376l2.992,-0l0,5.728l-3.28,-0l0,1.376l7.664,-0l0,-1.376l-2.816,-0l0,-7.104Zm-1.712,-1.2l1.696,-0l0,-1.68l-1.696,-0l0,1.68Z" style="fill:#fff;fill-rule:nonzero;"/><path d="M73.136,308.792l0,0.912l-2.224,-0l0,1.376l2.224,-0l0,6.56l1.552,-0l0,-6.56l3.184,-0l0,-1.376l-3.184,-0l0,-0.944c0,-0.688 0.384,-1.104 0.928,-1.104l2.368,-0l0,-1.376l-2.336,-0c-1.728,-0 -2.512,0.944 -2.512,2.512Z" style="fill:#fff;fill-rule:nonzero;"/><path d="M148.5,130.439l-4.5,4.5l-4.5,-4.5" style="fill:none;stroke:#000;stroke-width:1.5px;stroke-linejoin:miter;stroke-miterlimit:10;"/><path d="M144,104l0,30.939" style="fill:none;stroke:#000;stroke-width:1.5px;"/><path d="M75.792,151.728l1.648,0.112c0.192,-0.816 0.896,-1.392 1.856,-1.392c1.136,-0 1.872,0.64 1.888,1.936l-2.288,0.448c-1.952,0.368 -3.248,0.864 -3.248,2.624c0,1.52 1.376,2.416 3.088,2.416c1.328,-0 2.32,-0.704 2.64,-1.488c0.16,0.752 0.768,1.296 1.792,1.296l0.448,-0l0,-1.376l-0.368,-0c-0.352,-0 -0.512,-0.16 -0.512,-0.528l0,-3.216c0,-2.352 -1.36,-3.552 -3.424,-3.552c-1.792,-0 -3.2,1.072 -3.52,2.72Zm1.488,3.696c0,-1.072 0.928,-1.168 2.112,-1.376l1.824,-0.32l0,0.368c0,1.52 -1.008,2.416 -2.288,2.416c-1.12,-0 -1.632,-0.496 -1.648,-1.088Z" style="fill-rule:nonzero;"/><path d="M88.768,157.232c1.008,-0 2.032,-0.592 2.464,-1.408l0,1.264c-0.016,1.168 -0.832,1.792 -2.208,1.792c-0.976,-0 -1.632,-0.432 -1.968,-1.168l-1.632,0.112c0.4,1.472 1.744,2.448 3.6,2.448c2.272,-0 3.744,-1.2 3.76,-3.52l0,-7.552l-1.488,-0l-0.016,1.296c-0.384,-0.88 -1.376,-1.488 -2.512,-1.488c-2.096,-0 -3.584,1.696 -3.584,4.16c0,2.384 1.488,4.064 3.584,4.064Zm-1.952,-4.08c0,-1.584 0.848,-2.704 2.24,-2.704c1.392,-0 2.24,1.12 2.208,2.704c-0.016,1.6 -0.848,2.72 -2.208,2.72c-1.392,-0 -2.24,-1.12 -2.24,-2.72Z" style="fill-rule:nonzero;"/><path d="M94.832,153.44c0,2.704 1.552,4.432 3.936,4.432c1.696,-0 3.152,-1.024 3.632,-2.64l-1.648,-0.144c-0.368,0.848 -1.136,1.344 -1.984,1.344c-1.344,-0 -2.16,-0.944 -2.288,-2.544l6.048,-0l0,-0.592c-0.128,-3.056 -1.856,-4.288 -3.76,-4.288c-2.384,-0 -3.936,1.728 -3.936,4.432Zm1.696,-0.8c0.224,-1.376 1.008,-2.192 2.24,-2.192c0.96,-0 1.84,0.576 2.064,2.192l-4.304,-0Z" style="fill-rule:nonzero;"/><path d="M114.304,150.32l0,1.44l7.072,-0l0,-1.44l-7.072,-0Zm0,5.04l7.072,-0l0,-1.44l-7.072,-0l0,1.44Z" style="fill-rule:nonzero;"/><path d="M138.384,149.2l-4.56,-0l0,1.376l2.992,-0l0,5.728l-3.28,-0l0,1.376l7.664,-0l0,-1.376l-2.816,-0l0,-7.104Zm-1.712,-1.2l1.696,-0l0,-1.68l-1.696,-0l0,1.68Z" style="fill-rule:nonzero;"/><path d="M143.344,149.2l0,8.48l1.552,-0l0,-5.056c0,-1.504 0.816,-2.288 2.048,-2.288c1.168,-0 1.664,0.784 1.664,2.288l0,5.056l1.552,-0l0,-5.456c0,-1.824 -0.928,-3.216 -2.816,-3.216c-1.136,-0 -2.08,0.528 -2.528,1.616l-0.048,-1.424l-1.424,-0Z" style="fill-rule:nonzero;"/><path d="M154.816,146.96l0,2.24l-2.416,-0l0,1.376l2.416,-0l0,4.656c0,1.504 0.752,2.448 2.544,2.448l2.304,-0l0,-1.376l-2.208,-0c-0.704,-0 -1.088,-0.432 -1.088,-1.136l0,-4.592l3.328,-0l0,-1.376l-3.328,-0l0,-2.24l-1.552,-0Z" style="fill-rule:nonzero;"/><path d="M168.272,145.36l-1.44,-0c-3.904,4.32 -3.904,9.44 -0,13.76l1.44,-0c-3.52,-4.32 -3.52,-9.44 -0,-13.76Z" style="fill-rule:nonzero;"/><path d="M176.784,149.2l-4.56,-0l-0,1.376l2.992,-0l-0,5.728l-3.28,-0l-0,1.376l7.664,-0l-0,-1.376l-2.816,-0l-0,-7.104Zm-1.712,-1.2l1.696,-0l-0,-1.68l-1.696,-0l-0,1.68Z" style="fill-rule:nonzero;"/><path d="M181.744,149.2l-0,8.48l1.552,-0l-0,-5.056c-0,-1.504 0.816,-2.288 2.048,-2.288c1.168,-0 1.664,0.784 1.664,2.288l-0,5.056l1.552,-0l-0,-5.456c-0,-1.824 -0.928,-3.216 -2.816,-3.216c-1.136,-0 -2.08,0.528 -2.528,1.616l-0.048,-1.424l-1.424,-0Z" style="fill-rule:nonzero;"/><path d="M191.072,160.08l1.552,-0l-0,-3.568c0.48,0.896 1.328,1.36 2.48,1.36c2.448,-0 3.584,-2.048 3.584,-4.432c-0,-2.384 -1.136,-4.432 -3.584,-4.432c-1.216,-0 -2.08,0.512 -2.544,1.424l-0.048,-1.232l-1.44,-0l-0,10.88Zm1.392,-6.64c-0,-1.536 0.688,-2.992 2.288,-2.992c1.616,-0 2.272,1.44 2.272,2.992c-0,1.552 -0.656,2.992 -2.272,2.992c-1.6,-0 -2.288,-1.456 -2.288,-2.992Z" style="fill-rule:nonzero;"/><path d="M207.552,157.68l-0,-8.48l-1.552,-0l-0,5.056c-0,1.504 -0.8,2.288 -2,2.288c-1.12,-0 -1.616,-0.784 -1.616,-2.288l-0,-5.056l-1.552,-0l-0,5.456c-0,1.824 0.912,3.216 2.768,3.216c1.088,-0 2.016,-0.512 2.464,-1.568l0.016,1.376l1.472,-0Z" style="fill-rule:nonzero;"/><path d="M212.416,146.96l-0,2.24l-2.416,-0l-0,1.376l2.416,-0l-0,4.656c-0,1.504 0.752,2.448 2.544,2.448l2.304,-0l-0,-1.376l-2.208,-0c-0.704,-0 -1.088,-0.432 -1.088,-1.136l-0,-4.592l3.328,-0l-0,-1.376l-3.328,-0l-0,-2.24l-1.552,-0Z" style="fill-rule:nonzero;"/><path d="M225.872,145.36l-1.44,-0c-3.904,4.32 -3.904,9.44 -0,13.76l1.44,-0c-3.52,-4.32 -3.52,-9.44 -0,-13.76Z" style="fill-rule:nonzero;"/><path d="M232.048,145.36l-1.44,-0c3.52,4.32 3.52,9.44 -0,13.76l1.44,-0c3.904,-4.32 3.904,-9.44 -0,-13.76Z" style="fill-rule:nonzero;"/><path d="M241.648,145.36l-1.44,-0c3.52,4.32 3.52,9.44 -0,13.76l1.44,-0c3.904,-4.32 3.904,-9.44 -0,-13.76Z" style="fill-rule:nonzero;"/><rect x="64" y="136" width="192" height="32" style="fill:none;stroke:#000;stroke-width:1.5px;"/><path d="M148.5,194.439l-4.5,4.5l-4.5,-4.5" style="fill:none;stroke:#000;stroke-width:1.5px;stroke-linejoin:miter;stroke-miterlimit:10;"/><path d="M144,168l0,30.939" style="fill:none;stroke:#000;stroke-width:1.5px;"/><path d="M148.5,66.439l-4.5,4.5l-4.5,-4.5" style="fill:none;stroke:#000;stroke-width:1.5px;stroke-linejoin:miter;stroke-miterlimit:10;"/><path d="M144,40l0,30.939" style="fill:none;stroke:#000;stroke-width:1.5px;"/><path d="M472.5,242.399l-4.5,4.5l-4.5,-4.5" style="fill:none;stroke:#000;stroke-width:1.5px;stroke-linejoin:miter;stroke-miterlimit:10;"/><path d="M224,216.056l228,0c8.837,0 16,7.163 16,16l-0,14.843" style="fill:none;stroke:#000;stroke-width:1.5px;"/><path d="M472.5,338.399l-4.5,4.5l-4.5,-4.5" style="fill:none;stroke:#000;stroke-width:1.5px;stroke-linejoin:miter;stroke-miterlimit:10;"/><path d="M200,311.96c0,0 194.27,0.07 252.006,0.09c8.834,0.003 15.994,7.166 15.994,16c-0,6.218 0,12.427 0,14.849" style="fill:none;stroke:#000;stroke-width:1.5px;"/><path d="M148.5,290.399l-4.5,4.5l-4.5,-4.5" style="fill:none;stroke:#000;stroke-width:1.5px;stroke-linejoin:miter;stroke-miterlimit:10;"/><path d="M144,231.96l-0,62.939" style="fill:none;stroke:#000;stroke-width:1.5px;"/><path d="M148.54,386.399l-4.5,4.5l-4.5,-4.5" style="fill:none;stroke:#000;stroke-width:1.5px;stroke-linejoin:miter;stroke-miterlimit:10;"/><path d="M144.04,327.96l-0,62.939" style="fill:none;stroke:#000;stroke-width:1.5px;"/><path d="M269.896,196.6l-8.32,0l-0,1.52l3.36,0l-0,9.84l1.6,0l-0,-9.84l3.36,0l-0,-1.52Z" style="fill-rule:nonzero;"/><path d="M275.208,199.48l-3.312,0l-0,1.376l2.176,0l-0,5.728l-2.176,0l-0,1.376l6.448,0l-0,-1.376l-2.704,0l-0,-3.632c-0,-1.408 0.56,-2.096 1.824,-2.096l1.68,0l-0,-1.376l-1.728,0c-1.12,0 -1.808,0.496 -2.096,1.568l-0.112,-1.568Z" style="fill-rule:nonzero;"/><path d="M288.248,207.96l-0,-8.48l-1.552,0l-0,5.056c-0,1.504 -0.8,2.288 -2,2.288c-1.12,0 -1.616,-0.784 -1.616,-2.288l-0,-5.056l-1.552,0l-0,5.456c-0,1.824 0.912,3.216 2.768,3.216c1.088,0 2.016,-0.512 2.464,-1.568l0.016,1.376l1.472,0Z" style="fill-rule:nonzero;"/><path d="M290.728,203.72c-0,2.704 1.552,4.432 3.936,4.432c1.696,0 3.152,-1.024 3.632,-2.64l-1.648,-0.144c-0.368,0.848 -1.136,1.344 -1.984,1.344c-1.344,0 -2.16,-0.944 -2.288,-2.544l6.048,0l-0,-0.592c-0.128,-3.056 -1.856,-4.288 -3.76,-4.288c-2.384,0 -3.936,1.728 -3.936,4.432Zm1.696,-0.8c0.224,-1.376 1.008,-2.192 2.24,-2.192c0.96,0 1.84,0.576 2.064,2.192l-4.304,0Z" style="fill-rule:nonzero;"/><path d="M269.896,292.6l-8.32,0l-0,1.52l3.36,0l-0,9.84l1.6,0l-0,-9.84l3.36,0l-0,-1.52Z" style="fill-rule:nonzero;"/><path d="M275.208,295.48l-3.312,0l-0,1.376l2.176,0l-0,5.728l-2.176,0l-0,1.376l6.448,0l-0,-1.376l-2.704,0l-0,-3.632c-0,-1.408 0.56,-2.096 1.824,-2.096l1.68,0l-0,-1.376l-1.728,0c-1.12,0 -1.808,0.496 -2.096,1.568l-0.112,-1.568Z" style="fill-rule:nonzero;"/><path d="M288.248,303.96l-0,-8.48l-1.552,0l-0,5.056c-0,1.504 -0.8,2.288 -2,2.288c-1.12,0 -1.616,-0.784 -1.616,-2.288l-0,-5.056l-1.552,0l-0,5.456c-0,1.824 0.912,3.216 2.768,3.216c1.088,0 2.016,-0.512 2.464,-1.568l0.016,1.376l1.472,0Z" style="fill-rule:nonzero;"/><path d="M290.728,299.72c-0,2.704 1.552,4.432 3.936,4.432c1.696,0 3.152,-1.024 3.632,-2.64l-1.648,-0.144c-0.368,0.848 -1.136,1.344 -1.984,1.344c-1.344,0 -2.16,-0.944 -2.288,-2.544l6.048,0l-0,-0.592c-0.128,-3.056 -1.856,-4.288 -3.76,-4.288c-2.384,0 -3.936,1.728 -3.936,4.432Zm1.696,-0.8c0.224,-1.376 1.008,-2.192 2.24,-2.192c0.96,0 1.84,0.576 2.064,2.192l-4.304,0Z" style="fill-rule:nonzero;"/><path d="M156,258.184l0,11.36l1.616,0l0,-4.816l5.184,0l0,-1.488l-5.184,0l0,-3.536l5.472,0l0,-1.52l-7.088,0Z" style="fill-rule:nonzero;"/><path d="M165.296,263.592l1.648,0.112c0.192,-0.816 0.896,-1.392 1.856,-1.392c1.136,0 1.872,0.64 1.888,1.936l-2.288,0.448c-1.952,0.368 -3.248,0.864 -3.248,2.624c0,1.52 1.376,2.416 3.088,2.416c1.328,0 2.32,-0.704 2.64,-1.488c0.16,0.752 0.768,1.296 1.792,1.296l0.448,0l0,-1.376l-0.368,0c-0.352,0 -0.512,-0.16 -0.512,-0.528l0,-3.216c0,-2.352 -1.36,-3.552 -3.424,-3.552c-1.792,0 -3.2,1.072 -3.52,2.72Zm1.488,3.696c0,-1.072 0.928,-1.168 2.112,-1.376l1.824,-0.32l0,0.368c0,1.52 -1.008,2.416 -2.288,2.416c-1.12,0 -1.632,-0.496 -1.648,-1.088Z" style="fill-rule:nonzero;"/><path d="M175.04,268.168l-0,1.376l7.648,0l-0,-1.376l-2.896,0l-0,-7.648c-0,-1.52 -0.88,-2.336 -2.464,-2.336l-2.016,0l-0,1.376l2.016,0c0.624,0 0.912,0.304 0.912,0.96l-0,7.648l-3.2,0Z" style="fill-rule:nonzero;"/><path d="M190.032,263.72l1.6,-0.096c-0.272,-1.68 -1.664,-2.752 -3.456,-2.752c-1.792,0 -3.328,0.976 -3.328,2.688c-0,1.536 1.584,2.128 3.184,2.512c0.944,0.224 2.016,0.368 2.016,1.2c-0,0.8 -0.88,1.024 -1.728,1.024c-1.088,0 -1.936,-0.592 -2.096,-1.536l-1.632,0.096c0.128,1.76 1.744,2.88 3.728,2.88c1.76,0 3.36,-0.72 3.36,-2.384c-0,-1.584 -1.616,-2.176 -3.232,-2.576c-0.944,-0.24 -1.968,-0.432 -1.968,-1.28c-0.016,-0.784 0.736,-1.184 1.552,-1.184c0.992,0 1.824,0.512 2,1.408Z" style="fill-rule:nonzero;"/><path d="M193.936,265.304c-0,2.704 1.552,4.432 3.936,4.432c1.696,0 3.152,-1.024 3.632,-2.64l-1.648,-0.144c-0.368,0.848 -1.136,1.344 -1.984,1.344c-1.344,0 -2.16,-0.944 -2.288,-2.544l6.048,0l-0,-0.592c-0.128,-3.056 -1.856,-4.288 -3.76,-4.288c-2.384,0 -3.936,1.728 -3.936,4.432Zm1.696,-0.8c0.224,-1.376 1.008,-2.192 2.24,-2.192c0.96,0 1.84,0.576 2.064,2.192l-4.304,0Z" style="fill-rule:nonzero;"/><path d="M156,354.184l0,11.36l1.616,-0l0,-4.816l5.184,-0l0,-1.488l-5.184,-0l0,-3.536l5.472,-0l0,-1.52l-7.088,-0Z" style="fill-rule:nonzero;"/><path d="M165.296,359.592l1.648,0.112c0.192,-0.816 0.896,-1.392 1.856,-1.392c1.136,0 1.872,0.64 1.888,1.936l-2.288,0.448c-1.952,0.368 -3.248,0.864 -3.248,2.624c0,1.52 1.376,2.416 3.088,2.416c1.328,0 2.32,-0.704 2.64,-1.488c0.16,0.752 0.768,1.296 1.792,1.296l0.448,0l0,-1.376l-0.368,0c-0.352,0 -0.512,-0.16 -0.512,-0.528l0,-3.216c0,-2.352 -1.36,-3.552 -3.424,-3.552c-1.792,0 -3.2,1.072 -3.52,2.72Zm1.488,3.696c0,-1.072 0.928,-1.168 2.112,-1.376l1.824,-0.32l0,0.368c0,1.52 -1.008,2.416 -2.288,2.416c-1.12,-0 -1.632,-0.496 -1.648,-1.088Z" style="fill-rule:nonzero;"/><path d="M175.04,364.168l-0,1.376l7.648,0l-0,-1.376l-2.896,0l-0,-7.648c-0,-1.52 -0.88,-2.336 -2.464,-2.336l-2.016,0l-0,1.376l2.016,0c0.624,0 0.912,0.304 0.912,0.96l-0,7.648l-3.2,0Z" style="fill-rule:nonzero;"/><path d="M190.032,359.72l1.6,-0.096c-0.272,-1.68 -1.664,-2.752 -3.456,-2.752c-1.792,0 -3.328,0.976 -3.328,2.688c-0,1.536 1.584,2.128 3.184,2.512c0.944,0.224 2.016,0.368 2.016,1.2c-0,0.8 -0.88,1.024 -1.728,1.024c-1.088,0 -1.936,-0.592 -2.096,-1.536l-1.632,0.096c0.128,1.76 1.744,2.88 3.728,2.88c1.76,0 3.36,-0.72 3.36,-2.384c-0,-1.584 -1.616,-2.176 -3.232,-2.576c-0.944,-0.24 -1.968,-0.432 -1.968,-1.28c-0.016,-0.784 0.736,-1.184 1.552,-1.184c0.992,0 1.824,0.512 2,1.408Z" style="fill-rule:nonzero;"/><path d="M193.936,361.304c-0,2.704 1.552,4.432 3.936,4.432c1.696,-0 3.152,-1.024 3.632,-2.64l-1.648,-0.144c-0.368,0.848 -1.136,1.344 -1.984,1.344c-1.344,-0 -2.16,-0.944 -2.288,-2.544l6.048,-0l-0,-0.592c-0.128,-3.056 -1.856,-4.288 -3.76,-4.288c-2.384,-0 -3.936,1.728 -3.936,4.432Zm1.696,-0.8c0.224,-1.376 1.008,-2.192 2.24,-2.192c0.96,-0 1.84,0.576 2.064,2.192l-4.304,-0Z" style="fill-rule:nonzero;"/><circle cx="144" cy="32" r="8" style="fill:none;stroke:#000;stroke-width:1.5px;"/><circle cx="144" cy="612" r="8" style="fill:none;stroke:#000;stroke-width:1.5px;"/><path d="M148.5,598.439l-4.5,4.5l-4.5,-4.5" style="fill:none;stroke:#000;stroke-width:1.5px;stroke-linejoin:miter;stroke-miterlimit:10;"/><path d="M144,508l0,94.939" style="fill:none;stroke:#000;stroke-width:1.5px;"/><path d="M584,263.96l148,0c4.243,0 8.313,1.686 11.314,4.686c3,3.001 4.686,7.071 4.686,11.314c0,53.076 -0,222.964 0,276.04c0,4.243 -1.686,8.313 -4.686,11.314c-3.001,3 -7.071,4.686 -11.314,4.686c-85.379,0 -486.621,-0 -572,0c-8.837,0 -16,7.163 -16,16c0,8 0,16 0,16" style="fill:none;stroke:#000;stroke-width:1.5px;"/><path d="M684,369.96l16,0c8.837,0 16,7.163 16,16l-0,138.04c-0,8.837 -7.163,16 -16,16c-82.341,0 -457.659,0 -540,0c-8.837,0 -16,7.163 -16,16c0,8 0,16 0,16" style="fill:none;stroke:#000;stroke-width:1.5px;"/><rect x="112" y="392" width="64" height="32" style="stroke:#000;stroke-width:1.5px;"/><path d="M125.792,409.44c-0,2.704 1.552,4.432 3.936,4.432c1.696,-0 3.152,-1.024 3.632,-2.64l-1.648,-0.144c-0.368,0.848 -1.136,1.344 -1.984,1.344c-1.344,-0 -2.16,-0.944 -2.288,-2.544l6.048,-0l-0,-0.592c-0.128,-3.056 -1.856,-4.288 -3.76,-4.288c-2.384,-0 -3.936,1.728 -3.936,4.432Zm1.696,-0.8c0.224,-1.376 1.008,-2.192 2.24,-2.192c0.96,-0 1.84,0.576 2.064,2.192l-4.304,-0Z" style="fill:#fff;fill-rule:nonzero;"/><path d="M135.696,412.304l-0,1.376l7.648,-0l-0,-1.376l-2.896,-0l-0,-7.648c-0,-1.52 -0.88,-2.336 -2.464,-2.336l-2.016,-0l-0,1.376l2.016,-0c0.624,-0 0.912,0.304 0.912,0.96l-0,7.648l-3.2,-0Z" style="fill:#fff;fill-rule:nonzero;"/><path d="M150.688,407.856l1.6,-0.096c-0.272,-1.68 -1.664,-2.752 -3.456,-2.752c-1.792,-0 -3.328,0.976 -3.328,2.688c-0,1.536 1.584,2.128 3.184,2.512c0.944,0.224 2.016,0.368 2.016,1.2c-0,0.8 -0.88,1.024 -1.728,1.024c-1.088,-0 -1.936,-0.592 -2.096,-1.536l-1.632,0.096c0.128,1.76 1.744,2.88 3.728,2.88c1.76,-0 3.36,-0.72 3.36,-2.384c-0,-1.584 -1.616,-2.176 -3.232,-2.576c-0.944,-0.24 -1.968,-0.432 -1.968,-1.28c-0.016,-0.784 0.736,-1.184 1.552,-1.184c0.992,-0 1.824,0.512 2,1.408Z" style="fill:#fff;fill-rule:nonzero;"/><path d="M154.592,409.44c-0,2.704 1.552,4.432 3.936,4.432c1.696,-0 3.152,-1.024 3.632,-2.64l-1.648,-0.144c-0.368,0.848 -1.136,1.344 -1.984,1.344c-1.344,-0 -2.16,-0.944 -2.288,-2.544l6.048,-0l-0,-0.592c-0.128,-3.056 -1.856,-4.288 -3.76,-4.288c-2.384,-0 -3.936,1.728 -3.936,4.432Zm1.696,-0.8c0.224,-1.376 1.008,-2.192 2.24,-2.192c0.96,-0 1.84,0.576 2.064,2.192l-4.304,-0Z" style="fill:#fff;fill-rule:nonzero;"/><path d="M148.54,450.439l-4.5,4.5l-4.5,-4.5" style="fill:none;stroke:#000;stroke-width:1.5px;stroke-linejoin:miter;stroke-miterlimit:10;"/><path d="M144.04,424l0,30.939" style="fill:none;stroke:#000;stroke-width:1.5px;"/></g></svg>