<?xml version="1.0" encoding="UTF-8" standalone="no"?><!DOCTYPE svg PUBLIC "-//W3C//DTD SVG 1.1//EN" "http://www.w3.org/Graphics/SVG/1.1/DTD/svg11.dtd"><svg width="100%" height="100%" viewBox="0 0 452 384" version="1.1" xmlns="http://www.w3.org/2000/svg" xmlns:xlink="http://www.w3.org/1999/xlink" xml:space="preserve" xmlns:serif="http://www.serif.com/" style="fill-rule:evenodd;clip-rule:evenodd;stroke-linecap:round;stroke-linejoin:round;stroke-miterlimit:1.5;"><rect id="if" x="0" y="0" width="452" height="384" style="fill:#f6f8fa;"/><g id="if1" serif:id="if"><rect x="32" y="136" width="32" height="32" style="stroke:#000;stroke-width:1.5px;"/><path d="M80.784,149.2l-4.56,-0l0,1.376l2.992,-0l0,5.728l-3.28,-0l0,1.376l7.664,-0l0,-1.376l-2.816,-0l0,-7.104Zm-1.712,-1.2l1.696,-0l0,-1.68l-1.696,-0l0,1.68Z" style="fill-rule:nonzero;"/><path d="M102.288,148.56l-7.312,3.2l-0,1.952l7.312,3.216l-0,-1.584l-5.952,-2.608l5.952,-2.608l-0,-1.568Z" style="fill-rule:nonzero;"/><path d="M121.232,146.32l-6.224,-0l-0.896,6.464l1.696,-0c0.288,-0.688 1.152,-1.168 2.016,-1.168c1.36,-0 2.352,0.96 2.352,2.4c-0,1.408 -0.912,2.4 -2.16,2.4c-1.312,-0 -2.24,-0.688 -2.416,-1.808l-1.664,0.096c0.16,1.824 1.872,3.232 3.936,3.232c2.336,-0 3.968,-1.616 3.968,-3.92c-0,-2.272 -1.568,-3.904 -3.632,-3.904c-0.832,-0 -1.744,0.32 -2.256,0.896l0.432,-3.168l4.848,-0l-0,-1.52Z" style="fill-rule:nonzero;"/><path d="M223.872,208.08l1.552,-0l-0,-3.568c0.48,0.896 1.328,1.36 2.48,1.36c2.448,-0 3.584,-2.048 3.584,-4.432c-0,-2.384 -1.136,-4.432 -3.584,-4.432c-1.216,-0 -2.08,0.512 -2.544,1.424l-0.048,-1.232l-1.44,-0l-0,10.88Zm1.392,-6.64c-0,-1.536 0.688,-2.992 2.288,-2.992c1.616,-0 2.272,1.44 2.272,2.992c-0,1.552 -0.656,2.992 -2.272,2.992c-1.6,-0 -2.288,-1.456 -2.288,-2.992Z" style="fill-rule:nonzero;"/><path d="M236.912,197.2l-3.312,-0l-0,1.376l2.176,-0l-0,5.728l-2.176,-0l-0,1.376l6.448,-0l-0,-1.376l-2.704,-0l-0,-3.632c-0,-1.408 0.56,-2.096 1.824,-2.096l1.68,-0l-0,-1.376l-1.728,-0c-1.12,-0 -1.808,0.496 -2.096,1.568l-0.112,-1.568Z" style="fill-rule:nonzero;"/><path d="M247.984,197.2l-4.56,-0l-0,1.376l2.992,-0l-0,5.728l-3.28,-0l-0,1.376l7.664,-0l-0,-1.376l-2.816,-0l-0,-7.104Zm-1.712,-1.2l1.696,-0l-0,-1.68l-1.696,-0l-0,1.68Z" style="fill-rule:nonzero;"/><path d="M252.944,197.2l-0,8.48l1.552,-0l-0,-5.056c-0,-1.504 0.816,-2.288 2.048,-2.288c1.168,-0 1.664,0.784 1.664,2.288l-0,5.056l1.552,-0l-0,-5.456c-0,-1.824 -0.928,-3.216 -2.816,-3.216c-1.136,-0 -2.08,0.528 -2.528,1.616l-0.048,-1.424l-1.424,-0Z" style="fill-rule:nonzero;"/><path d="M264.416,194.96l-0,2.24l-2.416,-0l-0,1.376l2.416,-0l-0,4.656c-0,1.504 0.752,2.448 2.544,2.448l2.304,-0l-0,-1.376l-2.208,-0c-0.704,-0 -1.088,-0.432 -1.088,-1.136l-0,-4.592l3.328,-0l-0,-1.376l-3.328,-0l-0,-2.24l-1.552,-0Z" style="fill-rule:nonzero;"/><path d="M277.872,193.36l-1.44,-0c-3.904,4.32 -3.904,9.44 -0,13.76l1.44,-0c-3.52,-4.32 -3.52,-9.44 -0,-13.76Z" style="fill-rule:nonzero;"/><path d="M285.664,194.32l0.064,4.112l1.088,-0l0.384,-2.816l-0,-1.296l-1.536,-0Zm-2.784,1.296l0.384,2.816l1.088,-0l0.064,-4.112l-1.536,-0l-0,1.296Z" style="fill-rule:nonzero;"/><path d="M290.88,205.68l1.584,-0l-0,-4.944l4.352,-0l-0,4.944l1.584,-0l-0,-11.36l-1.584,-0l-0,4.896l-4.352,-0l-0,-4.896l-1.584,-0l-0,11.36Z" style="fill-rule:nonzero;"/><path d="M300.432,201.44c-0,2.704 1.552,4.432 3.936,4.432c1.696,-0 3.152,-1.024 3.632,-2.64l-1.648,-0.144c-0.368,0.848 -1.136,1.344 -1.984,1.344c-1.344,-0 -2.16,-0.944 -2.288,-2.544l6.048,-0l-0,-0.592c-0.128,-3.056 -1.856,-4.288 -3.76,-4.288c-2.384,0 -3.936,1.728 -3.936,4.432Zm1.696,-0.8c0.224,-1.376 1.008,-2.192 2.24,-2.192c0.96,0 1.84,0.576 2.064,2.192l-4.304,0Z" style="fill-rule:nonzero;"/><path d="M310.336,204.304l-0,1.376l7.648,-0l-0,-1.376l-2.896,-0l-0,-7.648c-0,-1.52 -0.88,-2.336 -2.464,-2.336l-2.016,-0l-0,1.376l2.016,-0c0.624,-0 0.912,0.304 0.912,0.96l-0,7.648l-3.2,-0Z" style="fill-rule:nonzero;"/><path d="M319.936,204.304l-0,1.376l7.648,-0l-0,-1.376l-2.896,-0l-0,-7.648c-0,-1.52 -0.88,-2.336 -2.464,-2.336l-2.016,-0l-0,1.376l2.016,-0c0.624,-0 0.912,0.304 0.912,0.96l-0,7.648l-3.2,-0Z" style="fill-rule:nonzero;"/><path d="M333.04,205.872c2.352,-0 3.936,-1.744 3.936,-4.432c-0,-2.688 -1.584,-4.432 -3.936,-4.432c-2.352,-0 -3.936,1.744 -3.936,4.432c-0,2.688 1.584,4.432 3.936,4.432Zm-2.304,-4.432c-0,-1.872 0.848,-2.992 2.304,-2.992c1.456,-0 2.304,1.12 2.304,2.992c-0,1.872 -0.848,2.992 -2.304,2.992c-1.456,-0 -2.304,-1.12 -2.304,-2.992Z" style="fill-rule:nonzero;"/><path d="M349.072,205.68l2.24,-0l0.928,-7.616l0.928,7.616l2.24,-0l1.168,-11.36l-1.632,-0l-0.912,9.28l-1.088,-8.32l-1.424,-0l-1.072,8.304l-0.912,-9.264l-1.632,-0l1.168,11.36Z" style="fill-rule:nonzero;"/><path d="M361.84,205.872c2.352,-0 3.936,-1.744 3.936,-4.432c-0,-2.688 -1.584,-4.432 -3.936,-4.432c-2.352,-0 -3.936,1.744 -3.936,4.432c-0,2.688 1.584,4.432 3.936,4.432Zm-2.304,-4.432c-0,-1.872 0.848,-2.992 2.304,-2.992c1.456,-0 2.304,1.12 2.304,2.992c-0,1.872 -0.848,2.992 -2.304,2.992c-1.456,-0 -2.304,-1.12 -2.304,-2.992Z" style="fill-rule:nonzero;"/><path d="M371.312,197.2l-3.312,-0l-0,1.376l2.176,-0l-0,5.728l-2.176,-0l-0,1.376l6.448,-0l-0,-1.376l-2.704,-0l-0,-3.632c-0,-1.408 0.56,-2.096 1.824,-2.096l1.68,-0l-0,-1.376l-1.728,-0c-1.12,-0 -1.808,0.496 -2.096,1.568l-0.112,-1.568Z" style="fill-rule:nonzero;"/><path d="M377.536,204.304l-0,1.376l7.648,-0l-0,-1.376l-2.896,-0l-0,-7.648c-0,-1.52 -0.88,-2.336 -2.464,-2.336l-2.016,-0l-0,1.376l2.016,-0c0.624,-0 0.912,0.304 0.912,0.96l-0,7.648l-3.2,-0Z" style="fill-rule:nonzero;"/><path d="M394.208,194.32l-1.552,-0l-0,4c-0.496,-0.848 -1.328,-1.312 -2.544,-1.312c-2.384,-0 -3.52,2.048 -3.52,4.432c-0,2.384 1.136,4.432 3.52,4.432c1.28,0 2.144,-0.512 2.608,-1.392l0.048,1.2l1.44,0l-0,-11.36Zm-5.984,7.12c-0,-1.6 0.656,-3.04 2.288,-3.04c1.6,0 2.272,1.456 2.272,3.04c-0,1.536 -0.672,2.992 -2.272,2.992c-1.632,0 -2.288,-1.44 -2.288,-2.992Z" style="fill-rule:nonzero;"/><path d="M400.864,194.32l0.064,4.112l1.088,-0l0.384,-2.816l-0,-1.296l-1.536,-0Zm-2.784,1.296l0.384,2.816l1.088,-0l0.064,-4.112l-1.536,-0l-0,1.296Z" style="fill-rule:nonzero;"/><path d="M408.848,193.36l-1.44,-0c3.52,4.32 3.52,9.44 -0,13.76l1.44,-0c3.904,-4.32 3.904,-9.44 -0,-13.76Z" style="fill-rule:nonzero;"/><path d="M80.784,85.2l-4.56,-0l-0,1.376l2.992,-0l-0,5.728l-3.28,-0l-0,1.376l7.664,-0l-0,-1.376l-2.816,-0l-0,-7.104Zm-1.712,-1.2l1.696,-0l-0,-1.68l-1.696,-0l-0,1.68Z" style="fill-rule:nonzero;"/><path d="M95.104,86.32l-0,1.44l7.072,-0l-0,-1.44l-7.072,-0Zm-0,5.04l7.072,-0l-0,-1.44l-7.072,-0l-0,1.44Z" style="fill-rule:nonzero;"/><path d="M117.84,93.936c2.512,-0 4.064,-2.304 4.064,-5.92c-0,-3.632 -1.552,-5.952 -4.064,-5.952c-2.512,-0 -4.064,2.32 -4.064,5.952c-0,3.616 1.552,5.92 4.064,5.92Zm-2.384,-5.92c-0,-2.752 0.912,-4.432 2.384,-4.432c0.528,-0 0.992,0.224 1.36,0.624l-3.424,6.256c-0.208,-0.672 -0.32,-1.488 -0.32,-2.448Zm1.008,3.76l3.424,-6.304c0.224,0.688 0.336,1.552 0.336,2.544c-0,2.72 -0.912,4.4 -2.384,4.4c-0.544,-0 -1.008,-0.224 -1.376,-0.64Z" style="fill-rule:nonzero;"/><rect x="64" y="136" width="72" height="32" style="fill:none;stroke:#000;stroke-width:1.5px;"/><rect x="212" y="184" width="208" height="32" style="fill:none;stroke:#000;stroke-width:1.5px;"/><path d="M276.784,261.2l-4.56,-0l-0,1.376l2.992,-0l-0,5.728l-3.28,-0l-0,1.376l7.664,-0l-0,-1.376l-2.816,-0l-0,-7.104Zm-1.712,-1.2l1.696,-0l-0,-1.68l-1.696,-0l-0,1.68Z" style="fill-rule:nonzero;"/><path d="M291.104,262.32l-0,1.44l7.072,-0l-0,-1.44l-7.072,-0Zm-0,5.04l7.072,-0l-0,-1.44l-7.072,-0l-0,1.44Z" style="fill-rule:nonzero;"/><path d="M315.184,261.2l-4.56,-0l-0,1.376l2.992,-0l-0,5.728l-3.28,-0l-0,1.376l7.664,-0l-0,-1.376l-2.816,-0l-0,-7.104Zm-1.712,-1.2l1.696,-0l-0,-1.68l-1.696,-0l-0,1.68Z" style="fill-rule:nonzero;"/><path d="M329.232,264.08l-0,1.44l3.088,-0l-0,3.088l1.44,-0l-0,-3.088l3.088,-0l-0,-1.44l-3.088,-0l-0,-3.088l-1.44,-0l-0,3.088l-3.088,-0Z" style="fill-rule:nonzero;"/><path d="M348.368,268.16l-0,1.52l8.032,-0l-0,-1.52l-3.056,-0l-0,-9.84l-1.296,-0c-0,1.296 -0.56,1.856 -1.856,1.856l-1.296,-0l-0,1.328l2.848,-0l-0,6.656l-3.376,-0Z" style="fill-rule:nonzero;"/><rect x="260" y="248" width="112" height="32" style="fill:none;stroke:#000;stroke-width:1.5px;"/><rect x="64" y="72" width="72" height="32" style="fill:none;stroke:#000;stroke-width:1.5px;"/><path d="M44.544,149.2l-4.56,-0l-0,1.376l2.992,-0l-0,5.728l-3.28,-0l-0,1.376l7.664,-0l-0,-1.376l-2.816,-0l-0,-7.104Zm-1.712,-1.2l1.696,-0l-0,-1.68l-1.696,-0l-0,1.68Z" style="fill:#fff;fill-rule:nonzero;"/><path d="M51.312,148.832l-0,0.912l-2.224,-0l-0,1.376l2.224,-0l-0,6.56l1.552,-0l-0,-6.56l3.184,-0l-0,-1.376l-3.184,-0l-0,-0.944c-0,-0.688 0.384,-1.104 0.928,-1.104l2.368,-0l-0,-1.376l-2.336,-0c-1.728,-0 -2.512,0.944 -2.512,2.512Z" style="fill:#fff;fill-rule:nonzero;"/><path d="M104.5,130.439l-4.5,4.5l-4.5,-4.5" style="fill:none;stroke:#000;stroke-width:1.5px;stroke-linejoin:miter;stroke-miterlimit:10;"/><path d="M100,104l-0,30.939" style="fill:none;stroke:#000;stroke-width:1.5px;"/><path d="M320.5,242.439l-4.5,4.5l-4.5,-4.5" style="fill:none;stroke:#000;stroke-width:1.5px;stroke-linejoin:miter;stroke-miterlimit:10;"/><path d="M316,216l-0,30.939" style="fill:none;stroke:#000;stroke-width:1.5px;"/><path d="M104.5,66.439l-4.5,4.5l-4.5,-4.5" style="fill:none;stroke:#000;stroke-width:1.5px;stroke-linejoin:miter;stroke-miterlimit:10;"/><path d="M100,40l-0,30.939" style="fill:none;stroke:#000;stroke-width:1.5px;"/><path d="M320.5,178.439l-4.5,4.5l-4.5,-4.5" style="fill:none;stroke:#000;stroke-width:1.5px;stroke-linejoin:miter;stroke-miterlimit:10;"/><path d="M136,152.128c0,-0 119.921,-0.021 163.997,-0.029c4.244,-0.001 8.315,1.684 11.316,4.685c3.001,3.001 4.687,7.071 4.687,11.315c-0,6.215 -0,12.42 -0,14.84" style="fill:none;stroke:#000;stroke-width:1.5px;"/><path d="M104.5,338.439l-4.5,4.5l-4.5,-4.5" style="fill:none;stroke:#000;stroke-width:1.5px;stroke-linejoin:miter;stroke-miterlimit:10;"/><path d="M100,168c-0,-0 -0,160.343 -0,174.939" style="fill:none;stroke:#000;stroke-width:1.5px;"/><path d="M188.32,132.64l-8.32,-0l-0,1.52l3.36,-0l-0,9.84l1.6,-0l-0,-9.84l3.36,-0l-0,-1.52Z" style="fill-rule:nonzero;"/><path d="M193.632,135.52l-3.312,-0l-0,1.376l2.176,-0l0,5.728l-2.176,-0l-0,1.376l6.448,-0l-0,-1.376l-2.704,-0l-0,-3.632c-0,-1.408 0.56,-2.096 1.824,-2.096l1.68,-0l-0,-1.376l-1.728,-0c-1.12,-0 -1.808,0.496 -2.096,1.568l-0.112,-1.568Z" style="fill-rule:nonzero;"/><path d="M206.672,144l-0,-8.48l-1.552,-0l-0,5.056c-0,1.504 -0.8,2.288 -2,2.288c-1.12,-0 -1.616,-0.784 -1.616,-2.288l-0,-5.056l-1.552,-0l-0,5.456c-0,1.824 0.912,3.216 2.768,3.216c1.088,-0 2.016,-0.512 2.464,-1.568l0.016,1.376l1.472,-0Z" style="fill-rule:nonzero;"/><path d="M209.152,139.76c-0,2.704 1.552,4.432 3.936,4.432c1.696,-0 3.152,-1.024 3.632,-2.64l-1.648,-0.144c-0.368,0.848 -1.136,1.344 -1.984,1.344c-1.344,-0 -2.16,-0.944 -2.288,-2.544l6.048,-0l-0,-0.592c-0.128,-3.056 -1.856,-4.288 -3.76,-4.288c-2.384,0 -3.936,1.728 -3.936,4.432Zm1.696,-0.8c0.224,-1.376 1.008,-2.192 2.24,-2.192c0.96,0 1.84,0.576 2.064,2.192l-4.304,0Z" style="fill-rule:nonzero;"/><path d="M112,194.224l-0,11.36l1.616,-0l-0,-4.816l5.184,-0l-0,-1.488l-5.184,-0l-0,-3.536l5.472,-0l-0,-1.52l-7.088,-0Z" style="fill-rule:nonzero;"/><path d="M121.296,199.632l1.648,0.112c0.192,-0.816 0.896,-1.392 1.856,-1.392c1.136,-0 1.872,0.64 1.888,1.936l-2.288,0.448c-1.952,0.368 -3.248,0.864 -3.248,2.624c-0,1.52 1.376,2.416 3.088,2.416c1.328,-0 2.32,-0.704 2.64,-1.488c0.16,0.752 0.768,1.296 1.792,1.296l0.448,-0l-0,-1.376l-0.368,-0c-0.352,-0 -0.512,-0.16 -0.512,-0.528l-0,-3.216c-0,-2.352 -1.36,-3.552 -3.424,-3.552c-1.792,-0 -3.2,1.072 -3.52,2.72Zm1.488,3.696c-0,-1.072 0.928,-1.168 2.112,-1.376l1.824,-0.32l-0,0.368c-0,1.52 -1.008,2.416 -2.288,2.416c-1.12,-0 -1.632,-0.496 -1.648,-1.088Z" style="fill-rule:nonzero;"/><path d="M131.04,204.208l-0,1.376l7.648,-0l-0,-1.376l-2.896,-0l-0,-7.648c-0,-1.52 -0.88,-2.336 -2.464,-2.336l-2.016,-0l-0,1.376l2.016,-0c0.624,-0 0.912,0.304 0.912,0.96l-0,7.648l-3.2,-0Z" style="fill-rule:nonzero;"/><path d="M146.032,199.76l1.6,-0.096c-0.272,-1.68 -1.664,-2.752 -3.456,-2.752c-1.792,-0 -3.328,0.976 -3.328,2.688c-0,1.536 1.584,2.128 3.184,2.512c0.944,0.224 2.016,0.368 2.016,1.2c-0,0.8 -0.88,1.024 -1.728,1.024c-1.088,0 -1.936,-0.592 -2.096,-1.536l-1.632,0.096c0.128,1.76 1.744,2.88 3.728,2.88c1.76,0 3.36,-0.72 3.36,-2.384c-0,-1.584 -1.616,-2.176 -3.232,-2.576c-0.944,-0.24 -1.968,-0.432 -1.968,-1.28c-0.016,-0.784 0.736,-1.184 1.552,-1.184c0.992,-0 1.824,0.512 2,1.408Z" style="fill-rule:nonzero;"/><path d="M149.936,201.344c-0,2.704 1.552,4.432 3.936,4.432c1.696,-0 3.152,-1.024 3.632,-2.64l-1.648,-0.144c-0.368,0.848 -1.136,1.344 -1.984,1.344c-1.344,-0 -2.16,-0.944 -2.288,-2.544l6.048,-0l-0,-0.592c-0.128,-3.056 -1.856,-4.288 -3.76,-4.288c-2.384,0 -3.936,1.728 -3.936,4.432Zm1.696,-0.8c0.224,-1.376 1.008,-2.192 2.24,-2.192c0.96,0 1.84,0.576 2.064,2.192l-4.304,0Z" style="fill-rule:nonzero;"/><path d="M316,280l0,16c0,4.243 -1.686,8.313 -4.686,11.314c-3.001,3 -7.071,4.686 -11.314,4.686c-40,-0 -144,-0 -184,-0c-4.243,-0 -8.313,1.686 -11.314,4.686c-3,3.001 -4.686,7.071 -4.686,11.314c0,8.007 0,16.016 0,16.016" style="fill:none;stroke:#000;stroke-width:1.5px;"/><circle cx="100" cy="32" r="8" style="fill:none;stroke:#000;stroke-width:1.5px;"/><circle cx="100" cy="352" r="8" style="fill:none;stroke:#000;stroke-width:1.5px;"/></g></svg>