<?xml version="1.0" encoding="UTF-8" standalone="no"?><!DOCTYPE svg PUBLIC "-//W3C//DTD SVG 1.1//EN" "http://www.w3.org/Graphics/SVG/1.1/DTD/svg11.dtd"><svg width="100%" height="100%" viewBox="0 0 720 640" version="1.1" xmlns="http://www.w3.org/2000/svg" xmlns:xlink="http://www.w3.org/1999/xlink" xml:space="preserve" xmlns:serif="http://www.serif.com/" style="fill-rule:evenodd;clip-rule:evenodd;stroke-linecap:round;stroke-linejoin:round;stroke-miterlimit:1.5;"><rect id="if_if_else" x="0" y="0" width="720" height="640" style="fill:#f6f8fa;"/><g id="if_if_else1" serif:id="if_if_else"><rect x="32" y="199.96" width="32" height="32" style="stroke:#000;stroke-width:1.5px;"/><path d="M76.144,213.16l-0,8.48l1.552,0l-0,-5.056c-0,-1.504 0.816,-2.288 2.048,-2.288c1.168,0 1.664,0.784 1.664,2.288l-0,5.056l1.552,0l-0,-5.456c-0,-1.824 -0.928,-3.216 -2.816,-3.216c-1.136,0 -2.08,0.528 -2.528,1.616l-0.048,-1.424l-1.424,0Z" style="fill-rule:nonzero;"/><path d="M85.392,215.688l1.648,0.112c0.192,-0.816 0.896,-1.392 1.856,-1.392c1.136,0 1.872,0.64 1.888,1.936l-2.288,0.448c-1.952,0.368 -3.248,0.864 -3.248,2.624c-0,1.52 1.376,2.416 3.088,2.416c1.328,0 2.32,-0.704 2.64,-1.488c0.16,0.752 0.768,1.296 1.792,1.296l0.448,0l-0,-1.376l-0.368,0c-0.352,0 -0.512,-0.16 -0.512,-0.528l-0,-3.216c-0,-2.352 -1.36,-3.552 -3.424,-3.552c-1.792,0 -3.2,1.072 -3.52,2.72Zm1.488,3.696c-0,-1.072 0.928,-1.168 2.112,-1.376l1.824,-0.32l-0,0.368c-0,1.52 -1.008,2.416 -2.288,2.416c-1.12,0 -1.632,-0.496 -1.648,-1.088Z" style="fill-rule:nonzero;"/><path d="M94.512,213.16l-0,8.48l1.552,0l-0,-5.168c-0,-1.424 0.352,-2.192 0.944,-2.192c0.656,0 0.896,0.608 0.896,2.192l-0,5.168l1.552,0l-0,-5.168c-0,-1.424 0.368,-2.192 1.04,-2.192c0.592,0 0.8,0.608 0.8,2.192l-0,5.168l1.552,0l-0,-5.168c-0,-2.4 -0.592,-3.504 -1.888,-3.504c-0.848,0 -1.52,0.592 -1.808,1.536c-0.272,-1.056 -0.72,-1.536 -1.472,-1.536c-0.832,0 -1.408,0.48 -1.728,1.344l-0.048,-1.152l-1.392,0Z" style="fill-rule:nonzero;"/><path d="M104.432,217.4c-0,2.704 1.552,4.432 3.936,4.432c1.696,0 3.152,-1.024 3.632,-2.64l-1.648,-0.144c-0.368,0.848 -1.136,1.344 -1.984,1.344c-1.344,0 -2.16,-0.944 -2.288,-2.544l6.048,0l-0,-0.592c-0.128,-3.056 -1.856,-4.288 -3.76,-4.288c-2.384,0 -3.936,1.728 -3.936,4.432Zm1.696,-0.8c0.224,-1.376 1.008,-2.192 2.24,-2.192c0.96,0 1.84,0.576 2.064,2.192l-4.304,0Z" style="fill-rule:nonzero;"/><path d="M123.904,214.28l-0,1.44l7.072,0l-0,-1.44l-7.072,0Zm-0,5.04l7.072,0l-0,-1.44l-7.072,0l-0,1.44Z" style="fill-rule:nonzero;"/><path d="M133.504,214.28l-0,1.44l7.072,0l-0,-1.44l-7.072,0Zm-0,5.04l7.072,0l-0,-1.44l-7.072,0l-0,1.44Z" style="fill-rule:nonzero;"/><path d="M156.864,210.28l0.064,4.112l1.088,0l0.384,-2.816l-0,-1.296l-1.536,0Zm-2.784,1.296l0.384,2.816l1.088,0l0.064,-4.112l-1.536,0l-0,1.296Z" style="fill-rule:nonzero;"/><path d="M161.408,221.64l1.648,0l0.864,-2.976l3.84,0l0.864,2.976l1.648,0l-3.44,-11.36l-1.984,0l-3.44,11.36Zm2.912,-4.384l1.52,-5.216l1.52,5.216l-3.04,0Z" style="fill-rule:nonzero;"/><path d="M171.936,220.264l-0,1.376l7.648,0l-0,-1.376l-2.896,0l-0,-7.648c-0,-1.52 -0.88,-2.336 -2.464,-2.336l-2.016,0l-0,1.376l2.016,0c0.624,0 0.912,0.304 0.912,0.96l-0,7.648l-3.2,0Z" style="fill-rule:nonzero;"/><path d="M186.384,213.16l-4.56,0l-0,1.376l2.992,0l-0,5.728l-3.28,0l-0,1.376l7.664,0l-0,-1.376l-2.816,0l-0,-7.104Zm-1.712,-1.2l1.696,0l-0,-1.68l-1.696,0l-0,1.68Z" style="fill-rule:nonzero;"/><path d="M196.832,216.12l1.632,-0.096c-0.208,-1.872 -1.824,-3.056 -3.616,-3.056c-2.384,0 -3.936,1.728 -3.936,4.432c-0,2.704 1.552,4.432 3.936,4.432c1.856,0 3.44,-1.232 3.696,-3.184l-1.648,-0.096c-0.176,1.152 -1.04,1.84 -2.048,1.84c-1.456,0 -2.304,-1.12 -2.304,-2.992c-0,-1.872 0.848,-2.992 2.304,-2.992c0.96,0 1.824,0.656 1.984,1.712Z" style="fill-rule:nonzero;"/><path d="M200.432,217.4c-0,2.704 1.552,4.432 3.936,4.432c1.696,0 3.152,-1.024 3.632,-2.64l-1.648,-0.144c-0.368,0.848 -1.136,1.344 -1.984,1.344c-1.344,0 -2.16,-0.944 -2.288,-2.544l6.048,0l-0,-0.592c-0.128,-3.056 -1.856,-4.288 -3.76,-4.288c-2.384,0 -3.936,1.728 -3.936,4.432Zm1.696,-0.8c0.224,-1.376 1.008,-2.192 2.24,-2.192c0.96,0 1.84,0.576 2.064,2.192l-4.304,0Z" style="fill-rule:nonzero;"/><path d="M214.464,210.28l0.064,4.112l1.088,0l0.384,-2.816l-0,-1.296l-1.536,0Zm-2.784,1.296l0.384,2.816l1.088,0l0.064,-4.112l-1.536,0l-0,1.296Z" style="fill-rule:nonzero;"/><path d="M363.872,272.04l1.552,0l-0,-3.568c0.48,0.896 1.328,1.36 2.48,1.36c2.448,0 3.584,-2.048 3.584,-4.432c-0,-2.384 -1.136,-4.432 -3.584,-4.432c-1.216,0 -2.08,0.512 -2.544,1.424l-0.048,-1.232l-1.44,0l-0,10.88Zm1.392,-6.64c-0,-1.536 0.688,-2.992 2.288,-2.992c1.616,0 2.272,1.44 2.272,2.992c-0,1.552 -0.656,2.992 -2.272,2.992c-1.6,0 -2.288,-1.456 -2.288,-2.992Z" style="fill-rule:nonzero;"/><path d="M376.912,261.16l-3.312,0l-0,1.376l2.176,0l-0,5.728l-2.176,0l-0,1.376l6.448,0l-0,-1.376l-2.704,0l-0,-3.632c-0,-1.408 0.56,-2.096 1.824,-2.096l1.68,0l-0,-1.376l-1.728,0c-1.12,0 -1.808,0.496 -2.096,1.568l-0.112,-1.568Z" style="fill-rule:nonzero;"/><path d="M387.984,261.16l-4.56,0l-0,1.376l2.992,0l-0,5.728l-3.28,0l-0,1.376l7.664,0l-0,-1.376l-2.816,0l-0,-7.104Zm-1.712,-1.2l1.696,0l-0,-1.68l-1.696,0l-0,1.68Z" style="fill-rule:nonzero;"/><path d="M392.944,261.16l-0,8.48l1.552,0l-0,-5.056c-0,-1.504 0.816,-2.288 2.048,-2.288c1.168,0 1.664,0.784 1.664,2.288l-0,5.056l1.552,0l-0,-5.456c-0,-1.824 -0.928,-3.216 -2.816,-3.216c-1.136,0 -2.08,0.528 -2.528,1.616l-0.048,-1.424l-1.424,0Z" style="fill-rule:nonzero;"/><path d="M404.416,258.92l-0,2.24l-2.416,0l-0,1.376l2.416,0l-0,4.656c-0,1.504 0.752,2.448 2.544,2.448l2.304,0l-0,-1.376l-2.208,0c-0.704,0 -1.088,-0.432 -1.088,-1.136l-0,-4.592l3.328,0l-0,-1.376l-3.328,0l-0,-2.24l-1.552,0Z" style="fill-rule:nonzero;"/><path d="M417.872,257.32l-1.44,0c-3.904,4.32 -3.904,9.44 -0,13.76l1.44,0c-3.52,-4.32 -3.52,-9.44 -0,-13.76Z" style="fill-rule:nonzero;"/><path d="M425.664,258.28l0.064,4.112l1.088,0l0.384,-2.816l-0,-1.296l-1.536,0Zm-2.784,1.296l0.384,2.816l1.088,0l0.064,-4.112l-1.536,0l-0,1.296Z" style="fill-rule:nonzero;"/><path d="M430.528,258.28l3.328,6.736l-0,4.624l1.6,0l-0,-4.624l3.312,-6.736l-1.808,0l-2.304,4.912l-2.32,-4.912l-1.808,0Z" style="fill-rule:nonzero;"/><path d="M444.24,269.832c2.352,0 3.936,-1.744 3.936,-4.432c-0,-2.688 -1.584,-4.432 -3.936,-4.432c-2.352,0 -3.936,1.744 -3.936,4.432c-0,2.688 1.584,4.432 3.936,4.432Zm-2.304,-4.432c-0,-1.872 0.848,-2.992 2.304,-2.992c1.456,0 2.304,1.12 2.304,2.992c-0,1.872 -0.848,2.992 -2.304,2.992c-1.456,0 -2.304,-1.12 -2.304,-2.992Z" style="fill-rule:nonzero;"/><path d="M457.152,269.64l-0,-8.48l-1.552,0l-0,5.056c-0,1.504 -0.8,2.288 -2,2.288c-1.12,0 -1.616,-0.784 -1.616,-2.288l-0,-5.056l-1.552,0l-0,5.456c-0,1.824 0.912,3.216 2.768,3.216c1.088,0 2.016,-0.512 2.464,-1.568l0.016,1.376l1.472,0Z" style="fill-rule:nonzero;"/><path d="M469.392,263.688l1.648,0.112c0.192,-0.816 0.896,-1.392 1.856,-1.392c1.136,0 1.872,0.64 1.888,1.936l-2.288,0.448c-1.952,0.368 -3.248,0.864 -3.248,2.624c-0,1.52 1.376,2.416 3.088,2.416c1.328,0 2.32,-0.704 2.64,-1.488c0.16,0.752 0.768,1.296 1.792,1.296l0.448,0l-0,-1.376l-0.368,0c-0.352,0 -0.512,-0.16 -0.512,-0.528l-0,-3.216c-0,-2.352 -1.36,-3.552 -3.424,-3.552c-1.792,0 -3.2,1.072 -3.52,2.72Zm1.488,3.696c-0,-1.072 0.928,-1.168 2.112,-1.376l1.824,-0.32l-0,0.368c-0,1.52 -1.008,2.416 -2.288,2.416c-1.12,0 -1.632,-0.496 -1.648,-1.088Z" style="fill-rule:nonzero;"/><path d="M482.512,261.16l-3.312,0l-0,1.376l2.176,0l-0,5.728l-2.176,0l-0,1.376l6.448,0l-0,-1.376l-2.704,0l-0,-3.632c-0,-1.408 0.56,-2.096 1.824,-2.096l1.68,0l-0,-1.376l-1.728,0c-1.12,0 -1.808,0.496 -2.096,1.568l-0.112,-1.568Z" style="fill-rule:nonzero;"/><path d="M488.432,265.4c-0,2.704 1.552,4.432 3.936,4.432c1.696,0 3.152,-1.024 3.632,-2.64l-1.648,-0.144c-0.368,0.848 -1.136,1.344 -1.984,1.344c-1.344,0 -2.16,-0.944 -2.288,-2.544l6.048,0l-0,-0.592c-0.128,-3.056 -1.856,-4.288 -3.76,-4.288c-2.384,0 -3.936,1.728 -3.936,4.432Zm1.696,-0.8c0.224,-1.376 1.008,-2.192 2.24,-2.192c0.96,0 1.84,0.576 2.064,2.192l-4.304,0Z" style="fill-rule:nonzero;"/><path d="M507.008,269.64l1.648,0l0.864,-2.976l3.84,0l0.864,2.976l1.648,0l-3.44,-11.36l-1.984,0l-3.44,11.36Zm2.912,-4.384l1.52,-5.216l1.52,5.216l-3.04,0Z" style="fill-rule:nonzero;"/><path d="M517.536,268.264l-0,1.376l7.648,0l-0,-1.376l-2.896,0l-0,-7.648c-0,-1.52 -0.88,-2.336 -2.464,-2.336l-2.016,0l-0,1.376l2.016,0c0.624,0 0.912,0.304 0.912,0.96l-0,7.648l-3.2,0Z" style="fill-rule:nonzero;"/><path d="M531.984,261.16l-4.56,0l-0,1.376l2.992,0l-0,5.728l-3.28,0l-0,1.376l7.664,0l-0,-1.376l-2.816,0l-0,-7.104Zm-1.712,-1.2l1.696,0l-0,-1.68l-1.696,0l-0,1.68Z" style="fill-rule:nonzero;"/><path d="M542.432,264.12l1.632,-0.096c-0.208,-1.872 -1.824,-3.056 -3.616,-3.056c-2.384,0 -3.936,1.728 -3.936,4.432c-0,2.704 1.552,4.432 3.936,4.432c1.856,0 3.44,-1.232 3.696,-3.184l-1.648,-0.096c-0.176,1.152 -1.04,1.84 -2.048,1.84c-1.456,0 -2.304,-1.12 -2.304,-2.992c-0,-1.872 0.848,-2.992 2.304,-2.992c0.96,0 1.824,0.656 1.984,1.712Z" style="fill-rule:nonzero;"/><path d="M546.032,265.4c-0,2.704 1.552,4.432 3.936,4.432c1.696,0 3.152,-1.024 3.632,-2.64l-1.648,-0.144c-0.368,0.848 -1.136,1.344 -1.984,1.344c-1.344,0 -2.16,-0.944 -2.288,-2.544l6.048,0l-0,-0.592c-0.128,-3.056 -1.856,-4.288 -3.76,-4.288c-2.384,0 -3.936,1.728 -3.936,4.432Zm1.696,-0.8c0.224,-1.376 1.008,-2.192 2.24,-2.192c0.96,0 1.84,0.576 2.064,2.192l-4.304,0Z" style="fill-rule:nonzero;"/><path d="M560.064,258.28l0.064,4.112l1.088,0l0.384,-2.816l-0,-1.296l-1.536,0Zm-2.784,1.296l0.384,2.816l1.088,0l0.064,-4.112l-1.536,0l-0,1.296Z" style="fill-rule:nonzero;"/><path d="M568.048,257.32l-1.44,0c3.52,4.32 3.52,9.44 -0,13.76l1.44,0c3.904,-4.32 3.904,-9.44 -0,-13.76Z" style="fill-rule:nonzero;"/><path d="M76.144,85.2l-0,8.48l1.552,-0l-0,-5.056c-0,-1.504 0.816,-2.288 2.048,-2.288c1.168,-0 1.664,0.784 1.664,2.288l-0,5.056l1.552,-0l-0,-5.456c-0,-1.824 -0.928,-3.216 -2.816,-3.216c-1.136,-0 -2.08,0.528 -2.528,1.616l-0.048,-1.424l-1.424,-0Z" style="fill-rule:nonzero;"/><path d="M85.392,87.728l1.648,0.112c0.192,-0.816 0.896,-1.392 1.856,-1.392c1.136,-0 1.872,0.64 1.888,1.936l-2.288,0.448c-1.952,0.368 -3.248,0.864 -3.248,2.624c-0,1.52 1.376,2.416 3.088,2.416c1.328,-0 2.32,-0.704 2.64,-1.488c0.16,0.752 0.768,1.296 1.792,1.296l0.448,-0l-0,-1.376l-0.368,-0c-0.352,-0 -0.512,-0.16 -0.512,-0.528l-0,-3.216c-0,-2.352 -1.36,-3.552 -3.424,-3.552c-1.792,-0 -3.2,1.072 -3.52,2.72Zm1.488,3.696c-0,-1.072 0.928,-1.168 2.112,-1.376l1.824,-0.32l-0,0.368c-0,1.52 -1.008,2.416 -2.288,2.416c-1.12,-0 -1.632,-0.496 -1.648,-1.088Z" style="fill-rule:nonzero;"/><path d="M94.512,85.2l-0,8.48l1.552,-0l-0,-5.168c-0,-1.424 0.352,-2.192 0.944,-2.192c0.656,-0 0.896,0.608 0.896,2.192l-0,5.168l1.552,-0l-0,-5.168c-0,-1.424 0.368,-2.192 1.04,-2.192c0.592,-0 0.8,0.608 0.8,2.192l-0,5.168l1.552,-0l-0,-5.168c-0,-2.4 -0.592,-3.504 -1.888,-3.504c-0.848,-0 -1.52,0.592 -1.808,1.536c-0.272,-1.056 -0.72,-1.536 -1.472,-1.536c-0.832,-0 -1.408,0.48 -1.728,1.344l-0.048,-1.152l-1.392,-0Z" style="fill-rule:nonzero;"/><path d="M104.432,89.44c-0,2.704 1.552,4.432 3.936,4.432c1.696,-0 3.152,-1.024 3.632,-2.64l-1.648,-0.144c-0.368,0.848 -1.136,1.344 -1.984,1.344c-1.344,-0 -2.16,-0.944 -2.288,-2.544l6.048,-0l-0,-0.592c-0.128,-3.056 -1.856,-4.288 -3.76,-4.288c-2.384,-0 -3.936,1.728 -3.936,4.432Zm1.696,-0.8c0.224,-1.376 1.008,-2.192 2.24,-2.192c0.96,-0 1.84,0.576 2.064,2.192l-4.304,-0Z" style="fill-rule:nonzero;"/><path d="M123.904,86.32l-0,1.44l7.072,-0l-0,-1.44l-7.072,-0Zm-0,5.04l7.072,-0l-0,-1.44l-7.072,-0l-0,1.44Z" style="fill-rule:nonzero;"/><path d="M147.984,85.2l-4.56,-0l-0,1.376l2.992,-0l-0,5.728l-3.28,-0l-0,1.376l7.664,-0l-0,-1.376l-2.816,-0l-0,-7.104Zm-1.712,-1.2l1.696,-0l-0,-1.68l-1.696,-0l-0,1.68Z" style="fill-rule:nonzero;"/><path d="M152.944,85.2l-0,8.48l1.552,-0l-0,-5.056c-0,-1.504 0.816,-2.288 2.048,-2.288c1.168,-0 1.664,0.784 1.664,2.288l-0,5.056l1.552,-0l-0,-5.456c-0,-1.824 -0.928,-3.216 -2.816,-3.216c-1.136,-0 -2.08,0.528 -2.528,1.616l-0.048,-1.424l-1.424,-0Z" style="fill-rule:nonzero;"/><path d="M162.272,96.08l1.552,-0l-0,-3.568c0.48,0.896 1.328,1.36 2.48,1.36c2.448,-0 3.584,-2.048 3.584,-4.432c-0,-2.384 -1.136,-4.432 -3.584,-4.432c-1.216,-0 -2.08,0.512 -2.544,1.424l-0.048,-1.232l-1.44,-0l-0,10.88Zm1.392,-6.64c-0,-1.536 0.688,-2.992 2.288,-2.992c1.616,-0 2.272,1.44 2.272,2.992c-0,1.552 -0.656,2.992 -2.272,2.992c-1.6,-0 -2.288,-1.456 -2.288,-2.992Z" style="fill-rule:nonzero;"/><path d="M178.752,93.68l-0,-8.48l-1.552,-0l-0,5.056c-0,1.504 -0.8,2.288 -2,2.288c-1.12,-0 -1.616,-0.784 -1.616,-2.288l-0,-5.056l-1.552,-0l-0,5.456c-0,1.824 0.912,3.216 2.768,3.216c1.088,-0 2.016,-0.512 2.464,-1.568l0.016,1.376l1.472,-0Z" style="fill-rule:nonzero;"/><path d="M183.616,82.96l-0,2.24l-2.416,-0l-0,1.376l2.416,-0l-0,4.656c-0,1.504 0.752,2.448 2.544,2.448l2.304,-0l-0,-1.376l-2.208,-0c-0.704,-0 -1.088,-0.432 -1.088,-1.136l-0,-4.592l3.328,-0l-0,-1.376l-3.328,-0l-0,-2.24l-1.552,-0Z" style="fill-rule:nonzero;"/><path d="M197.072,81.36l-1.44,-0c-3.904,4.32 -3.904,9.44 -0,13.76l1.44,-0c-3.52,-4.32 -3.52,-9.44 -0,-13.76Z" style="fill-rule:nonzero;"/><path d="M203.248,81.36l-1.44,-0c3.52,4.32 3.52,9.44 -0,13.76l1.44,-0c3.904,-4.32 3.904,-9.44 -0,-13.76Z" style="fill-rule:nonzero;"/><rect x="64" y="199.96" width="160" height="32" style="fill:none;stroke:#000;stroke-width:1.5px;"/><rect x="352" y="247.96" width="232" height="32" style="fill:none;stroke:#000;stroke-width:1.5px;"/><path d="M43.872,528.08l1.552,0l-0,-3.568c0.48,0.896 1.328,1.36 2.48,1.36c2.448,0 3.584,-2.048 3.584,-4.432c-0,-2.384 -1.136,-4.432 -3.584,-4.432c-1.216,0 -2.08,0.512 -2.544,1.424l-0.048,-1.232l-1.44,0l-0,10.88Zm1.392,-6.64c-0,-1.536 0.688,-2.992 2.288,-2.992c1.616,0 2.272,1.44 2.272,2.992c-0,1.552 -0.656,2.992 -2.272,2.992c-1.6,0 -2.288,-1.456 -2.288,-2.992Z" style="fill-rule:nonzero;"/><path d="M56.912,517.2l-3.312,0l-0,1.376l2.176,0l-0,5.728l-2.176,0l-0,1.376l6.448,0l-0,-1.376l-2.704,0l-0,-3.632c-0,-1.408 0.56,-2.096 1.824,-2.096l1.68,0l-0,-1.376l-1.728,0c-1.12,0 -1.808,0.496 -2.096,1.568l-0.112,-1.568Z" style="fill-rule:nonzero;"/><path d="M67.984,517.2l-4.56,0l-0,1.376l2.992,0l-0,5.728l-3.28,0l-0,1.376l7.664,0l-0,-1.376l-2.816,0l-0,-7.104Zm-1.712,-1.2l1.696,0l-0,-1.68l-1.696,0l-0,1.68Z" style="fill-rule:nonzero;"/><path d="M72.944,517.2l-0,8.48l1.552,0l-0,-5.056c-0,-1.504 0.816,-2.288 2.048,-2.288c1.168,0 1.664,0.784 1.664,2.288l-0,5.056l1.552,0l-0,-5.456c-0,-1.824 -0.928,-3.216 -2.816,-3.216c-1.136,0 -2.08,0.528 -2.528,1.616l-0.048,-1.424l-1.424,0Z" style="fill-rule:nonzero;"/><path d="M84.416,514.96l-0,2.24l-2.416,0l-0,1.376l2.416,0l-0,4.656c-0,1.504 0.752,2.448 2.544,2.448l2.304,0l-0,-1.376l-2.208,0c-0.704,0 -1.088,-0.432 -1.088,-1.136l-0,-4.592l3.328,0l-0,-1.376l-3.328,0l-0,-2.24l-1.552,0Z" style="fill-rule:nonzero;"/><path d="M97.872,513.36l-1.44,0c-3.904,4.32 -3.904,9.44 -0,13.76l1.44,0c-3.52,-4.32 -3.52,-9.44 -0,-13.76Z" style="fill-rule:nonzero;"/><path d="M105.664,514.32l0.064,4.112l1.088,0l0.384,-2.816l-0,-1.296l-1.536,0Zm-2.784,1.296l0.384,2.816l1.088,0l0.064,-4.112l-1.536,0l-0,1.296Z" style="fill-rule:nonzero;"/><path d="M110.528,514.32l3.328,6.736l-0,4.624l1.6,0l-0,-4.624l3.312,-6.736l-1.808,0l-2.304,4.912l-2.32,-4.912l-1.808,0Z" style="fill-rule:nonzero;"/><path d="M124.24,525.872c2.352,0 3.936,-1.744 3.936,-4.432c-0,-2.688 -1.584,-4.432 -3.936,-4.432c-2.352,0 -3.936,1.744 -3.936,4.432c-0,2.688 1.584,4.432 3.936,4.432Zm-2.304,-4.432c-0,-1.872 0.848,-2.992 2.304,-2.992c1.456,0 2.304,1.12 2.304,2.992c-0,1.872 -0.848,2.992 -2.304,2.992c-1.456,0 -2.304,-1.12 -2.304,-2.992Z" style="fill-rule:nonzero;"/><path d="M137.152,525.68l-0,-8.48l-1.552,0l-0,5.056c-0,1.504 -0.8,2.288 -2,2.288c-1.12,0 -1.616,-0.784 -1.616,-2.288l-0,-5.056l-1.552,0l-0,5.456c-0,1.824 0.912,3.216 2.768,3.216c1.088,0 2.016,-0.512 2.464,-1.568l0.016,1.376l1.472,0Z" style="fill-rule:nonzero;"/><path d="M149.392,519.728l1.648,0.112c0.192,-0.816 0.896,-1.392 1.856,-1.392c1.136,0 1.872,0.64 1.888,1.936l-2.288,0.448c-1.952,0.368 -3.248,0.864 -3.248,2.624c-0,1.52 1.376,2.416 3.088,2.416c1.328,0 2.32,-0.704 2.64,-1.488c0.16,0.752 0.768,1.296 1.792,1.296l0.448,0l-0,-1.376l-0.368,0c-0.352,0 -0.512,-0.16 -0.512,-0.528l-0,-3.216c-0,-2.352 -1.36,-3.552 -3.424,-3.552c-1.792,0 -3.2,1.072 -3.52,2.72Zm1.488,3.696c-0,-1.072 0.928,-1.168 2.112,-1.376l1.824,-0.32l-0,0.368c-0,1.52 -1.008,2.416 -2.288,2.416c-1.12,0 -1.632,-0.496 -1.648,-1.088Z" style="fill-rule:nonzero;"/><path d="M162.512,517.2l-3.312,0l-0,1.376l2.176,0l-0,5.728l-2.176,0l-0,1.376l6.448,0l-0,-1.376l-2.704,0l-0,-3.632c-0,-1.408 0.56,-2.096 1.824,-2.096l1.68,0l-0,-1.376l-1.728,0c-1.12,0 -1.808,0.496 -2.096,1.568l-0.112,-1.568Z" style="fill-rule:nonzero;"/><path d="M168.432,521.44c-0,2.704 1.552,4.432 3.936,4.432c1.696,0 3.152,-1.024 3.632,-2.64l-1.648,-0.144c-0.368,0.848 -1.136,1.344 -1.984,1.344c-1.344,0 -2.16,-0.944 -2.288,-2.544l6.048,0l-0,-0.592c-0.128,-3.056 -1.856,-4.288 -3.76,-4.288c-2.384,0 -3.936,1.728 -3.936,4.432Zm1.696,-0.8c0.224,-1.376 1.008,-2.192 2.24,-2.192c0.96,0 1.84,0.576 2.064,2.192l-4.304,0Z" style="fill-rule:nonzero;"/><path d="M188.144,517.2l-0,8.48l1.552,0l-0,-5.056c-0,-1.504 0.816,-2.288 2.048,-2.288c1.168,0 1.664,0.784 1.664,2.288l-0,5.056l1.552,0l-0,-5.456c-0,-1.824 -0.928,-3.216 -2.816,-3.216c-1.136,0 -2.08,0.528 -2.528,1.616l-0.048,-1.424l-1.424,0Z" style="fill-rule:nonzero;"/><path d="M201.04,525.872c2.352,0 3.936,-1.744 3.936,-4.432c-0,-2.688 -1.584,-4.432 -3.936,-4.432c-2.352,0 -3.936,1.744 -3.936,4.432c-0,2.688 1.584,4.432 3.936,4.432Zm-2.304,-4.432c-0,-1.872 0.848,-2.992 2.304,-2.992c1.456,0 2.304,1.12 2.304,2.992c-0,1.872 -0.848,2.992 -2.304,2.992c-1.456,0 -2.304,-1.12 -2.304,-2.992Z" style="fill-rule:nonzero;"/><path d="M209.216,514.96l-0,2.24l-2.416,0l-0,1.376l2.416,0l-0,4.656c-0,1.504 0.752,2.448 2.544,2.448l2.304,0l-0,-1.376l-2.208,0c-0.704,0 -1.088,-0.432 -1.088,-1.136l-0,-4.592l3.328,0l-0,-1.376l-3.328,0l-0,-2.24l-1.552,0Z" style="fill-rule:nonzero;"/><path d="M226.192,519.728l1.648,0.112c0.192,-0.816 0.896,-1.392 1.856,-1.392c1.136,0 1.872,0.64 1.888,1.936l-2.288,0.448c-1.952,0.368 -3.248,0.864 -3.248,2.624c-0,1.52 1.376,2.416 3.088,2.416c1.328,0 2.32,-0.704 2.64,-1.488c0.16,0.752 0.768,1.296 1.792,1.296l0.448,0l-0,-1.376l-0.368,0c-0.352,0 -0.512,-0.16 -0.512,-0.528l-0,-3.216c-0,-2.352 -1.36,-3.552 -3.424,-3.552c-1.792,0 -3.2,1.072 -3.52,2.72Zm1.488,3.696c-0,-1.072 0.928,-1.168 2.112,-1.376l1.824,-0.32l-0,0.368c-0,1.52 -1.008,2.416 -2.288,2.416c-1.12,0 -1.632,-0.496 -1.648,-1.088Z" style="fill-rule:nonzero;"/><path d="M235.936,524.304l-0,1.376l7.648,0l-0,-1.376l-2.896,0l-0,-7.648c-0,-1.52 -0.88,-2.336 -2.464,-2.336l-2.016,0l-0,1.376l2.016,0c0.624,0 0.912,0.304 0.912,0.96l-0,7.648l-3.2,0Z" style="fill-rule:nonzero;"/><path d="M245.536,524.304l-0,1.376l7.648,0l-0,-1.376l-2.896,0l-0,-7.648c-0,-1.52 -0.88,-2.336 -2.464,-2.336l-2.016,0l-0,1.376l2.016,0c0.624,0 0.912,0.304 0.912,0.96l-0,7.648l-3.2,0Z" style="fill-rule:nonzero;"/><path d="M258.64,525.872c2.352,0 3.936,-1.744 3.936,-4.432c-0,-2.688 -1.584,-4.432 -3.936,-4.432c-2.352,0 -3.936,1.744 -3.936,4.432c-0,2.688 1.584,4.432 3.936,4.432Zm-2.304,-4.432c-0,-1.872 0.848,-2.992 2.304,-2.992c1.456,0 2.304,1.12 2.304,2.992c-0,1.872 -0.848,2.992 -2.304,2.992c-1.456,0 -2.304,-1.12 -2.304,-2.992Z" style="fill-rule:nonzero;"/><path d="M268.992,518.32l-1.504,0l-1.12,5.12l-1.056,-6.24l-1.616,0l1.712,8.48l1.744,0l1.088,-4.96l1.088,4.96l1.744,0l1.712,-8.48l-1.616,0l-1.056,6.24l-1.12,-5.12Z" style="fill-rule:nonzero;"/><path d="M274.032,521.44c-0,2.704 1.552,4.432 3.936,4.432c1.696,0 3.152,-1.024 3.632,-2.64l-1.648,-0.144c-0.368,0.848 -1.136,1.344 -1.984,1.344c-1.344,0 -2.16,-0.944 -2.288,-2.544l6.048,0l-0,-0.592c-0.128,-3.056 -1.856,-4.288 -3.76,-4.288c-2.384,0 -3.936,1.728 -3.936,4.432Zm1.696,-0.8c0.224,-1.376 1.008,-2.192 2.24,-2.192c0.96,0 1.84,0.576 2.064,2.192l-4.304,0Z" style="fill-rule:nonzero;"/><path d="M291.008,514.32l-1.552,0l-0,4c-0.496,-0.848 -1.328,-1.312 -2.544,-1.312c-2.384,0 -3.52,2.048 -3.52,4.432c-0,2.384 1.136,4.432 3.52,4.432c1.28,0 2.144,-0.512 2.608,-1.392l0.048,1.2l1.44,0l-0,-11.36Zm-5.984,7.12c-0,-1.6 0.656,-3.04 2.288,-3.04c1.6,0 2.272,1.456 2.272,3.04c-0,1.536 -0.672,2.992 -2.272,2.992c-1.632,0 -2.288,-1.44 -2.288,-2.992Z" style="fill-rule:nonzero;"/><path d="M305.216,514.96l-0,2.24l-2.416,0l-0,1.376l2.416,0l-0,4.656c-0,1.504 0.752,2.448 2.544,2.448l2.304,0l-0,-1.376l-2.208,0c-0.704,0 -1.088,-0.432 -1.088,-1.136l-0,-4.592l3.328,0l-0,-1.376l-3.328,0l-0,-2.24l-1.552,0Z" style="fill-rule:nonzero;"/><path d="M316.24,525.872c2.352,0 3.936,-1.744 3.936,-4.432c-0,-2.688 -1.584,-4.432 -3.936,-4.432c-2.352,0 -3.936,1.744 -3.936,4.432c-0,2.688 1.584,4.432 3.936,4.432Zm-2.304,-4.432c-0,-1.872 0.848,-2.992 2.304,-2.992c1.456,0 2.304,1.12 2.304,2.992c-0,1.872 -0.848,2.992 -2.304,2.992c-1.456,0 -2.304,-1.12 -2.304,-2.992Z" style="fill-rule:nonzero;"/><path d="M339.008,514.32l-1.552,0l-0,4c-0.496,-0.848 -1.328,-1.312 -2.544,-1.312c-2.384,0 -3.52,2.048 -3.52,4.432c-0,2.384 1.136,4.432 3.52,4.432c1.28,0 2.144,-0.512 2.608,-1.392l0.048,1.2l1.44,0l-0,-11.36Zm-5.984,7.12c-0,-1.6 0.656,-3.04 2.288,-3.04c1.6,0 2.272,1.456 2.272,3.04c-0,1.536 -0.672,2.992 -2.272,2.992c-1.632,0 -2.288,-1.44 -2.288,-2.992Z" style="fill-rule:nonzero;"/><path d="M344.912,517.2l-3.312,0l-0,1.376l2.176,0l-0,5.728l-2.176,0l-0,1.376l6.448,0l-0,-1.376l-2.704,0l-0,-3.632c-0,-1.408 0.56,-2.096 1.824,-2.096l1.68,0l-0,-1.376l-1.728,0c-1.12,0 -1.808,0.496 -2.096,1.568l-0.112,-1.568Z" style="fill-rule:nonzero;"/><path d="M355.984,517.2l-4.56,0l-0,1.376l2.992,0l-0,5.728l-3.28,0l-0,1.376l7.664,0l-0,-1.376l-2.816,0l-0,-7.104Zm-1.712,-1.2l1.696,0l-0,-1.68l-1.696,0l-0,1.68Z" style="fill-rule:nonzero;"/><path d="M360.944,517.2l-0,8.48l1.552,0l-0,-5.056c-0,-1.504 0.816,-2.288 2.048,-2.288c1.168,0 1.664,0.784 1.664,2.288l-0,5.056l1.552,0l-0,-5.456c-0,-1.824 -0.928,-3.216 -2.816,-3.216c-1.136,0 -2.08,0.528 -2.528,1.616l-0.048,-1.424l-1.424,0Z" style="fill-rule:nonzero;"/><path d="M370.384,514.32l-0,11.36l1.552,0l-0,-1.984l1.52,-1.792l2.592,3.776l1.92,0l-3.488,-4.88l3.312,-3.6l-2.096,0l-3.76,4.24l-0,-7.12l-1.552,0Z" style="fill-rule:nonzero;"/><path d="M384.064,514.32l0.064,4.112l1.088,0l0.384,-2.816l-0,-1.296l-1.536,0Zm-2.784,1.296l0.384,2.816l1.088,0l0.064,-4.112l-1.536,0l-0,1.296Z" style="fill-rule:nonzero;"/><path d="M392.048,513.36l-1.44,0c3.52,4.32 3.52,9.44 -0,13.76l1.44,0c3.904,-4.32 3.904,-9.44 -0,-13.76Z" style="fill-rule:nonzero;"/><rect x="32" y="504" width="376" height="32" style="fill:none;stroke:#000;stroke-width:1.5px;"/><path d="M363.872,416.08l1.552,0l-0,-3.568c0.48,0.896 1.328,1.36 2.48,1.36c2.448,0 3.584,-2.048 3.584,-4.432c-0,-2.384 -1.136,-4.432 -3.584,-4.432c-1.216,0 -2.08,0.512 -2.544,1.424l-0.048,-1.232l-1.44,0l-0,10.88Zm1.392,-6.64c-0,-1.536 0.688,-2.992 2.288,-2.992c1.616,0 2.272,1.44 2.272,2.992c-0,1.552 -0.656,2.992 -2.272,2.992c-1.6,0 -2.288,-1.456 -2.288,-2.992Z" style="fill-rule:nonzero;"/><path d="M376.912,405.2l-3.312,0l-0,1.376l2.176,0l-0,5.728l-2.176,0l-0,1.376l6.448,0l-0,-1.376l-2.704,0l-0,-3.632c-0,-1.408 0.56,-2.096 1.824,-2.096l1.68,0l-0,-1.376l-1.728,0c-1.12,0 -1.808,0.496 -2.096,1.568l-0.112,-1.568Z" style="fill-rule:nonzero;"/><path d="M387.984,405.2l-4.56,0l-0,1.376l2.992,0l-0,5.728l-3.28,0l-0,1.376l7.664,0l-0,-1.376l-2.816,0l-0,-7.104Zm-1.712,-1.2l1.696,0l-0,-1.68l-1.696,0l-0,1.68Z" style="fill-rule:nonzero;"/><path d="M392.944,405.2l-0,8.48l1.552,0l-0,-5.056c-0,-1.504 0.816,-2.288 2.048,-2.288c1.168,0 1.664,0.784 1.664,2.288l-0,5.056l1.552,0l-0,-5.456c-0,-1.824 -0.928,-3.216 -2.816,-3.216c-1.136,0 -2.08,0.528 -2.528,1.616l-0.048,-1.424l-1.424,0Z" style="fill-rule:nonzero;"/><path d="M404.416,402.96l-0,2.24l-2.416,0l-0,1.376l2.416,0l-0,4.656c-0,1.504 0.752,2.448 2.544,2.448l2.304,0l-0,-1.376l-2.208,0c-0.704,0 -1.088,-0.432 -1.088,-1.136l-0,-4.592l3.328,0l-0,-1.376l-3.328,0l-0,-2.24l-1.552,0Z" style="fill-rule:nonzero;"/><path d="M417.872,401.36l-1.44,0c-3.904,4.32 -3.904,9.44 -0,13.76l1.44,0c-3.52,-4.32 -3.52,-9.44 -0,-13.76Z" style="fill-rule:nonzero;"/><path d="M425.664,402.32l0.064,4.112l1.088,0l0.384,-2.816l-0,-1.296l-1.536,0Zm-2.784,1.296l0.384,2.816l1.088,0l0.064,-4.112l-1.536,0l-0,1.296Z" style="fill-rule:nonzero;"/><path d="M430.528,402.32l3.328,6.736l-0,4.624l1.6,0l-0,-4.624l3.312,-6.736l-1.808,0l-2.304,4.912l-2.32,-4.912l-1.808,0Z" style="fill-rule:nonzero;"/><path d="M444.24,413.872c2.352,0 3.936,-1.744 3.936,-4.432c-0,-2.688 -1.584,-4.432 -3.936,-4.432c-2.352,0 -3.936,1.744 -3.936,4.432c-0,2.688 1.584,4.432 3.936,4.432Zm-2.304,-4.432c-0,-1.872 0.848,-2.992 2.304,-2.992c1.456,0 2.304,1.12 2.304,2.992c-0,1.872 -0.848,2.992 -2.304,2.992c-1.456,0 -2.304,-1.12 -2.304,-2.992Z" style="fill-rule:nonzero;"/><path d="M457.152,413.68l-0,-8.48l-1.552,0l-0,5.056c-0,1.504 -0.8,2.288 -2,2.288c-1.12,0 -1.616,-0.784 -1.616,-2.288l-0,-5.056l-1.552,0l-0,5.456c-0,1.824 0.912,3.216 2.768,3.216c1.088,0 2.016,-0.512 2.464,-1.568l0.016,1.376l1.472,0Z" style="fill-rule:nonzero;"/><path d="M469.392,407.728l1.648,0.112c0.192,-0.816 0.896,-1.392 1.856,-1.392c1.136,0 1.872,0.64 1.888,1.936l-2.288,0.448c-1.952,0.368 -3.248,0.864 -3.248,2.624c-0,1.52 1.376,2.416 3.088,2.416c1.328,0 2.32,-0.704 2.64,-1.488c0.16,0.752 0.768,1.296 1.792,1.296l0.448,0l-0,-1.376l-0.368,0c-0.352,0 -0.512,-0.16 -0.512,-0.528l-0,-3.216c-0,-2.352 -1.36,-3.552 -3.424,-3.552c-1.792,0 -3.2,1.072 -3.52,2.72Zm1.488,3.696c-0,-1.072 0.928,-1.168 2.112,-1.376l1.824,-0.32l-0,0.368c-0,1.52 -1.008,2.416 -2.288,2.416c-1.12,0 -1.632,-0.496 -1.648,-1.088Z" style="fill-rule:nonzero;"/><path d="M482.512,405.2l-3.312,0l-0,1.376l2.176,0l-0,5.728l-2.176,0l-0,1.376l6.448,0l-0,-1.376l-2.704,0l-0,-3.632c-0,-1.408 0.56,-2.096 1.824,-2.096l1.68,0l-0,-1.376l-1.728,0c-1.12,0 -1.808,0.496 -2.096,1.568l-0.112,-1.568Z" style="fill-rule:nonzero;"/><path d="M488.432,409.44c-0,2.704 1.552,4.432 3.936,4.432c1.696,0 3.152,-1.024 3.632,-2.64l-1.648,-0.144c-0.368,0.848 -1.136,1.344 -1.984,1.344c-1.344,0 -2.16,-0.944 -2.288,-2.544l6.048,0l-0,-0.592c-0.128,-3.056 -1.856,-4.288 -3.76,-4.288c-2.384,0 -3.936,1.728 -3.936,4.432Zm1.696,-0.8c0.224,-1.376 1.008,-2.192 2.24,-2.192c0.96,0 1.84,0.576 2.064,2.192l-4.304,0Z" style="fill-rule:nonzero;"/><path d="M507.792,407.728l1.648,0.112c0.192,-0.816 0.896,-1.392 1.856,-1.392c1.136,0 1.872,0.64 1.888,1.936l-2.288,0.448c-1.952,0.368 -3.248,0.864 -3.248,2.624c-0,1.52 1.376,2.416 3.088,2.416c1.328,0 2.32,-0.704 2.64,-1.488c0.16,0.752 0.768,1.296 1.792,1.296l0.448,0l-0,-1.376l-0.368,0c-0.352,0 -0.512,-0.16 -0.512,-0.528l-0,-3.216c-0,-2.352 -1.36,-3.552 -3.424,-3.552c-1.792,0 -3.2,1.072 -3.52,2.72Zm1.488,3.696c-0,-1.072 0.928,-1.168 2.112,-1.376l1.824,-0.32l-0,0.368c-0,1.52 -1.008,2.416 -2.288,2.416c-1.12,0 -1.632,-0.496 -1.648,-1.088Z" style="fill-rule:nonzero;"/><path d="M517.536,412.304l-0,1.376l7.648,0l-0,-1.376l-2.896,0l-0,-7.648c-0,-1.52 -0.88,-2.336 -2.464,-2.336l-2.016,0l-0,1.376l2.016,0c0.624,0 0.912,0.304 0.912,0.96l-0,7.648l-3.2,0Z" style="fill-rule:nonzero;"/><path d="M527.136,412.304l-0,1.376l7.648,0l-0,-1.376l-2.896,0l-0,-7.648c-0,-1.52 -0.88,-2.336 -2.464,-2.336l-2.016,0l-0,1.376l2.016,0c0.624,0 0.912,0.304 0.912,0.96l-0,7.648l-3.2,0Z" style="fill-rule:nonzero;"/><path d="M540.24,413.872c2.352,0 3.936,-1.744 3.936,-4.432c-0,-2.688 -1.584,-4.432 -3.936,-4.432c-2.352,0 -3.936,1.744 -3.936,4.432c-0,2.688 1.584,4.432 3.936,4.432Zm-2.304,-4.432c-0,-1.872 0.848,-2.992 2.304,-2.992c1.456,0 2.304,1.12 2.304,2.992c-0,1.872 -0.848,2.992 -2.304,2.992c-1.456,0 -2.304,-1.12 -2.304,-2.992Z" style="fill-rule:nonzero;"/><path d="M550.592,406.32l-1.504,0l-1.12,5.12l-1.056,-6.24l-1.616,0l1.712,8.48l1.744,0l1.088,-4.96l1.088,4.96l1.744,0l1.712,-8.48l-1.616,0l-1.056,6.24l-1.12,-5.12Z" style="fill-rule:nonzero;"/><path d="M555.632,409.44c-0,2.704 1.552,4.432 3.936,4.432c1.696,0 3.152,-1.024 3.632,-2.64l-1.648,-0.144c-0.368,0.848 -1.136,1.344 -1.984,1.344c-1.344,0 -2.16,-0.944 -2.288,-2.544l6.048,0l-0,-0.592c-0.128,-3.056 -1.856,-4.288 -3.76,-4.288c-2.384,0 -3.936,1.728 -3.936,4.432Zm1.696,-0.8c0.224,-1.376 1.008,-2.192 2.24,-2.192c0.96,0 1.84,0.576 2.064,2.192l-4.304,0Z" style="fill-rule:nonzero;"/><path d="M572.608,402.32l-1.552,0l-0,4c-0.496,-0.848 -1.328,-1.312 -2.544,-1.312c-2.384,0 -3.52,2.048 -3.52,4.432c-0,2.384 1.136,4.432 3.52,4.432c1.28,0 2.144,-0.512 2.608,-1.392l0.048,1.2l1.44,0l-0,-11.36Zm-5.984,7.12c-0,-1.6 0.656,-3.04 2.288,-3.04c1.6,0 2.272,1.456 2.272,3.04c-0,1.536 -0.672,2.992 -2.272,2.992c-1.632,0 -2.288,-1.44 -2.288,-2.992Z" style="fill-rule:nonzero;"/><path d="M586.816,402.96l-0,2.24l-2.416,0l-0,1.376l2.416,0l-0,4.656c-0,1.504 0.752,2.448 2.544,2.448l2.304,0l-0,-1.376l-2.208,0c-0.704,0 -1.088,-0.432 -1.088,-1.136l-0,-4.592l3.328,0l-0,-1.376l-3.328,0l-0,-2.24l-1.552,0Z" style="fill-rule:nonzero;"/><path d="M597.84,413.872c2.352,0 3.936,-1.744 3.936,-4.432c-0,-2.688 -1.584,-4.432 -3.936,-4.432c-2.352,0 -3.936,1.744 -3.936,4.432c-0,2.688 1.584,4.432 3.936,4.432Zm-2.304,-4.432c-0,-1.872 0.848,-2.992 2.304,-2.992c1.456,0 2.304,1.12 2.304,2.992c-0,1.872 -0.848,2.992 -2.304,2.992c-1.456,0 -2.304,-1.12 -2.304,-2.992Z" style="fill-rule:nonzero;"/><path d="M620.608,402.32l-1.552,0l-0,4c-0.496,-0.848 -1.328,-1.312 -2.544,-1.312c-2.384,0 -3.52,2.048 -3.52,4.432c-0,2.384 1.136,4.432 3.52,4.432c1.28,0 2.144,-0.512 2.608,-1.392l0.048,1.2l1.44,0l-0,-11.36Zm-5.984,7.12c-0,-1.6 0.656,-3.04 2.288,-3.04c1.6,0 2.272,1.456 2.272,3.04c-0,1.536 -0.672,2.992 -2.272,2.992c-1.632,0 -2.288,-1.44 -2.288,-2.992Z" style="fill-rule:nonzero;"/><path d="M626.512,405.2l-3.312,0l-0,1.376l2.176,0l-0,5.728l-2.176,0l-0,1.376l6.448,0l-0,-1.376l-2.704,0l-0,-3.632c-0,-1.408 0.56,-2.096 1.824,-2.096l1.68,0l-0,-1.376l-1.728,0c-1.12,0 -1.808,0.496 -2.096,1.568l-0.112,-1.568Z" style="fill-rule:nonzero;"/><path d="M637.584,405.2l-4.56,0l-0,1.376l2.992,0l-0,5.728l-3.28,0l-0,1.376l7.664,0l-0,-1.376l-2.816,0l-0,-7.104Zm-1.712,-1.2l1.696,0l-0,-1.68l-1.696,0l-0,1.68Z" style="fill-rule:nonzero;"/><path d="M642.544,405.2l-0,8.48l1.552,0l-0,-5.056c-0,-1.504 0.816,-2.288 2.048,-2.288c1.168,0 1.664,0.784 1.664,2.288l-0,5.056l1.552,0l-0,-5.456c-0,-1.824 -0.928,-3.216 -2.816,-3.216c-1.136,0 -2.08,0.528 -2.528,1.616l-0.048,-1.424l-1.424,0Z" style="fill-rule:nonzero;"/><path d="M651.984,402.32l-0,11.36l1.552,0l-0,-1.984l1.52,-1.792l2.592,3.776l1.92,0l-3.488,-4.88l3.312,-3.6l-2.096,0l-3.76,4.24l-0,-7.12l-1.552,0Z" style="fill-rule:nonzero;"/><path d="M665.664,402.32l0.064,4.112l1.088,0l0.384,-2.816l-0,-1.296l-1.536,0Zm-2.784,1.296l0.384,2.816l1.088,0l0.064,-4.112l-1.536,0l-0,1.296Z" style="fill-rule:nonzero;"/><path d="M673.648,401.36l-1.44,0c3.52,4.32 3.52,9.44 -0,13.76l1.44,0c3.904,-4.32 3.904,-9.44 -0,-13.76Z" style="fill-rule:nonzero;"/><rect x="352" y="392" width="336" height="32" style="fill:none;stroke:#000;stroke-width:1.5px;"/><rect x="64" y="72" width="160" height="32" style="fill:none;stroke:#000;stroke-width:1.5px;"/><path d="M44.544,213.16l-4.56,0l-0,1.376l2.992,0l-0,5.728l-3.28,0l-0,1.376l7.664,0l-0,-1.376l-2.816,0l-0,-7.104Zm-1.712,-1.2l1.696,0l-0,-1.68l-1.696,0l-0,1.68Z" style="fill:#fff;fill-rule:nonzero;"/><path d="M51.312,212.792l-0,0.912l-2.224,0l-0,1.376l2.224,0l-0,6.56l1.552,0l-0,-6.56l3.184,0l-0,-1.376l-3.184,0l-0,-0.944c-0,-0.688 0.384,-1.104 0.928,-1.104l2.368,0l-0,-1.376l-2.336,0c-1.728,0 -2.512,0.944 -2.512,2.512Z" style="fill:#fff;fill-rule:nonzero;"/><rect x="32" y="199.96" width="32" height="32" style="stroke:#000;stroke-width:1.5px;"/><rect x="64" y="199.96" width="160" height="32" style="fill:none;stroke:#000;stroke-width:1.5px;"/><path d="M44.544,213.16l-4.56,0l-0,1.376l2.992,0l-0,5.728l-3.28,0l-0,1.376l7.664,0l-0,-1.376l-2.816,0l-0,-7.104Zm-1.712,-1.2l1.696,0l-0,-1.68l-1.696,0l-0,1.68Z" style="fill:#fff;fill-rule:nonzero;"/><path d="M51.312,212.792l-0,0.912l-2.224,0l-0,1.376l2.224,0l-0,6.56l1.552,0l-0,-6.56l3.184,0l-0,-1.376l-3.184,0l-0,-0.944c-0,-0.688 0.384,-1.104 0.928,-1.104l2.368,0l-0,-1.376l-2.336,0c-1.728,0 -2.512,0.944 -2.512,2.512Z" style="fill:#fff;fill-rule:nonzero;"/><path d="M99.832,359.728l1.648,0.112c0.192,-0.816 0.896,-1.392 1.856,-1.392c1.136,0 1.872,0.64 1.888,1.936l-2.288,0.448c-1.952,0.368 -3.248,0.864 -3.248,2.624c-0,1.52 1.376,2.416 3.088,2.416c1.328,0 2.32,-0.704 2.64,-1.488c0.16,0.752 0.768,1.296 1.792,1.296l0.448,0l-0,-1.376l-0.368,0c-0.352,0 -0.512,-0.16 -0.512,-0.528l-0,-3.216c-0,-2.352 -1.36,-3.552 -3.424,-3.552c-1.792,0 -3.2,1.072 -3.52,2.72Zm1.488,3.696c-0,-1.072 0.928,-1.168 2.112,-1.376l1.824,-0.32l-0,0.368c-0,1.52 -1.008,2.416 -2.288,2.416c-1.12,0 -1.632,-0.496 -1.648,-1.088Z" style="fill-rule:nonzero;"/><path d="M112.808,365.232c1.008,0 2.032,-0.592 2.464,-1.408l-0,1.264c-0.016,1.168 -0.832,1.792 -2.208,1.792c-0.976,0 -1.632,-0.432 -1.968,-1.168l-1.632,0.112c0.4,1.472 1.744,2.448 3.6,2.448c2.272,0 3.744,-1.2 3.76,-3.52l-0,-7.552l-1.488,0l-0.016,1.296c-0.384,-0.88 -1.376,-1.488 -2.512,-1.488c-2.096,0 -3.584,1.696 -3.584,4.16c-0,2.384 1.488,4.064 3.584,4.064Zm-1.952,-4.08c-0,-1.584 0.848,-2.704 2.24,-2.704c1.392,0 2.24,1.12 2.208,2.704c-0.016,1.6 -0.848,2.72 -2.208,2.72c-1.392,0 -2.24,-1.12 -2.24,-2.72Z" style="fill-rule:nonzero;"/><path d="M118.872,361.44c-0,2.704 1.552,4.432 3.936,4.432c1.696,0 3.152,-1.024 3.632,-2.64l-1.648,-0.144c-0.368,0.848 -1.136,1.344 -1.984,1.344c-1.344,0 -2.16,-0.944 -2.288,-2.544l6.048,0l-0,-0.592c-0.128,-3.056 -1.856,-4.288 -3.76,-4.288c-2.384,0 -3.936,1.728 -3.936,4.432Zm1.696,-0.8c0.224,-1.376 1.008,-2.192 2.24,-2.192c0.96,0 1.84,0.576 2.064,2.192l-4.304,0Z" style="fill-rule:nonzero;"/><path d="M138.232,356.56l-0,1.568l5.952,2.608l-5.952,2.608l-0,1.584l7.312,-3.216l-0,-1.952l-7.312,-3.2Z" style="fill-rule:nonzero;"/><path d="M147.944,358.32l-0,1.44l7.072,0l-0,-1.44l-7.072,0Zm-0,5.04l7.072,0l-0,-1.44l-7.072,0l-0,1.44Z" style="fill-rule:nonzero;"/><path d="M166.872,357.76l1.664,0.112c0.256,-1.44 1.12,-2.288 2.416,-2.288c1.2,0 2.032,0.736 2.032,1.76c-0,0.88 -0.88,1.664 -2.032,2.4c-2.064,1.296 -4.288,2.528 -4.288,5.936l8.08,0l-0,-1.52l-6.096,0c0.096,-1.104 2.24,-2.544 3.088,-3.024c1.648,-0.992 2.928,-2.128 2.928,-3.776c-0,-1.888 -1.568,-3.296 -3.712,-3.296c-2.304,0 -3.824,1.568 -4.08,3.696Z" style="fill-rule:nonzero;"/><path d="M176.408,364.16l-0,1.52l8.032,0l-0,-1.52l-3.056,0l-0,-9.84l-1.296,0c-0,1.296 -0.56,1.856 -1.856,1.856l-1.296,0l-0,1.328l2.848,0l-0,6.656l-3.376,0Z" style="fill-rule:nonzero;"/><rect x="56.04" y="344" width="32" height="32" style="stroke:#000;stroke-width:1.5px;"/><rect x="88.04" y="344" width="112" height="32" style="fill:none;stroke:#000;stroke-width:1.5px;"/><path d="M68.584,357.2l-4.56,0l-0,1.376l2.992,0l-0,5.728l-3.28,0l-0,1.376l7.664,0l-0,-1.376l-2.816,0l-0,-7.104Zm-1.712,-1.2l1.696,0l-0,-1.68l-1.696,0l-0,1.68Z" style="fill:#fff;fill-rule:nonzero;"/><path d="M75.352,356.832l-0,0.912l-2.224,0l-0,1.376l2.224,0l-0,6.56l1.552,0l-0,-6.56l3.184,0l-0,-1.376l-3.184,0l-0,-0.944c-0,-0.688 0.384,-1.104 0.928,-1.104l2.368,0l-0,-1.376l-2.336,0c-1.728,0 -2.512,0.944 -2.512,2.512Z" style="fill:#fff;fill-rule:nonzero;"/><path d="M148.5,130.439l-4.5,4.5l-4.5,-4.5" style="fill:none;stroke:#000;stroke-width:1.5px;stroke-linejoin:miter;stroke-miterlimit:10;"/><path d="M144,104l-0,30.939" style="fill:none;stroke:#000;stroke-width:1.5px;"/><path d="M75.792,151.728l1.648,0.112c0.192,-0.816 0.896,-1.392 1.856,-1.392c1.136,-0 1.872,0.64 1.888,1.936l-2.288,0.448c-1.952,0.368 -3.248,0.864 -3.248,2.624c-0,1.52 1.376,2.416 3.088,2.416c1.328,-0 2.32,-0.704 2.64,-1.488c0.16,0.752 0.768,1.296 1.792,1.296l0.448,-0l-0,-1.376l-0.368,-0c-0.352,-0 -0.512,-0.16 -0.512,-0.528l-0,-3.216c-0,-2.352 -1.36,-3.552 -3.424,-3.552c-1.792,-0 -3.2,1.072 -3.52,2.72Zm1.488,3.696c-0,-1.072 0.928,-1.168 2.112,-1.376l1.824,-0.32l-0,0.368c-0,1.52 -1.008,2.416 -2.288,2.416c-1.12,-0 -1.632,-0.496 -1.648,-1.088Z" style="fill-rule:nonzero;"/><path d="M88.768,157.232c1.008,-0 2.032,-0.592 2.464,-1.408l-0,1.264c-0.016,1.168 -0.832,1.792 -2.208,1.792c-0.976,-0 -1.632,-0.432 -1.968,-1.168l-1.632,0.112c0.4,1.472 1.744,2.448 3.6,2.448c2.272,-0 3.744,-1.2 3.76,-3.52l-0,-7.552l-1.488,-0l-0.016,1.296c-0.384,-0.88 -1.376,-1.488 -2.512,-1.488c-2.096,-0 -3.584,1.696 -3.584,4.16c-0,2.384 1.488,4.064 3.584,4.064Zm-1.952,-4.08c-0,-1.584 0.848,-2.704 2.24,-2.704c1.392,-0 2.24,1.12 2.208,2.704c-0.016,1.6 -0.848,2.72 -2.208,2.72c-1.392,-0 -2.24,-1.12 -2.24,-2.72Z" style="fill-rule:nonzero;"/><path d="M94.832,153.44c-0,2.704 1.552,4.432 3.936,4.432c1.696,-0 3.152,-1.024 3.632,-2.64l-1.648,-0.144c-0.368,0.848 -1.136,1.344 -1.984,1.344c-1.344,-0 -2.16,-0.944 -2.288,-2.544l6.048,-0l-0,-0.592c-0.128,-3.056 -1.856,-4.288 -3.76,-4.288c-2.384,-0 -3.936,1.728 -3.936,4.432Zm1.696,-0.8c0.224,-1.376 1.008,-2.192 2.24,-2.192c0.96,-0 1.84,0.576 2.064,2.192l-4.304,-0Z" style="fill-rule:nonzero;"/><path d="M114.304,150.32l-0,1.44l7.072,-0l-0,-1.44l-7.072,-0Zm-0,5.04l7.072,-0l-0,-1.44l-7.072,-0l-0,1.44Z" style="fill-rule:nonzero;"/><path d="M138.384,149.2l-4.56,-0l-0,1.376l2.992,-0l-0,5.728l-3.28,-0l-0,1.376l7.664,-0l-0,-1.376l-2.816,-0l-0,-7.104Zm-1.712,-1.2l1.696,-0l-0,-1.68l-1.696,-0l-0,1.68Z" style="fill-rule:nonzero;"/><path d="M143.344,149.2l-0,8.48l1.552,-0l-0,-5.056c-0,-1.504 0.816,-2.288 2.048,-2.288c1.168,-0 1.664,0.784 1.664,2.288l-0,5.056l1.552,-0l-0,-5.456c-0,-1.824 -0.928,-3.216 -2.816,-3.216c-1.136,-0 -2.08,0.528 -2.528,1.616l-0.048,-1.424l-1.424,-0Z" style="fill-rule:nonzero;"/><path d="M154.816,146.96l-0,2.24l-2.416,-0l-0,1.376l2.416,-0l-0,4.656c-0,1.504 0.752,2.448 2.544,2.448l2.304,-0l-0,-1.376l-2.208,-0c-0.704,-0 -1.088,-0.432 -1.088,-1.136l-0,-4.592l3.328,-0l-0,-1.376l-3.328,-0l-0,-2.24l-1.552,-0Z" style="fill-rule:nonzero;"/><path d="M168.272,145.36l-1.44,-0c-3.904,4.32 -3.904,9.44 -0,13.76l1.44,-0c-3.52,-4.32 -3.52,-9.44 -0,-13.76Z" style="fill-rule:nonzero;"/><path d="M176.784,149.2l-4.56,-0l-0,1.376l2.992,-0l-0,5.728l-3.28,-0l-0,1.376l7.664,-0l-0,-1.376l-2.816,-0l-0,-7.104Zm-1.712,-1.2l1.696,-0l-0,-1.68l-1.696,-0l-0,1.68Z" style="fill-rule:nonzero;"/><path d="M181.744,149.2l-0,8.48l1.552,-0l-0,-5.056c-0,-1.504 0.816,-2.288 2.048,-2.288c1.168,-0 1.664,0.784 1.664,2.288l-0,5.056l1.552,-0l-0,-5.456c-0,-1.824 -0.928,-3.216 -2.816,-3.216c-1.136,-0 -2.08,0.528 -2.528,1.616l-0.048,-1.424l-1.424,-0Z" style="fill-rule:nonzero;"/><path d="M191.072,160.08l1.552,-0l-0,-3.568c0.48,0.896 1.328,1.36 2.48,1.36c2.448,-0 3.584,-2.048 3.584,-4.432c-0,-2.384 -1.136,-4.432 -3.584,-4.432c-1.216,-0 -2.08,0.512 -2.544,1.424l-0.048,-1.232l-1.44,-0l-0,10.88Zm1.392,-6.64c-0,-1.536 0.688,-2.992 2.288,-2.992c1.616,-0 2.272,1.44 2.272,2.992c-0,1.552 -0.656,2.992 -2.272,2.992c-1.6,-0 -2.288,-1.456 -2.288,-2.992Z" style="fill-rule:nonzero;"/><path d="M207.552,157.68l-0,-8.48l-1.552,-0l-0,5.056c-0,1.504 -0.8,2.288 -2,2.288c-1.12,-0 -1.616,-0.784 -1.616,-2.288l-0,-5.056l-1.552,-0l-0,5.456c-0,1.824 0.912,3.216 2.768,3.216c1.088,-0 2.016,-0.512 2.464,-1.568l0.016,1.376l1.472,-0Z" style="fill-rule:nonzero;"/><path d="M212.416,146.96l-0,2.24l-2.416,-0l-0,1.376l2.416,-0l-0,4.656c-0,1.504 0.752,2.448 2.544,2.448l2.304,-0l-0,-1.376l-2.208,-0c-0.704,-0 -1.088,-0.432 -1.088,-1.136l-0,-4.592l3.328,-0l-0,-1.376l-3.328,-0l-0,-2.24l-1.552,-0Z" style="fill-rule:nonzero;"/><path d="M225.872,145.36l-1.44,-0c-3.904,4.32 -3.904,9.44 -0,13.76l1.44,-0c-3.52,-4.32 -3.52,-9.44 -0,-13.76Z" style="fill-rule:nonzero;"/><path d="M232.048,145.36l-1.44,-0c3.52,4.32 3.52,9.44 -0,13.76l1.44,-0c3.904,-4.32 3.904,-9.44 -0,-13.76Z" style="fill-rule:nonzero;"/><path d="M241.648,145.36l-1.44,-0c3.52,4.32 3.52,9.44 -0,13.76l1.44,-0c3.904,-4.32 3.904,-9.44 -0,-13.76Z" style="fill-rule:nonzero;"/><rect x="64" y="136" width="192" height="32" style="fill:none;stroke:#000;stroke-width:1.5px;"/><path d="M148.5,194.439l-4.5,4.5l-4.5,-4.5" style="fill:none;stroke:#000;stroke-width:1.5px;stroke-linejoin:miter;stroke-miterlimit:10;"/><path d="M144,168l-0,30.939" style="fill:none;stroke:#000;stroke-width:1.5px;"/><path d="M148.5,66.439l-4.5,4.5l-4.5,-4.5" style="fill:none;stroke:#000;stroke-width:1.5px;stroke-linejoin:miter;stroke-miterlimit:10;"/><path d="M144,40l-0,30.939" style="fill:none;stroke:#000;stroke-width:1.5px;"/><path d="M472.5,242.399l-4.5,4.5l-4.5,-4.5" style="fill:none;stroke:#000;stroke-width:1.5px;stroke-linejoin:miter;stroke-miterlimit:10;"/><path d="M224,216.056l228,0c8.837,0 16,7.163 16,16l-0,14.843" style="fill:none;stroke:#000;stroke-width:1.5px;"/><path d="M472.5,386.439l-4.5,4.5l-4.5,-4.5" style="fill:none;stroke:#000;stroke-width:1.5px;stroke-linejoin:miter;stroke-miterlimit:10;"/><path d="M200,360c-0,-0 194.27,0.07 252.006,0.09c8.834,0.003 15.994,7.166 15.994,16c-0,6.218 -0,12.427 -0,14.849" style="fill:none;stroke:#000;stroke-width:1.5px;"/><path d="M148.5,338.439l-4.5,4.5l-4.5,-4.5" style="fill:none;stroke:#000;stroke-width:1.5px;stroke-linejoin:miter;stroke-miterlimit:10;"/><path d="M144,231.96c-0,0 -0,99.573 -0,110.979" style="fill:none;stroke:#000;stroke-width:1.5px;"/><path d="M148.54,434.439l-4.5,4.5l-4.5,-4.5" style="fill:none;stroke:#000;stroke-width:1.5px;stroke-linejoin:miter;stroke-miterlimit:10;"/><path d="M144.04,376l-0,62.939" style="fill:none;stroke:#000;stroke-width:1.5px;"/><path d="M148.5,498.439l-4.5,4.5l-4.5,-4.5" style="fill:none;stroke:#000;stroke-width:1.5px;stroke-linejoin:miter;stroke-miterlimit:10;"/><path d="M144,472l-0,30.939" style="fill:none;stroke:#000;stroke-width:1.5px;"/><path d="M269.896,196.6l-8.32,0l-0,1.52l3.36,0l-0,9.84l1.6,0l-0,-9.84l3.36,0l-0,-1.52Z" style="fill-rule:nonzero;"/><path d="M275.208,199.48l-3.312,0l-0,1.376l2.176,0l-0,5.728l-2.176,0l-0,1.376l6.448,0l-0,-1.376l-2.704,0l-0,-3.632c-0,-1.408 0.56,-2.096 1.824,-2.096l1.68,0l-0,-1.376l-1.728,0c-1.12,0 -1.808,0.496 -2.096,1.568l-0.112,-1.568Z" style="fill-rule:nonzero;"/><path d="M288.248,207.96l-0,-8.48l-1.552,0l-0,5.056c-0,1.504 -0.8,2.288 -2,2.288c-1.12,0 -1.616,-0.784 -1.616,-2.288l-0,-5.056l-1.552,0l-0,5.456c-0,1.824 0.912,3.216 2.768,3.216c1.088,0 2.016,-0.512 2.464,-1.568l0.016,1.376l1.472,0Z" style="fill-rule:nonzero;"/><path d="M290.728,203.72c-0,2.704 1.552,4.432 3.936,4.432c1.696,0 3.152,-1.024 3.632,-2.64l-1.648,-0.144c-0.368,0.848 -1.136,1.344 -1.984,1.344c-1.344,0 -2.16,-0.944 -2.288,-2.544l6.048,0l-0,-0.592c-0.128,-3.056 -1.856,-4.288 -3.76,-4.288c-2.384,0 -3.936,1.728 -3.936,4.432Zm1.696,-0.8c0.224,-1.376 1.008,-2.192 2.24,-2.192c0.96,0 1.84,0.576 2.064,2.192l-4.304,0Z" style="fill-rule:nonzero;"/><path d="M269.896,340.64l-8.32,0l-0,1.52l3.36,0l-0,9.84l1.6,0l-0,-9.84l3.36,0l-0,-1.52Z" style="fill-rule:nonzero;"/><path d="M275.208,343.52l-3.312,0l-0,1.376l2.176,0l-0,5.728l-2.176,0l-0,1.376l6.448,0l-0,-1.376l-2.704,0l-0,-3.632c-0,-1.408 0.56,-2.096 1.824,-2.096l1.68,0l-0,-1.376l-1.728,0c-1.12,0 -1.808,0.496 -2.096,1.568l-0.112,-1.568Z" style="fill-rule:nonzero;"/><path d="M288.248,352l-0,-8.48l-1.552,0l-0,5.056c-0,1.504 -0.8,2.288 -2,2.288c-1.12,0 -1.616,-0.784 -1.616,-2.288l-0,-5.056l-1.552,0l-0,5.456c-0,1.824 0.912,3.216 2.768,3.216c1.088,0 2.016,-0.512 2.464,-1.568l0.016,1.376l1.472,0Z" style="fill-rule:nonzero;"/><path d="M290.728,347.76c-0,2.704 1.552,4.432 3.936,4.432c1.696,0 3.152,-1.024 3.632,-2.64l-1.648,-0.144c-0.368,0.848 -1.136,1.344 -1.984,1.344c-1.344,0 -2.16,-0.944 -2.288,-2.544l6.048,0l-0,-0.592c-0.128,-3.056 -1.856,-4.288 -3.76,-4.288c-2.384,0 -3.936,1.728 -3.936,4.432Zm1.696,-0.8c0.224,-1.376 1.008,-2.192 2.24,-2.192c0.96,0 1.84,0.576 2.064,2.192l-4.304,-0Z" style="fill-rule:nonzero;"/><path d="M156,258.184l-0,11.36l1.616,0l-0,-4.816l5.184,0l-0,-1.488l-5.184,0l-0,-3.536l5.472,0l-0,-1.52l-7.088,0Z" style="fill-rule:nonzero;"/><path d="M165.296,263.592l1.648,0.112c0.192,-0.816 0.896,-1.392 1.856,-1.392c1.136,0 1.872,0.64 1.888,1.936l-2.288,0.448c-1.952,0.368 -3.248,0.864 -3.248,2.624c-0,1.52 1.376,2.416 3.088,2.416c1.328,0 2.32,-0.704 2.64,-1.488c0.16,0.752 0.768,1.296 1.792,1.296l0.448,0l-0,-1.376l-0.368,0c-0.352,0 -0.512,-0.16 -0.512,-0.528l-0,-3.216c-0,-2.352 -1.36,-3.552 -3.424,-3.552c-1.792,0 -3.2,1.072 -3.52,2.72Zm1.488,3.696c-0,-1.072 0.928,-1.168 2.112,-1.376l1.824,-0.32l-0,0.368c-0,1.52 -1.008,2.416 -2.288,2.416c-1.12,0 -1.632,-0.496 -1.648,-1.088Z" style="fill-rule:nonzero;"/><path d="M175.04,268.168l-0,1.376l7.648,0l-0,-1.376l-2.896,0l-0,-7.648c-0,-1.52 -0.88,-2.336 -2.464,-2.336l-2.016,0l-0,1.376l2.016,0c0.624,0 0.912,0.304 0.912,0.96l-0,7.648l-3.2,0Z" style="fill-rule:nonzero;"/><path d="M190.032,263.72l1.6,-0.096c-0.272,-1.68 -1.664,-2.752 -3.456,-2.752c-1.792,0 -3.328,0.976 -3.328,2.688c-0,1.536 1.584,2.128 3.184,2.512c0.944,0.224 2.016,0.368 2.016,1.2c-0,0.8 -0.88,1.024 -1.728,1.024c-1.088,0 -1.936,-0.592 -2.096,-1.536l-1.632,0.096c0.128,1.76 1.744,2.88 3.728,2.88c1.76,0 3.36,-0.72 3.36,-2.384c-0,-1.584 -1.616,-2.176 -3.232,-2.576c-0.944,-0.24 -1.968,-0.432 -1.968,-1.28c-0.016,-0.784 0.736,-1.184 1.552,-1.184c0.992,0 1.824,0.512 2,1.408Z" style="fill-rule:nonzero;"/><path d="M193.936,265.304c-0,2.704 1.552,4.432 3.936,4.432c1.696,0 3.152,-1.024 3.632,-2.64l-1.648,-0.144c-0.368,0.848 -1.136,1.344 -1.984,1.344c-1.344,0 -2.16,-0.944 -2.288,-2.544l6.048,0l-0,-0.592c-0.128,-3.056 -1.856,-4.288 -3.76,-4.288c-2.384,0 -3.936,1.728 -3.936,4.432Zm1.696,-0.8c0.224,-1.376 1.008,-2.192 2.24,-2.192c0.96,0 1.84,0.576 2.064,2.192l-4.304,0Z" style="fill-rule:nonzero;"/><path d="M156,402.224l-0,11.36l1.616,0l-0,-4.816l5.184,0l-0,-1.488l-5.184,0l-0,-3.536l5.472,0l-0,-1.52l-7.088,0Z" style="fill-rule:nonzero;"/><path d="M165.296,407.632l1.648,0.112c0.192,-0.816 0.896,-1.392 1.856,-1.392c1.136,0 1.872,0.64 1.888,1.936l-2.288,0.448c-1.952,0.368 -3.248,0.864 -3.248,2.624c-0,1.52 1.376,2.416 3.088,2.416c1.328,0 2.32,-0.704 2.64,-1.488c0.16,0.752 0.768,1.296 1.792,1.296l0.448,0l-0,-1.376l-0.368,0c-0.352,0 -0.512,-0.16 -0.512,-0.528l-0,-3.216c-0,-2.352 -1.36,-3.552 -3.424,-3.552c-1.792,0 -3.2,1.072 -3.52,2.72Zm1.488,3.696c-0,-1.072 0.928,-1.168 2.112,-1.376l1.824,-0.32l-0,0.368c-0,1.52 -1.008,2.416 -2.288,2.416c-1.12,0 -1.632,-0.496 -1.648,-1.088Z" style="fill-rule:nonzero;"/><path d="M175.04,412.208l-0,1.376l7.648,0l-0,-1.376l-2.896,0l-0,-7.648c-0,-1.52 -0.88,-2.336 -2.464,-2.336l-2.016,0l-0,1.376l2.016,0c0.624,0 0.912,0.304 0.912,0.96l-0,7.648l-3.2,0Z" style="fill-rule:nonzero;"/><path d="M190.032,407.76l1.6,-0.096c-0.272,-1.68 -1.664,-2.752 -3.456,-2.752c-1.792,0 -3.328,0.976 -3.328,2.688c-0,1.536 1.584,2.128 3.184,2.512c0.944,0.224 2.016,0.368 2.016,1.2c-0,0.8 -0.88,1.024 -1.728,1.024c-1.088,0 -1.936,-0.592 -2.096,-1.536l-1.632,0.096c0.128,1.76 1.744,2.88 3.728,2.88c1.76,0 3.36,-0.72 3.36,-2.384c-0,-1.584 -1.616,-2.176 -3.232,-2.576c-0.944,-0.24 -1.968,-0.432 -1.968,-1.28c-0.016,-0.784 0.736,-1.184 1.552,-1.184c0.992,0 1.824,0.512 2,1.408Z" style="fill-rule:nonzero;"/><path d="M193.936,409.344c-0,2.704 1.552,4.432 3.936,4.432c1.696,0 3.152,-1.024 3.632,-2.64l-1.648,-0.144c-0.368,0.848 -1.136,1.344 -1.984,1.344c-1.344,0 -2.16,-0.944 -2.288,-2.544l6.048,0l-0,-0.592c-0.128,-3.056 -1.856,-4.288 -3.76,-4.288c-2.384,0 -3.936,1.728 -3.936,4.432Zm1.696,-0.8c0.224,-1.376 1.008,-2.192 2.24,-2.192c0.96,0 1.84,0.576 2.064,2.192l-4.304,0Z" style="fill-rule:nonzero;"/><circle cx="144" cy="32" r="8" style="fill:none;stroke:#000;stroke-width:1.5px;"/><circle cx="144" cy="608" r="8" style="fill:none;stroke:#000;stroke-width:1.5px;"/><path d="M148.5,594.439l-4.5,4.5l-4.5,-4.5" style="fill:none;stroke:#000;stroke-width:1.5px;stroke-linejoin:miter;stroke-miterlimit:10;"/><path d="M144,537.44c-0,0 -0,53.275 -0,61.499" style="fill:none;stroke:#000;stroke-width:1.5px;"/><rect x="112" y="440.04" width="64" height="32" style="stroke:#000;stroke-width:1.5px;"/><path d="M125.792,457.48c-0,2.704 1.552,4.432 3.936,4.432c1.696,-0 3.152,-1.024 3.632,-2.64l-1.648,-0.144c-0.368,0.848 -1.136,1.344 -1.984,1.344c-1.344,-0 -2.16,-0.944 -2.288,-2.544l6.048,-0l-0,-0.592c-0.128,-3.056 -1.856,-4.288 -3.76,-4.288c-2.384,-0 -3.936,1.728 -3.936,4.432Zm1.696,-0.8c0.224,-1.376 1.008,-2.192 2.24,-2.192c0.96,-0 1.84,0.576 2.064,2.192l-4.304,-0Z" style="fill:#fff;fill-rule:nonzero;"/><path d="M135.696,460.344l-0,1.376l7.648,-0l-0,-1.376l-2.896,-0l-0,-7.648c-0,-1.52 -0.88,-2.336 -2.464,-2.336l-2.016,0l-0,1.376l2.016,0c0.624,0 0.912,0.304 0.912,0.96l-0,7.648l-3.2,0Z" style="fill:#fff;fill-rule:nonzero;"/><path d="M150.688,455.896l1.6,-0.096c-0.272,-1.68 -1.664,-2.752 -3.456,-2.752c-1.792,-0 -3.328,0.976 -3.328,2.688c-0,1.536 1.584,2.128 3.184,2.512c0.944,0.224 2.016,0.368 2.016,1.2c-0,0.8 -0.88,1.024 -1.728,1.024c-1.088,-0 -1.936,-0.592 -2.096,-1.536l-1.632,0.096c0.128,1.76 1.744,2.88 3.728,2.88c1.76,-0 3.36,-0.72 3.36,-2.384c-0,-1.584 -1.616,-2.176 -3.232,-2.576c-0.944,-0.24 -1.968,-0.432 -1.968,-1.28c-0.016,-0.784 0.736,-1.184 1.552,-1.184c0.992,0 1.824,0.512 2,1.408Z" style="fill:#fff;fill-rule:nonzero;"/><path d="M154.592,457.48c-0,2.704 1.552,4.432 3.936,4.432c1.696,-0 3.152,-1.024 3.632,-2.64l-1.648,-0.144c-0.368,0.848 -1.136,1.344 -1.984,1.344c-1.344,-0 -2.16,-0.944 -2.288,-2.544l6.048,-0l-0,-0.592c-0.128,-3.056 -1.856,-4.288 -3.76,-4.288c-2.384,-0 -3.936,1.728 -3.936,4.432Zm1.696,-0.8c0.224,-1.376 1.008,-2.192 2.24,-2.192c0.96,-0 1.84,0.576 2.064,2.192l-4.304,-0Z" style="fill:#fff;fill-rule:nonzero;"/><path d="M468,280l-0,15.999c0,4.244 -1.686,8.314 -4.687,11.314c-3,3.001 -7.07,4.686 -11.314,4.686c-55.136,-0.003 -236.862,-0.011 -291.998,-0.014c-4.244,-0 -8.314,1.685 -11.314,4.686c-3.001,3 -4.687,7.07 -4.687,11.314c-0,8.006 -0,16.015 -0,16.015" style="fill:none;stroke:#000;stroke-width:1.5px;"/><path d="M468,424l-0,127.999c-0,4.244 -1.686,8.314 -4.687,11.314c-3,3.001 -7.07,4.686 -11.314,4.686c-55.136,-0.003 -236.862,-0.011 -291.998,-0.014c-4.244,-0 -8.314,1.685 -11.314,4.686c-3.001,3 -4.687,7.07 -4.687,11.314c-0,8.006 -0,16.015 -0,16.015" style="fill:none;stroke:#000;stroke-width:1.5px;"/></g></svg>