<?xml version="1.0" encoding="UTF-8" standalone="no"?><!DOCTYPE svg PUBLIC "-//W3C//DTD SVG 1.1//EN" "http://www.w3.org/Graphics/SVG/1.1/DTD/svg11.dtd"><svg width="100%" height="100%" viewBox="0 0 448 384" version="1.1" xmlns="http://www.w3.org/2000/svg" xmlns:xlink="http://www.w3.org/1999/xlink" xml:space="preserve" xmlns:serif="http://www.serif.com/" style="fill-rule:evenodd;clip-rule:evenodd;stroke-linecap:round;stroke-linejoin:round;stroke-miterlimit:1.5;"><rect id="while" x="0" y="0" width="448" height="384" style="fill:#f6f8fa;"/><g id="while1" serif:id="while"><rect x="32" y="136" width="64" height="32" style="stroke:#000;stroke-width:1.5px;"/><path d="M112.784,149.2l-4.56,-0l0,1.376l2.992,-0l0,5.728l-3.28,-0l0,1.376l7.664,-0l0,-1.376l-2.816,-0l0,-7.104Zm-1.712,-1.2l1.696,-0l0,-1.68l-1.696,-0l0,1.68Z" style="fill-rule:nonzero;"/><path d="M134.288,148.56l-7.312,3.2l0,1.952l7.312,3.216l0,-1.584l-5.952,-2.608l5.952,-2.608l0,-1.568Z" style="fill-rule:nonzero;"/><path d="M153.232,146.32l-6.224,-0l-0.896,6.464l1.696,-0c0.288,-0.688 1.152,-1.168 2.016,-1.168c1.36,-0 2.352,0.96 2.352,2.4c0,1.408 -0.912,2.4 -2.16,2.4c-1.312,-0 -2.24,-0.688 -2.416,-1.808l-1.664,0.096c0.16,1.824 1.872,3.232 3.936,3.232c2.336,-0 3.968,-1.616 3.968,-3.92c0,-2.272 -1.568,-3.904 -3.632,-3.904c-0.832,-0 -1.744,0.32 -2.256,0.896l0.432,-3.168l4.848,-0l0,-1.52Z" style="fill-rule:nonzero;"/><path d="M219.872,208.08l1.552,-0l-0,-3.568c0.48,0.896 1.328,1.36 2.48,1.36c2.448,-0 3.584,-2.048 3.584,-4.432c-0,-2.384 -1.136,-4.432 -3.584,-4.432c-1.216,-0 -2.08,0.512 -2.544,1.424l-0.048,-1.232l-1.44,-0l0,10.88Zm1.392,-6.64c0,-1.536 0.688,-2.992 2.288,-2.992c1.616,-0 2.272,1.44 2.272,2.992c0,1.552 -0.656,2.992 -2.272,2.992c-1.6,-0 -2.288,-1.456 -2.288,-2.992Z" style="fill-rule:nonzero;"/><path d="M232.912,197.2l-3.312,-0l0,1.376l2.176,-0l0,5.728l-2.176,-0l0,1.376l6.448,-0l0,-1.376l-2.704,-0l0,-3.632c0,-1.408 0.56,-2.096 1.824,-2.096l1.68,-0l0,-1.376l-1.728,-0c-1.12,-0 -1.808,0.496 -2.096,1.568l-0.112,-1.568Z" style="fill-rule:nonzero;"/><path d="M243.984,197.2l-4.56,-0l0,1.376l2.992,-0l0,5.728l-3.28,-0l0,1.376l7.664,-0l0,-1.376l-2.816,-0l0,-7.104Zm-1.712,-1.2l1.696,-0l0,-1.68l-1.696,-0l0,1.68Z" style="fill-rule:nonzero;"/><path d="M248.944,197.2l0,8.48l1.552,-0l0,-5.056c0,-1.504 0.816,-2.288 2.048,-2.288c1.168,-0 1.664,0.784 1.664,2.288l0,5.056l1.552,-0l0,-5.456c0,-1.824 -0.928,-3.216 -2.816,-3.216c-1.136,-0 -2.08,0.528 -2.528,1.616l-0.048,-1.424l-1.424,-0Z" style="fill-rule:nonzero;"/><path d="M260.416,194.96l-0,2.24l-2.416,-0l-0,1.376l2.416,-0l-0,4.656c-0,1.504 0.752,2.448 2.544,2.448l2.304,-0l0,-1.376l-2.208,-0c-0.704,-0 -1.088,-0.432 -1.088,-1.136l0,-4.592l3.328,-0l0,-1.376l-3.328,-0l0,-2.24l-1.552,-0Z" style="fill-rule:nonzero;"/><path d="M273.872,193.36l-1.44,-0c-3.904,4.32 -3.904,9.44 -0,13.76l1.44,-0c-3.52,-4.32 -3.52,-9.44 -0,-13.76Z" style="fill-rule:nonzero;"/><path d="M281.664,194.32l0.064,4.112l1.088,-0l0.384,-2.816l-0,-1.296l-1.536,-0Zm-2.784,1.296l0.384,2.816l1.088,-0l0.064,-4.112l-1.536,-0l-0,1.296Z" style="fill-rule:nonzero;"/><path d="M286.88,205.68l1.584,-0l-0,-4.944l4.352,-0l-0,4.944l1.584,-0l-0,-11.36l-1.584,-0l-0,4.896l-4.352,-0l-0,-4.896l-1.584,-0l-0,11.36Z" style="fill-rule:nonzero;"/><path d="M296.432,201.44c-0,2.704 1.552,4.432 3.936,4.432c1.696,-0 3.152,-1.024 3.632,-2.64l-1.648,-0.144c-0.368,0.848 -1.136,1.344 -1.984,1.344c-1.344,-0 -2.16,-0.944 -2.288,-2.544l6.048,-0l-0,-0.592c-0.128,-3.056 -1.856,-4.288 -3.76,-4.288c-2.384,0 -3.936,1.728 -3.936,4.432Zm1.696,-0.8c0.224,-1.376 1.008,-2.192 2.24,-2.192c0.96,0 1.84,0.576 2.064,2.192l-4.304,0Z" style="fill-rule:nonzero;"/><path d="M306.336,204.304l-0,1.376l7.648,-0l-0,-1.376l-2.896,-0l-0,-7.648c-0,-1.52 -0.88,-2.336 -2.464,-2.336l-2.016,-0l-0,1.376l2.016,-0c0.624,-0 0.912,0.304 0.912,0.96l-0,7.648l-3.2,-0Z" style="fill-rule:nonzero;"/><path d="M315.936,204.304l-0,1.376l7.648,-0l-0,-1.376l-2.896,-0l-0,-7.648c-0,-1.52 -0.88,-2.336 -2.464,-2.336l-2.016,-0l-0,1.376l2.016,-0c0.624,-0 0.912,0.304 0.912,0.96l-0,7.648l-3.2,-0Z" style="fill-rule:nonzero;"/><path d="M329.04,205.872c2.352,-0 3.936,-1.744 3.936,-4.432c-0,-2.688 -1.584,-4.432 -3.936,-4.432c-2.352,-0 -3.936,1.744 -3.936,4.432c-0,2.688 1.584,4.432 3.936,4.432Zm-2.304,-4.432c-0,-1.872 0.848,-2.992 2.304,-2.992c1.456,-0 2.304,1.12 2.304,2.992c-0,1.872 -0.848,2.992 -2.304,2.992c-1.456,-0 -2.304,-1.12 -2.304,-2.992Z" style="fill-rule:nonzero;"/><path d="M345.072,205.68l2.24,-0l0.928,-7.616l0.928,7.616l2.24,-0l1.168,-11.36l-1.632,-0l-0.912,9.28l-1.088,-8.32l-1.424,-0l-1.072,8.304l-0.912,-9.264l-1.632,-0l1.168,11.36Z" style="fill-rule:nonzero;"/><path d="M357.84,205.872c2.352,-0 3.936,-1.744 3.936,-4.432c-0,-2.688 -1.584,-4.432 -3.936,-4.432c-2.352,-0 -3.936,1.744 -3.936,4.432c-0,2.688 1.584,4.432 3.936,4.432Zm-2.304,-4.432c-0,-1.872 0.848,-2.992 2.304,-2.992c1.456,-0 2.304,1.12 2.304,2.992c-0,1.872 -0.848,2.992 -2.304,2.992c-1.456,-0 -2.304,-1.12 -2.304,-2.992Z" style="fill-rule:nonzero;"/><path d="M367.312,197.2l-3.312,-0l-0,1.376l2.176,-0l-0,5.728l-2.176,-0l-0,1.376l6.448,-0l-0,-1.376l-2.704,-0l-0,-3.632c-0,-1.408 0.56,-2.096 1.824,-2.096l1.68,-0l-0,-1.376l-1.728,-0c-1.12,-0 -1.808,0.496 -2.096,1.568l-0.112,-1.568Z" style="fill-rule:nonzero;"/><path d="M373.536,204.304l-0,1.376l7.648,-0l-0,-1.376l-2.896,-0l-0,-7.648c-0,-1.52 -0.88,-2.336 -2.464,-2.336l-2.016,-0l-0,1.376l2.016,-0c0.624,-0 0.912,0.304 0.912,0.96l-0,7.648l-3.2,-0Z" style="fill-rule:nonzero;"/><path d="M390.208,194.32l-1.552,-0l-0,4c-0.496,-0.848 -1.328,-1.312 -2.544,-1.312c-2.384,-0 -3.52,2.048 -3.52,4.432c-0,2.384 1.136,4.432 3.52,4.432c1.28,0 2.144,-0.512 2.608,-1.392l0.048,1.2l1.44,0l-0,-11.36Zm-5.984,7.12c-0,-1.6 0.656,-3.04 2.288,-3.04c1.6,0 2.272,1.456 2.272,3.04c-0,1.536 -0.672,2.992 -2.272,2.992c-1.632,0 -2.288,-1.44 -2.288,-2.992Z" style="fill-rule:nonzero;"/><path d="M396.864,194.32l0.064,4.112l1.088,-0l0.384,-2.816l-0,-1.296l-1.536,-0Zm-2.784,1.296l0.384,2.816l1.088,-0l0.064,-4.112l-1.536,-0l-0,1.296Z" style="fill-rule:nonzero;"/><path d="M404.848,193.36l-1.44,-0c3.52,4.32 3.52,9.44 -0,13.76l1.44,-0c3.904,-4.32 3.904,-9.44 -0,-13.76Z" style="fill-rule:nonzero;"/><path d="M76.784,85.2l-4.56,-0l0,1.376l2.992,-0l0,5.728l-3.28,-0l0,1.376l7.664,-0l0,-1.376l-2.816,-0l0,-7.104Zm-1.712,-1.2l1.696,-0l0,-1.68l-1.696,-0l0,1.68Z" style="fill-rule:nonzero;"/><path d="M91.104,86.32l0,1.44l7.072,-0l0,-1.44l-7.072,-0Zm0,5.04l7.072,-0l0,-1.44l-7.072,-0l0,1.44Z" style="fill-rule:nonzero;"/><path d="M113.84,93.936c2.512,-0 4.064,-2.304 4.064,-5.92c0,-3.632 -1.552,-5.952 -4.064,-5.952c-2.512,-0 -4.064,2.32 -4.064,5.952c0,3.616 1.552,5.92 4.064,5.92Zm-2.384,-5.92c0,-2.752 0.912,-4.432 2.384,-4.432c0.528,-0 0.992,0.224 1.36,0.624l-3.424,6.256c-0.208,-0.672 -0.32,-1.488 -0.32,-2.448Zm1.008,3.76l3.424,-6.304c0.224,0.688 0.336,1.552 0.336,2.544c0,2.72 -0.912,4.4 -2.384,4.4c-0.544,-0 -1.008,-0.224 -1.376,-0.64Z" style="fill-rule:nonzero;"/><rect x="96" y="136" width="72" height="32" style="fill:none;stroke:#000;stroke-width:1.5px;"/><rect x="208" y="184" width="208" height="32" style="fill:none;stroke:#000;stroke-width:1.5px;"/><path d="M272.784,261.2l-4.56,-0l0,1.376l2.992,-0l0,5.728l-3.28,-0l-0,1.376l7.664,-0l-0,-1.376l-2.816,-0l-0,-7.104Zm-1.712,-1.2l1.696,-0l-0,-1.68l-1.696,-0l-0,1.68Z" style="fill-rule:nonzero;"/><path d="M287.104,262.32l0,1.44l7.072,-0l0,-1.44l-7.072,-0Zm0,5.04l7.072,-0l0,-1.44l-7.072,-0l0,1.44Z" style="fill-rule:nonzero;"/><path d="M311.184,261.2l-4.56,-0l-0,1.376l2.992,-0l-0,5.728l-3.28,-0l-0,1.376l7.664,-0l-0,-1.376l-2.816,-0l-0,-7.104Zm-1.712,-1.2l1.696,-0l-0,-1.68l-1.696,-0l-0,1.68Z" style="fill-rule:nonzero;"/><path d="M325.232,264.08l0,1.44l3.088,-0l-0,3.088l1.44,-0l-0,-3.088l3.088,-0l-0,-1.44l-3.088,-0l-0,-3.088l-1.44,-0l-0,3.088l-3.088,-0Z" style="fill-rule:nonzero;"/><path d="M344.368,268.16l-0,1.52l8.032,-0l-0,-1.52l-3.056,-0l-0,-9.84l-1.296,-0c-0,1.296 -0.56,1.856 -1.856,1.856l-1.296,-0l-0,1.328l2.848,-0l-0,6.656l-3.376,-0Z" style="fill-rule:nonzero;"/><rect x="256" y="248" width="112" height="32" style="fill:none;stroke:#000;stroke-width:1.5px;"/><rect x="60" y="72" width="72" height="32" style="fill:none;stroke:#000;stroke-width:1.5px;"/><path d="M45.88,150.32l-1.504,-0l-1.12,5.12l-1.056,-6.24l-1.616,-0l1.712,8.48l1.744,-0l1.088,-4.96l1.088,4.96l1.744,-0l1.712,-8.48l-1.616,-0l-1.056,6.24l-1.12,-5.12Z" style="fill:#fff;fill-rule:nonzero;"/><path d="M51.512,146.32l0,11.36l1.552,-0l0,-4.976c0,-1.504 0.8,-2.288 2.032,-2.288c1.168,-0 1.664,0.784 1.664,2.288l0,4.976l1.552,-0l0,-5.456c0,-1.824 -0.912,-3.216 -2.816,-3.216c-1.008,-0 -1.936,0.416 -2.432,1.296l0,-3.984l-1.552,-0Z" style="fill:#fff;fill-rule:nonzero;"/><path d="M65.672,149.2l-4.56,-0l0,1.376l2.992,-0l0,5.728l-3.28,-0l0,1.376l7.664,-0l0,-1.376l-2.816,-0l0,-7.104Zm-1.712,-1.2l1.696,-0l0,-1.68l-1.696,-0l0,1.68Z" style="fill:#fff;fill-rule:nonzero;"/><path d="M70.424,156.304l0,1.376l7.648,-0l0,-1.376l-2.896,-0l0,-7.648c0,-1.52 -0.88,-2.336 -2.464,-2.336l-2.016,-0l0,1.376l2.016,-0c0.624,-0 0.912,0.304 0.912,0.96l0,7.648l-3.2,-0Z" style="fill:#fff;fill-rule:nonzero;"/><path d="M79.72,153.44c0,2.704 1.552,4.432 3.936,4.432c1.696,-0 3.152,-1.024 3.632,-2.64l-1.648,-0.144c-0.368,0.848 -1.136,1.344 -1.984,1.344c-1.344,-0 -2.16,-0.944 -2.288,-2.544l6.048,-0l0,-0.592c-0.128,-3.056 -1.856,-4.288 -3.76,-4.288c-2.384,0 -3.936,1.728 -3.936,4.432Zm1.696,-0.8c0.224,-1.376 1.008,-2.192 2.24,-2.192c0.96,0 1.84,0.576 2.064,2.192l-4.304,0Z" style="fill:#fff;fill-rule:nonzero;"/><path d="M100.5,130.439l-4.5,4.5l-4.5,-4.5" style="fill:none;stroke:#000;stroke-width:1.5px;stroke-linejoin:miter;stroke-miterlimit:10;"/><path d="M96,104l0,30.939" style="fill:none;stroke:#000;stroke-width:1.5px;"/><path d="M316.5,242.439l-4.5,4.5l-4.5,-4.5" style="fill:none;stroke:#000;stroke-width:1.5px;stroke-linejoin:miter;stroke-miterlimit:10;"/><path d="M312,216l0,30.939" style="fill:none;stroke:#000;stroke-width:1.5px;"/><path d="M100.5,66.439l-4.5,4.5l-4.5,-4.5" style="fill:none;stroke:#000;stroke-width:1.5px;stroke-linejoin:miter;stroke-miterlimit:10;"/><path d="M96,40l0,30.939" style="fill:none;stroke:#000;stroke-width:1.5px;"/><path d="M316.5,178.439l-4.5,4.5l-4.5,-4.5" style="fill:none;stroke:#000;stroke-width:1.5px;stroke-linejoin:miter;stroke-miterlimit:10;"/><path d="M168,152.128c0,-0 90.478,-0.02 127.996,-0.028c4.245,-0.001 8.315,1.684 11.316,4.685c3.002,3 4.688,7.07 4.688,11.315c0,6.214 0,12.419 0,14.839" style="fill:none;stroke:#000;stroke-width:1.5px;"/><path d="M100.5,338.439l-4.5,4.5l-4.5,-4.5" style="fill:none;stroke:#000;stroke-width:1.5px;stroke-linejoin:miter;stroke-miterlimit:10;"/><path d="M96,168c0,-0 -0,160.343 -0,174.939" style="fill:none;stroke:#000;stroke-width:1.5px;"/><path d="M207.472,132.64l-8.32,-0l0,1.52l3.36,-0l0,9.84l1.6,-0l0,-9.84l3.36,-0l0,-1.52Z" style="fill-rule:nonzero;"/><path d="M212.784,135.52l-3.312,-0l0,1.376l2.176,-0l0,5.728l-2.176,-0l0,1.376l6.448,-0l0,-1.376l-2.704,-0l0,-3.632c0,-1.408 0.56,-2.096 1.824,-2.096l1.68,-0l0,-1.376l-1.728,-0c-1.12,-0 -1.808,0.496 -2.096,1.568l-0.112,-1.568Z" style="fill-rule:nonzero;"/><path d="M225.824,144l0,-8.48l-1.552,-0l0,5.056c0,1.504 -0.8,2.288 -2,2.288c-1.12,-0 -1.616,-0.784 -1.616,-2.288l0,-5.056l-1.552,-0l0,5.456c0,1.824 0.912,3.216 2.768,3.216c1.088,-0 2.016,-0.512 2.464,-1.568l0.016,1.376l1.472,-0Z" style="fill-rule:nonzero;"/><path d="M228.304,139.76c0,2.704 1.552,4.432 3.936,4.432c1.696,-0 3.152,-1.024 3.632,-2.64l-1.648,-0.144c-0.368,0.848 -1.136,1.344 -1.984,1.344c-1.344,-0 -2.16,-0.944 -2.288,-2.544l6.048,-0l0,-0.592c-0.128,-3.056 -1.856,-4.288 -3.76,-4.288c-2.384,0 -3.936,1.728 -3.936,4.432Zm1.696,-0.8c0.224,-1.376 1.008,-2.192 2.24,-2.192c0.96,0 1.84,0.576 2.064,2.192l-4.304,0Z" style="fill-rule:nonzero;"/><path d="M38.368,194.224l0,11.36l1.616,-0l0,-4.816l5.184,-0l0,-1.488l-5.184,-0l0,-3.536l5.472,-0l0,-1.52l-7.088,-0Z" style="fill-rule:nonzero;"/><path d="M47.664,199.632l1.648,0.112c0.192,-0.816 0.896,-1.392 1.856,-1.392c1.136,-0 1.872,0.64 1.888,1.936l-2.288,0.448c-1.952,0.368 -3.248,0.864 -3.248,2.624c0,1.52 1.376,2.416 3.088,2.416c1.328,-0 2.32,-0.704 2.64,-1.488c0.16,0.752 0.768,1.296 1.792,1.296l0.448,-0l0,-1.376l-0.368,-0c-0.352,-0 -0.512,-0.16 -0.512,-0.528l0,-3.216c0,-2.352 -1.36,-3.552 -3.424,-3.552c-1.792,-0 -3.2,1.072 -3.52,2.72Zm1.488,3.696c0,-1.072 0.928,-1.168 2.112,-1.376l1.824,-0.32l0,0.368c0,1.52 -1.008,2.416 -2.288,2.416c-1.12,-0 -1.632,-0.496 -1.648,-1.088Z" style="fill-rule:nonzero;"/><path d="M57.408,204.208l0,1.376l7.648,-0l0,-1.376l-2.896,-0l0,-7.648c0,-1.52 -0.88,-2.336 -2.464,-2.336l-2.016,-0l0,1.376l2.016,-0c0.624,-0 0.912,0.304 0.912,0.96l0,7.648l-3.2,-0Z" style="fill-rule:nonzero;"/><path d="M72.4,199.76l1.6,-0.096c-0.272,-1.68 -1.664,-2.752 -3.456,-2.752c-1.792,-0 -3.328,0.976 -3.328,2.688c0,1.536 1.584,2.128 3.184,2.512c0.944,0.224 2.016,0.368 2.016,1.2c0,0.8 -0.88,1.024 -1.728,1.024c-1.088,0 -1.936,-0.592 -2.096,-1.536l-1.632,0.096c0.128,1.76 1.744,2.88 3.728,2.88c1.76,0 3.36,-0.72 3.36,-2.384c0,-1.584 -1.616,-2.176 -3.232,-2.576c-0.944,-0.24 -1.968,-0.432 -1.968,-1.28c-0.016,-0.784 0.736,-1.184 1.552,-1.184c0.992,-0 1.824,0.512 2,1.408Z" style="fill-rule:nonzero;"/><path d="M76.304,201.344c0,2.704 1.552,4.432 3.936,4.432c1.696,-0 3.152,-1.024 3.632,-2.64l-1.648,-0.144c-0.368,0.848 -1.136,1.344 -1.984,1.344c-1.344,-0 -2.16,-0.944 -2.288,-2.544l6.048,-0l0,-0.592c-0.128,-3.056 -1.856,-4.288 -3.76,-4.288c-2.384,0 -3.936,1.728 -3.936,4.432Zm1.696,-0.8c0.224,-1.376 1.008,-2.192 2.24,-2.192c0.96,0 1.84,0.576 2.064,2.192l-4.304,0Z" style="fill-rule:nonzero;"/><path d="M123.5,173.561l4.5,-4.5l4.5,4.5" style="fill:none;stroke:#000;stroke-width:1.5px;stroke-linejoin:miter;stroke-miterlimit:10;"/><path d="M312,280l0,16c0,8.837 -7.163,16 -16,16c-34.828,-0 -117.172,-0 -152,-0c-8.837,-0 -16,-7.163 -16,-16c0,-35.131 0,-116.707 0,-126.939" style="fill:none;stroke:#000;stroke-width:1.5px;"/><circle cx="96" cy="32" r="8" style="fill:none;stroke:#000;stroke-width:1.5px;"/><circle cx="96" cy="352" r="8" style="fill:none;stroke:#000;stroke-width:1.5px;"/></g></svg>